<svg viewBox="0 0 318 139" xmlns="http://www.w3.org/2000/svg"><path d="m53.4 39.73c11.3-9.2 24.1-16.7 37.6-22.4 13.8-5.8 28.3-9.8 43.1-11.8 15.1-2.1 30.4-2.3 45.5-.5 14.9 1.8 29.5 5.3 43.5 10.6 13.5 5.2 26.5 12 38.1 20.7 1.5 1.1 3 2.3 4.4 3.4-13-5.7-26.3-10.8-40-14.7s-27.6-6.7-41.8-8.2c-14.4-1.6-28.9-1.8-43.3-.7-14.3 1.1-28.4 3.6-42.2 7.3-13.7 3.6-27 8.5-40.1 14.2-1.6.7-3.2 1.4-4.8 2.1 5.3-4.3.9-.4 0 0z" fill="#86b52c"/><path d="m157.6 28.53-11.7 35.1h-68.1l68.3-35.1z" fill="#0045a7"/><path d="m160.9 28.53 11.7 35.1h68.1l-68.3-35.1z" fill="#0045a7"/><g fill="#86b52c"><path d="m128.5 74.83h-21.9l-4 9h-17.8l-8.1 4.9h23.8l-4.5 10.2h6.9l4.5-10h15.1c3.9 0 7.4-2.4 9-5.9l1-2.1c1.1-2.9-1-6.1-4-6.1zm-3.3 6.8c-.5 1.4-1.9 2.3-3.4 2.3h-12.4l1.8-4.1h12.7c1.1 0 1.9.9 1.3 1.8z"/><path d="m155.4 74.83h-11.9l-23.4 24.1h8l4.8-4.9h15.8l.2 4.9h8.4zm-7.1 14h-10.5l8.8-9h1.5l.3 9z"/><path d="m148 79.83.3 9h.1l-.3-9z"/><path d="m182 89.13-15.2-.5c-2.2-.1-3.6-2.4-2.7-4.4l2.4-5.2c.4-.7 1.1-1.9 2.5-2.9 1.7-1.2 3.3-1.5 4.1-1.6 2.7-.3 5.7-.4 8.9-.4 3.7 0 7.1.3 10.1.7.1 0 1.6.1 2.3 1.4.6 1.1.2 2.1.2 2.3l-1.4 3.2h-7.1l.1-.3c.3-.7-.2-1.6-1-1.6h-11.1c-.7 0-1.4.4-1.6 1.1l-.4.8c-.4.8.2 1.7 1 1.7l15.1.5c2.2.1 3.7 2.4 2.8 4.4l-1.9 4.2c-1.6 3.6-5.1 5.9-9.1 5.9h-18c-2 0-3.4-2.1-2.5-3.9l1.8-4.1h6.8l-.5 1.1c-.3.8.2 1.6 1.1 1.6h11.3c1.1 0 2.2-.7 2.6-1.8l.3-.7c.3-.7-.2-1.5-.9-1.5z"/><path d="m234.1 88.83 8.5-5.2h-39.6l1.6-3.5h19.1l2.4-5.3h-26.3l-10.4 23.6h7.1 19.2l2.2-5.2h-19.1l1.9-4.4z"/></g><path d="m129 126.23 1 8.1c-2.8.9-6.6 1.9-10.4 1.9-8.6 0-14.1-4.8-14.1-13.6 0-10.4 7.6-17.5 18.2-17.5 3.8 0 7.4.9 9.9 1.9l-3.3 7.9c-1.3-.6-3.2-1.1-5.3-1.1-5.2 0-8.3 3.2-8.3 7.6 0 4 2.5 6 6.7 6 2-.1 4.1-.6 5.6-1.2z" fill="#0045a7"/><path d="m145 127.13h10.8l-1.2 8.4h-21.7l4.2-29.9h11z" fill="#0045a7"/><path d="m188.6 105.63-2.5 18.1c-1.2 8.5-6.9 12.4-15.5 12.4s-13.2-3.9-12-12.4l2.5-18.1h11l-2.5 18c-.3 2.1 0 3.7 2.3 3.7s3-1.6 3.3-3.7l2.5-18s10.9 0 10.9 0z" fill="#0045a7"/><path d="m198.9 136.13c-3.7 0-7.6-.3-9.9-.6l4.2-29.7c2.3-.3 6.3-.8 10-.8 7 0 14.4 1.6 14.4 8 0 3.9-2.3 6.2-4.8 7.4 1.6.4 4.4 2.2 4.4 5.9-.2 8.1-8.7 9.8-18.3 9.8zm8-10.6c0-2.1-2.3-2.4-3.9-2.4-.4 0-1.4 0-1.8.1l-.8 5.3h1.9c1.8.1 4.6-.5 4.6-3zm-4.9-8.2h1.5c1.8 0 4-.5 4-2.9 0-1.7-1.7-2.1-3.1-2.1-.4 0-1.3 0-1.7.1z" fill="#0045a7"/></svg>