<svg viewBox="0 0 318 139" xmlns="http://www.w3.org/2000/svg"><path d="m52.9 39.8c11.3-9.2 24.1-16.7 37.6-22.4 13.8-5.8 28.3-9.8 43.1-11.8 15.1-2.1 30.4-2.3 45.5-.5 14.9 1.8 29.5 5.3 43.5 10.6 13.5 5.2 26.5 12 38.1 20.7 1.5 1.1 3 2.3 4.4 3.4-13-5.7-26.3-10.8-40-14.7s-27.6-6.7-41.8-8.2c-14.4-1.6-28.9-1.8-43.3-.7-14.3 1.1-28.4 3.6-42.2 7.3-13.7 3.6-27 8.5-40.1 14.2-1.6.7-3.2 1.4-4.8 2.1 5.3-4.3.9-.4 0 0z" fill="#86b52c"/><path d="m157.1 28.6-11.7 35.1h-68.1l68.3-35.1z" fill="#0045a7"/><path d="m160.4 28.6 11.7 35.1h68.1l-68.3-35.1z" fill="#0045a7"/><g fill="#86b52c"><path d="m128 74.9h-21.9l-4 9h-17.8l-8.1 4.9h23.8l-4.5 10.2h6.9l4.5-10h15.1c3.9 0 7.4-2.4 9-5.9l1-2.1c1.1-2.9-1-6.1-4-6.1zm-3.3 6.8c-.5 1.4-1.9 2.3-3.4 2.3h-12.4l1.8-4.1h12.7c1.1 0 1.9.9 1.3 1.8z"/><path d="m154.9 74.9h-11.9l-23.4 24.1h8l4.8-4.9h15.8l.2 4.9h8.4zm-7.1 14h-10.5l8.8-9h1.5l.3 9z"/><path d="m147.5 79.9.3 9h.1l-.3-9z"/><path d="m181.5 89.2-15.2-.5c-2.2-.1-3.6-2.4-2.7-4.4l2.4-5.2c.4-.7 1.1-1.9 2.5-2.9 1.7-1.2 3.3-1.5 4.1-1.6 2.7-.3 5.7-.4 8.9-.4 3.7 0 7.1.3 10.1.7.1 0 1.6.1 2.3 1.4.6 1.1.2 2.1.2 2.3l-1.4 3.2h-7.1l.1-.3c.3-.7-.2-1.6-1-1.6h-11.1c-.7 0-1.4.4-1.6 1.1l-.4.8c-.4.8.2 1.7 1 1.7l15.1.5c2.2.1 3.7 2.4 2.8 4.4l-1.9 4.2c-1.6 3.6-5.1 5.9-9.1 5.9h-18c-2 0-3.4-2.1-2.5-3.9l1.8-4.1h6.8l-.5 1.1c-.3.8.2 1.6 1.1 1.6h11.3c1.1 0 2.2-.7 2.6-1.8l.3-.7c.3-.7-.2-1.5-.9-1.5z"/><path d="m233.6 88.9 8.5-5.2h-39.6l1.6-3.5h19.1l2.4-5.3h-26.3l-10.4 23.6h7.1 19.2l2.2-5.2h-19.1l1.9-4.4z"/></g><path d="m127.55 115.54.34-1.57c.69-3.32-.53-3.55-5.34-3.55-5.53 0-6.72.92-7.9 6.53l-1.34 6.34c-1.18 5.73-.73 6.83 5.04 6.83 4.43 0 6.45-.15 7.29-4.24l.34-1.57h5.5l-.38 1.87c-1.72 8.63-6.6 8.32-13.74 8.63-10.15.38-11.26-2.94-9.58-11.3l1.37-6.56c1.95-9.16 5.95-11.22 14.39-11.22 7.14 0 11.18.04 9.85 8.24l-.34 1.57z" fill="#0045a7"/><path d="m139.57 129.89h13.36l-.99 4.7h-18.85l6.07-28.63h5.5l-5.08 23.93z" fill="#0045a7"/><path d="m184.49 105.96-4.31 20.34c-1.68 7.98-6.79 8.51-13.74 8.51s-11.79-.5-10.08-8.51l4.31-20.34h5.5l-4.31 20.34c-.61 2.94.27 3.82 5.57 3.82s6.6-.72 7.25-3.82l4.31-20.34z" fill="#0045a7"/><path d="m183.34 134.59 6.07-28.63h14.24c5.61 0 8.21 1.14 6.87 7.44-.69 3.28-1.79 5.5-5.42 6.34l-.04.15c3.89.46 4.12 3.09 3.32 6.72-1.34 6.34-4.28 7.98-10.31 7.98zm6.49-4.7h7.52c3.28 0 4.89-.23 5.65-3.74.65-3.13.19-4.05-3.05-4.05h-8.43l-1.68 7.79zm2.56-11.94h7.9c3.09 0 3.97-.95 4.62-4.01.65-3.05-.54-3.28-3.24-3.28h-7.75z" fill="#0045a7"/></svg>