<svg fill="none" height="158" viewBox="0 0 338 158" width="338" xmlns="http://www.w3.org/2000/svg"><g fill="#061855"><path d="m13.6479 31.8596c1.0583 0 1.9192-.1343 2.5826-.4028.6793-.2686 1.2084-.6161 1.5876-1.0426.3791-.4265.6397-.9083.7819-1.4453.1421-.5371.2132-1.0821.2132-1.6349 0-.6319-.0869-1.2005-.2606-1.706-.158-.5055-.4423-.932-.853-1.2795-.3949-.3475-.9241-.6161-1.5875-.8056-.6635-.1896-1.5007-.2843-2.5116-.2843h-5.59185v8.601zm-5.63925-22.48586v8.52996h4.17015c.8846 0 1.6823-.0632 2.3931-.1896.7109-.1264 1.3111-.3475 1.8008-.6634.5055-.316.8846-.7503 1.1373-1.3032.2686-.5529.4028-1.2479.4028-2.0851 0-.8214-.1026-1.5006-.308-2.0377-.2053-.5529-.5213-.9952-.9478-1.3269s-.9714-.56864-1.6349-.71081c-.6476-.14216-1.4216-.21325-2.322-.21325zm4.69145-5.99463c2.3852 0 4.415.22114 6.0894.66344 1.6744.44229 3.0408 1.06624 4.0991 1.87184 1.0584.8056 1.8245 1.78496 2.2984 2.93808.4896 1.15313.7345 2.44053.7345 3.86213 0 .774-.1106 1.5244-.3317 2.251-.2212.7108-.5687 1.3821-1.0426 2.014-.4739.616-1.082 1.1847-1.8244 1.706-.7425.5212-1.6349.9714-2.6775 1.3505 2.2747.5529 3.9569 1.4454 5.0469 2.6775 1.0899 1.2321 1.6349 2.8275 1.6349 4.7862 0 1.4691-.2844 2.8354-.853 4.0991-.5687 1.2637-1.4059 2.3694-2.5116 3.3172-1.0899.932-2.4405 1.6665-4.0517 2.2036-1.6112.5212-3.4515.7819-5.5208.7819h-13.79v-34.52249zm27.1025 34.52249h-8.056v-34.52249h8.056zm14.7163-28.362v8.056h10.852v5.9236h-10.852v8.2219h14.1691v6.1605h-22.2251v-34.52249h22.2251v6.16049zm49.2481-6.16049v34.52249h-4.1702c-.6161 0-1.1374-.0948-1.5638-.2844-.4107-.2053-.8214-.5528-1.2321-1.0425l-16.278-20.5903c.0632.6161.1027 1.2163.1185 1.8008.0316.5687.0474 1.1057.0474 1.6112v18.5052h-7.0609v-34.52249h4.2176c.3475 0 .6397.01579.8767.04739.2369.03159.4502.09477.6397.18955.1896.07898.3712.19745.545.35541.1737.15796.3712.37121.5923.63975l16.4201 20.73239c-.079-.6634-.1342-1.3031-.1658-1.9192-.0316-.6318-.0474-1.2242-.0474-1.7771v-18.26819zm37.666 0-13.837 34.52249h-7.25l-13.838-34.52249h6.445c.695 0 1.256.16586 1.682.49757.427.31593.751.72663.972 1.2321l6.681 18.48152c.316.8056.624 1.6902.925 2.6537.3.9478.584 1.943.853 2.9855.221-1.0425.465-2.0377.734-2.9855.284-.9635.584-1.8481.9-2.6537l6.635-18.48152c.174-.44229.482-.83719.924-1.1847.458-.36332 1.019-.54497 1.682-.54497zm10.778 6.16049v8.056h10.852v5.9236h-10.852v8.2219h14.169v6.1605h-22.225v-34.52249h22.225v6.16049zm49.248-6.16049v34.52249h-4.17c-.616 0-1.137-.0948-1.564-.2844-.41-.2053-.821-.5528-1.232-1.0425l-16.278-20.5903c.063.6161.103 1.2163.119 1.8008.031.5687.047 1.1057.047 1.6112v18.5052h-7.061v-34.52249h4.218c.347 0 .64.01579.877.04739.236.03159.45.09477.639.18955.19.07898.371.19745.545.35541s.371.37121.593.63975l16.42 20.73239c-.079-.6634-.135-1.3031-.166-1.9192-.032-.6318-.048-1.2242-.048-1.7771v-18.26819zm14.754 34.52249h-8.056v-34.52249h8.056zm37.984-17.2731c0 2.4958-.434 4.802-1.303 6.9187-.853 2.1009-2.061 3.9253-3.625 5.4734-1.564 1.5322-3.451 2.7327-5.663 3.6015-2.196.853-4.636 1.2795-7.321 1.2795h-13.411v-34.52249h13.411c2.685 0 5.125.43439 7.321 1.30318 2.212.86879 4.099 2.06929 5.663 3.60152s2.772 3.35669 3.625 5.47339c.869 2.1009 1.303 4.3913 1.303 6.8713zm-8.198 0c0-1.706-.221-3.2461-.663-4.6204-.442-1.3742-1.082-2.5353-1.919-3.483-.822-.9636-1.833-1.6981-3.033-2.2036-1.201-.52126-2.567-.7819-4.099-.7819h-5.355v22.2015h5.355c1.532 0 2.898-.2528 4.099-.7582 1.2-.5213 2.211-1.2558 3.033-2.2036.837-.9636 1.477-2.1325 1.919-3.5067.442-1.3743.663-2.9223.663-4.6441zm46.808 0c0 2.4958-.435 4.8178-1.303 6.9661-.853 2.1483-2.062 4.0201-3.626 5.6155-1.563 1.5796-3.451 2.8196-5.663 3.72-2.195.9004-4.636 1.3506-7.321 1.3506s-5.134-.4502-7.345-1.3506c-2.212-.9004-4.107-2.1404-5.687-3.72-1.564-1.5954-2.78-3.4672-3.649-5.6155-.853-2.1483-1.279-4.4703-1.279-6.9661s.426-4.8178 1.279-6.9661c.869-2.1483 2.085-4.01222 3.649-5.59184 1.58-1.57961 3.475-2.81961 5.687-3.71999 2.211-.90038 4.66-1.35057 7.345-1.35057s5.126.45809 7.321 1.37426c2.212.90038 4.1 2.14038 5.663 3.72 1.564 1.57961 2.773 3.44354 3.626 5.59184.868 2.1483 1.303 4.4624 1.303 6.9424zm-8.198 0c0-1.706-.222-3.2382-.664-4.5967-.442-1.3742-1.082-2.5353-1.919-3.483-.821-.9478-1.832-1.6744-3.033-2.1799-1.2-.50548-2.567-.75821-4.099-.75821-1.548 0-2.93.25273-4.147.75821-1.2.5055-2.219 1.2321-3.056 2.1799-.821.9477-1.453 2.1088-1.896 3.483-.442 1.3585-.663 2.8907-.663 4.5967 0 1.7218.221 3.2698.663 4.6441.443 1.3584 1.075 2.5115 1.896 3.4593.837.9478 1.856 1.6744 3.056 2.1799 1.217.4897 2.599.7345 4.147.7345 1.532 0 2.899-.2448 4.099-.7345 1.201-.5055 2.212-1.2321 3.033-2.1799.837-.9478 1.477-2.1009 1.919-3.4593.442-1.3743.664-2.9223.664-4.6441zm40.503 4.0754-3.198-9.454c-.237-.6002-.49-1.3032-.759-2.1088-.268-.8214-.537-1.706-.805-2.6537-.237.9635-.49 1.856-.758 2.6774-.269.8214-.522 1.5322-.759 2.1325l-3.175 9.4066zm12.724 13.1977h-6.208c-.695 0-1.256-.158-1.682-.4739-.426-.3317-.75-.7503-.971-1.2558l-2.038-6.0183h-13.127l-2.037 6.0183c-.174.4423-.49.8451-.948 1.2084-.443.3475-.995.5213-1.659.5213h-6.255l13.363-34.52249h8.199z"/><path d="m119.759 63.2086h-32.3885l-5.9168 13.3921h-26.2973l-12.0204 7.3048h35.1685l-6.6271 14.8815 10.1455-.0487 6.6028-14.8287h22.3523c5.759 0 10.978-3.486 13.327-8.7455l1.417-3.1248c1.863-4.1718-1.189-8.8307-5.759-8.8307zm-4.793 10.0603v.0528c-.811 1.9682-2.832 3.2831-4.991 3.2831h-18.3839l2.6906-6.0873h18.8543c1.469 0 2.638 1.4163 1.826 2.7555z"/><path d="m159.607 63.2086h-17.548l-34.637 35.7123h11.769l7.065-7.3048h23.339l.272 7.3048h12.479zm-25.961 20.6969 13.019-13.3921h2.147l.503 13.3921h-15.665z"/><path d="m198.935 84.2586-22.438-.767c-3.267-.1096-5.369-3.5063-4.014-6.4809l3.482-7.6457c.552-1.0268 1.684-2.8124 3.754-4.3383 2.463-1.814 4.939-2.2807 6.128-2.4308 3.985-.3977 8.405-.6412 13.189-.6088 5.515.0366 10.552.4383 15.016 1.0146.142.0081 2.292.138 3.368 2.0169.897 1.5665.361 3.1411.276 3.3765l-2.09 4.7521h-10.552l.22-.4707c.511-1.1039-.293-2.37-1.51-2.37h-16.46c-1.051 0-2.005.6128-2.439 1.5705l-.532 1.1728c-.519 1.1485.288 2.4553 1.55 2.4999l22.398.7995c3.299.1177 5.434 3.5306 4.099 6.5499l-2.776 6.2659c-2.354 5.3122-7.618 8.7373-13.425 8.7373h-26.666c-2.971 0-4.959-3.0558-3.754-5.7707l2.658-5.9981h10.117l-.726 1.6436c-.504 1.1363.332 2.4146 1.574 2.4146h16.765c1.7 0 3.226-1.051 3.831-2.6378l.418-1.0998c.397-1.0389-.349-2.163-1.461-2.1995z"/><path d="m276.154 83.9055 12.504-7.7106h-58.601l2.322-5.2757h28.277l3.653-7.7106h-38.959l-15.422 34.9007h10.491 28.468l3.247-7.7106h-28.326l2.857-6.4932z"/><path d="m120.526 139.219 1.441 11.931c-4.132 1.376-9.768 2.752-15.34 2.752-12.7189 0-20.9124-7.082-20.9124-20.19 0-15.34 11.2737-25.827 26.9424-25.827 5.637 0 10.88 1.376 14.618 2.752l-4.85 11.732c-1.899-.917-4.784-1.639-7.8-1.639-7.735 0-12.324 4.784-12.324 11.273 0 5.901 3.737 8.851 9.898 8.851 3.015 0 6.16-.722 8.323-1.639z"/><path d="m144.189 140.595h15.929l-1.769 12.454h-32.186l6.225-44.311h16.257z"/><path d="m208.76 108.734-3.738 26.812c-1.769 12.585-10.162 18.356-22.945 18.356s-19.536-5.767-17.763-18.356l3.738-26.812h16.257l-3.738 26.613c-.458 3.146-.065 5.507 3.344 5.507s4.391-2.426 4.85-5.507l3.738-26.613z"/><path d="m223.97 153.902c-5.507 0-11.274-.459-14.683-.918l6.161-43.987c3.409-.458 9.374-1.116 14.816-1.116 10.292 0 21.241 2.293 21.241 11.802 0 5.702-3.409 9.11-7.147 10.88 2.427.523 6.49 3.279 6.49 8.782 0 11.996-12.585 14.553-26.878 14.553zm11.801-15.734c0-3.08-3.409-3.539-5.835-3.539-.589 0-2.034.065-2.622.13l-1.116 7.865c.394.065 2.163.065 2.751.065 2.752 0 6.818-.852 6.818-4.525zm-7.211-12.061c.458.065 1.639.065 2.228.065 2.621 0 5.965-.723 5.965-4.326 0-2.492-2.556-3.145-4.654-3.145-.589 0-1.969.065-2.557.13z"/><path d="m13.6479 33.8596c1.0583 0 1.9192-.1343 2.5826-.4028.6793-.2686 1.2084-.6161 1.5876-1.0426.3791-.4265.6397-.9083.7819-1.4453.1421-.5371.2132-1.0821.2132-1.6349 0-.6319-.0869-1.2005-.2606-1.706-.158-.5055-.4423-.932-.853-1.2795-.3949-.3475-.9241-.6161-1.5875-.8056-.6635-.1896-1.5007-.2843-2.5116-.2843h-5.59185v8.601zm-5.63925-22.4859v8.53h4.17015c.8846 0 1.6823-.0632 2.3931-.1896.7109-.1264 1.3111-.3475 1.8008-.6634.5055-.316.8846-.7503 1.1373-1.3032.2686-.5529.4028-1.2479.4028-2.0851 0-.8214-.1026-1.5006-.308-2.0377-.2053-.5529-.5213-.9952-.9478-1.3269s-.9714-.5686-1.6349-.7108c-.6476-.1422-1.4216-.2133-2.322-.2133zm4.69145-5.99459c2.3852 0 4.415.22114 6.0894.66344 1.6744.44229 3.0408 1.06624 4.0991 1.87184 1.0584.8056 1.8245 1.78496 2.2984 2.93811.4896 1.1531.7345 2.4405.7345 3.8621 0 .774-.1106 1.5244-.3317 2.251-.2212.7108-.5687 1.3821-1.0426 2.014-.4739.616-1.082 1.1847-1.8244 1.706-.7425.5212-1.6349.9714-2.6775 1.3505 2.2747.5529 3.9569 1.4454 5.0469 2.6775 1.0899 1.2321 1.6349 2.8275 1.6349 4.7862 0 1.4691-.2844 2.8354-.853 4.0991-.5687 1.2637-1.4059 2.3694-2.5116 3.3172-1.0899.932-2.4405 1.6665-4.0517 2.2036-1.6112.5212-3.4515.7819-5.5208.7819h-13.79v-34.52249zm27.1025 34.52249h-8.056v-34.52249h8.056zm14.7163-28.362v8.056h10.852v5.9236h-10.852v8.2219h14.1691v6.1605h-22.2251v-34.52249h22.2251v6.16049zm49.2481-6.16049v34.52249h-4.1702c-.6161 0-1.1374-.0948-1.5638-.2844-.4107-.2053-.8214-.5528-1.2321-1.0425l-16.278-20.5903c.0632.6161.1027 1.2163.1185 1.8008.0316.5687.0474 1.1057.0474 1.6112v18.5052h-7.0609v-34.52249h4.2176c.3475 0 .6397.01579.8767.04739.2369.03159.4502.09477.6397.18955.1896.07898.3712.19745.545.35541.1737.15796.3712.37121.5923.63975l16.4201 20.73239c-.079-.6634-.1342-1.3031-.1658-1.9192-.0316-.6318-.0474-1.2242-.0474-1.7771v-18.26819zm37.666 0-13.837 34.52249h-7.25l-13.838-34.52249h6.445c.695 0 1.256.16586 1.682.49757.427.31593.751.72663.972 1.2321l6.681 18.48152c.316.8056.624 1.6902.925 2.6537.3.9478.584 1.943.853 2.9855.221-1.0425.465-2.0377.734-2.9855.284-.9635.584-1.8481.9-2.6537l6.635-18.48152c.174-.44229.482-.83719.924-1.1847.458-.36332 1.019-.54497 1.682-.54497zm10.778 6.16049v8.056h10.852v5.9236h-10.852v8.2219h14.169v6.1605h-22.225v-34.52249h22.225v6.16049zm49.248-6.16049v34.52249h-4.17c-.616 0-1.137-.0948-1.564-.2844-.41-.2053-.821-.5528-1.232-1.0425l-16.278-20.5903c.063.6161.103 1.2163.119 1.8008.031.5687.047 1.1057.047 1.6112v18.5052h-7.061v-34.52249h4.218c.347 0 .64.01579.877.04739.236.03159.45.09477.639.18955.19.07898.371.19745.545.35541s.371.37121.593.63975l16.42 20.73239c-.079-.6634-.135-1.3031-.166-1.9192-.032-.6318-.048-1.2242-.048-1.7771v-18.26819zm14.754 34.52249h-8.056v-34.52249h8.056zm37.984-17.2731c0 2.4958-.434 4.802-1.303 6.9187-.853 2.1009-2.061 3.9253-3.625 5.4734-1.564 1.5322-3.451 2.7327-5.663 3.6015-2.196.853-4.636 1.2795-7.321 1.2795h-13.411v-34.52249h13.411c2.685 0 5.125.43439 7.321 1.30318 2.212.86879 4.099 2.06929 5.663 3.60151 1.564 1.5322 2.772 3.3567 3.625 5.4734.869 2.1009 1.303 4.3913 1.303 6.8713zm-8.198 0c0-1.706-.221-3.2461-.663-4.6204-.442-1.3742-1.082-2.5353-1.919-3.483-.822-.9636-1.833-1.6981-3.033-2.2036-1.201-.5213-2.567-.7819-4.099-.7819h-5.355v22.2015h5.355c1.532 0 2.898-.2528 4.099-.7582 1.2-.5213 2.211-1.2558 3.033-2.2036.837-.9636 1.477-2.1325 1.919-3.5067.442-1.3743.663-2.9223.663-4.6441zm46.808 0c0 2.4958-.435 4.8178-1.303 6.9661-.853 2.1483-2.062 4.0201-3.626 5.6155-1.563 1.5796-3.451 2.8196-5.663 3.72-2.195.9004-4.636 1.3506-7.321 1.3506s-5.134-.4502-7.345-1.3506c-2.212-.9004-4.107-2.1404-5.687-3.72-1.564-1.5954-2.78-3.4672-3.649-5.6155-.853-2.1483-1.279-4.4703-1.279-6.9661s.426-4.8178 1.279-6.9661c.869-2.1483 2.085-4.0122 3.649-5.5918 1.58-1.57965 3.475-2.81965 5.687-3.72003 2.211-.90038 4.66-1.35057 7.345-1.35057s5.126.45809 7.321 1.37426c2.212.90038 4.1 2.14038 5.663 3.72004 1.564 1.5796 2.773 3.4435 3.626 5.5918.868 2.1483 1.303 4.4624 1.303 6.9424zm-8.198 0c0-1.706-.222-3.2382-.664-4.5967-.442-1.3742-1.082-2.5353-1.919-3.483-.821-.9478-1.832-1.6744-3.033-2.1799-1.2-.5055-2.567-.7582-4.099-.7582-1.548 0-2.93.2527-4.147.7582-1.2.5055-2.219 1.2321-3.056 2.1799-.821.9477-1.453 2.1088-1.896 3.483-.442 1.3585-.663 2.8907-.663 4.5967 0 1.7218.221 3.2698.663 4.6441.443 1.3584 1.075 2.5115 1.896 3.4593.837.9478 1.856 1.6744 3.056 2.1799 1.217.4897 2.599.7345 4.147.7345 1.532 0 2.899-.2448 4.099-.7345 1.201-.5055 2.212-1.2321 3.033-2.1799.837-.9478 1.477-2.1009 1.919-3.4593.442-1.3743.664-2.9223.664-4.6441zm40.503 4.0754-3.198-9.454c-.237-.6002-.49-1.3032-.759-2.1088-.268-.8214-.537-1.706-.805-2.6537-.237.9635-.49 1.856-.758 2.6774-.269.8214-.522 1.5322-.759 2.1325l-3.175 9.4066zm12.724 13.1977h-6.208c-.695 0-1.256-.158-1.682-.4739-.426-.3317-.75-.7503-.971-1.2558l-2.038-6.0183h-13.127l-2.037 6.0183c-.174.4423-.49.8451-.948 1.2084-.443.3475-.995.5213-1.659.5213h-6.255l13.363-34.52249h8.199z"/><path d="m119.759 65.2086h-32.3885l-5.9168 13.3921h-26.2973l-12.0204 7.3048h35.1685l-6.6271 14.8815 10.1455-.049 6.6028-14.8284h22.3523c5.759 0 10.978-3.486 13.327-8.7455l1.417-3.1248c1.863-4.1718-1.189-8.8307-5.759-8.8307zm-4.793 10.0603v.0528c-.811 1.9682-2.832 3.2831-4.991 3.2831h-18.3839l2.6906-6.0873h18.8543c1.469 0 2.638 1.4163 1.826 2.7555z"/><path d="m159.607 65.2086h-17.548l-34.637 35.7124h11.769l7.065-7.3049h23.339l.272 7.3049h12.479zm-25.961 20.6969 13.019-13.3921h2.147l.503 13.3921h-15.665z"/><path d="m198.935 86.2586-22.438-.767c-3.267-.1096-5.369-3.5063-4.014-6.4809l3.482-7.6457c.552-1.0268 1.684-2.8124 3.754-4.3383 2.463-1.814 4.939-2.2807 6.128-2.4308 3.985-.3977 8.405-.6412 13.189-.6088 5.515.0366 10.552.4383 15.016 1.0146.142.0081 2.292.138 3.368 2.0169.897 1.5665.361 3.1411.276 3.3765l-2.09 4.7521h-10.552l.22-.4707c.511-1.1039-.293-2.37-1.51-2.37h-16.46c-1.051 0-2.005.6128-2.439 1.5705l-.532 1.1728c-.519 1.1485.288 2.4553 1.55 2.4999l22.398.7995c3.299.1177 5.434 3.5306 4.099 6.5499l-2.776 6.2659c-2.354 5.3122-7.618 8.7373-13.425 8.7373h-26.666c-2.971 0-4.959-3.0558-3.754-5.7707l2.658-5.9981h10.117l-.726 1.6436c-.504 1.1363.332 2.4146 1.574 2.4146h16.765c1.7 0 3.226-1.051 3.831-2.6378l.418-1.0998c.397-1.0389-.349-2.163-1.461-2.1995z"/><path d="m276.154 85.9055 12.504-7.7106h-58.601l2.322-5.2757h28.277l3.653-7.7106h-38.959l-15.422 34.9004h10.491 28.468l3.247-7.7103h-28.326l2.857-6.4932z"/><path d="m120.526 141.219 1.441 11.931c-4.132 1.376-9.768 2.752-15.34 2.752-12.7189 0-20.9124-7.082-20.9124-20.19 0-15.34 11.2737-25.827 26.9424-25.827 5.637 0 10.88 1.376 14.618 2.752l-4.85 11.732c-1.899-.917-4.784-1.639-7.8-1.639-7.735 0-12.324 4.784-12.324 11.273 0 5.901 3.737 8.851 9.898 8.851 3.015 0 6.16-.722 8.323-1.639z"/><path d="m144.189 142.595h15.929l-1.769 12.454h-32.186l6.225-44.311h16.257z"/><path d="m208.76 110.734-3.738 26.812c-1.769 12.585-10.162 18.356-22.945 18.356s-19.536-5.767-17.763-18.356l3.738-26.812h16.257l-3.738 26.613c-.458 3.146-.065 5.507 3.344 5.507s4.391-2.426 4.85-5.507l3.738-26.613z"/><path d="m223.97 155.902c-5.507 0-11.274-.459-14.683-.918l6.161-43.987c3.409-.458 9.374-1.116 14.816-1.116 10.292 0 21.241 2.293 21.241 11.802 0 5.702-3.409 9.11-7.147 10.88 2.427.523 6.49 3.279 6.49 8.782 0 11.996-12.585 14.553-26.878 14.553zm11.801-15.734c0-3.08-3.409-3.539-5.835-3.539-.589 0-2.034.065-2.622.13l-1.116 7.865c.394.065 2.163.065 2.751.065 2.752 0 6.818-.852 6.818-4.525zm-7.211-12.061c.458.065 1.639.065 2.228.065 2.621 0 5.965-.723 5.965-4.326 0-2.492-2.556-3.145-4.654-3.145-.589 0-1.969.065-2.557.13z"/><path d="m13.6479 35.8596c1.0583 0 1.9192-.1343 2.5826-.4028.6793-.2686 1.2084-.6161 1.5876-1.0426.3791-.4265.6397-.9083.7819-1.4453.1421-.5371.2132-1.0821.2132-1.6349 0-.6319-.0869-1.2005-.2606-1.706-.158-.5055-.4423-.932-.853-1.2795-.3949-.3475-.9241-.6161-1.5875-.8056-.6635-.1896-1.5007-.2843-2.5116-.2843h-5.59185v8.601zm-5.63925-22.4859v8.53h4.17015c.8846 0 1.6823-.0632 2.3931-.1896.7109-.1264 1.3111-.3475 1.8008-.6634.5055-.316.8846-.7503 1.1373-1.3032.2686-.5529.4028-1.2479.4028-2.0851 0-.8214-.1026-1.5006-.308-2.0377-.2053-.5529-.5213-.9952-.9478-1.3269s-.9714-.5686-1.6349-.7108c-.6476-.1422-1.4216-.2133-2.322-.2133zm4.69145-5.99459c2.3852 0 4.415.22114 6.0894.66344 1.6744.44229 3.0408 1.06624 4.0991 1.87184 1.0584.80561 1.8245 1.78491 2.2984 2.93811.4896 1.1531.7345 2.4405.7345 3.8621 0 .774-.1106 1.5244-.3317 2.251-.2212.7108-.5687 1.3821-1.0426 2.014-.4739.616-1.082 1.1847-1.8244 1.706-.7425.5212-1.6349.9714-2.6775 1.3505 2.2747.5529 3.9569 1.4454 5.0469 2.6775 1.0899 1.2321 1.6349 2.8275 1.6349 4.7862 0 1.4691-.2844 2.8354-.853 4.0991-.5687 1.2637-1.4059 2.3694-2.5116 3.3172-1.0899.932-2.4405 1.6665-4.0517 2.2036-1.6112.5212-3.4515.7819-5.5208.7819h-13.79v-34.52249zm27.1025 34.52249h-8.056v-34.52249h8.056zm14.7163-28.362v8.056h10.852v5.9236h-10.852v8.2219h14.1691v6.1605h-22.2251v-34.52249h22.2251v6.16049zm49.2481-6.16049v34.52249h-4.1702c-.6161 0-1.1374-.0948-1.5638-.2844-.4107-.2053-.8214-.5528-1.2321-1.0425l-16.278-20.5903c.0632.6161.1027 1.2163.1185 1.8008.0316.5687.0474 1.1057.0474 1.6112v18.5052h-7.0609v-34.52249h4.2176c.3475 0 .6397.01579.8767.04739.2369.03159.4502.09477.6397.18955.1896.07898.3712.19745.545.35541.1737.15796.3712.37121.5923.63975l16.4201 20.73239c-.079-.6634-.1342-1.3031-.1658-1.9192-.0316-.6318-.0474-1.2242-.0474-1.7771v-18.26819zm37.666 0-13.837 34.52249h-7.25l-13.838-34.52249h6.445c.695 0 1.256.16586 1.682.49757.427.31593.751.72663.972 1.2321l6.681 18.48152c.316.8056.624 1.6902.925 2.6537.3.9478.584 1.943.853 2.9855.221-1.0425.465-2.0377.734-2.9855.284-.9635.584-1.8481.9-2.6537l6.635-18.48152c.174-.44229.482-.83719.924-1.1847.458-.36332 1.019-.54497 1.682-.54497zm10.778 6.16049v8.056h10.852v5.9236h-10.852v8.2219h14.169v6.1605h-22.225v-34.52249h22.225v6.16049zm49.248-6.16049v34.52249h-4.17c-.616 0-1.137-.0948-1.564-.2844-.41-.2053-.821-.5528-1.232-1.0425l-16.278-20.5903c.063.6161.103 1.2163.119 1.8008.031.5687.047 1.1057.047 1.6112v18.5052h-7.061v-34.52249h4.218c.347 0 .64.01579.877.04739.236.03159.45.09477.639.18955.19.07898.371.19745.545.35541s.371.37121.593.63975l16.42 20.73239c-.079-.6634-.135-1.3031-.166-1.9192-.032-.6318-.048-1.2242-.048-1.7771v-18.26819zm14.754 34.52249h-8.056v-34.52249h8.056zm37.984-17.2731c0 2.4958-.434 4.802-1.303 6.9187-.853 2.1009-2.061 3.9253-3.625 5.4734-1.564 1.5322-3.451 2.7327-5.663 3.6015-2.196.853-4.636 1.2795-7.321 1.2795h-13.411v-34.52249h13.411c2.685 0 5.125.43439 7.321 1.30318 2.212.86879 4.099 2.06931 5.663 3.60151s2.772 3.3567 3.625 5.4734c.869 2.1009 1.303 4.3913 1.303 6.8713zm-8.198 0c0-1.706-.221-3.2461-.663-4.6204-.442-1.3742-1.082-2.5353-1.919-3.483-.822-.9636-1.833-1.6981-3.033-2.2036-1.201-.5213-2.567-.7819-4.099-.7819h-5.355v22.2015h5.355c1.532 0 2.898-.2528 4.099-.7582 1.2-.5213 2.211-1.2558 3.033-2.2036.837-.9636 1.477-2.1325 1.919-3.5067.442-1.3743.663-2.9223.663-4.6441zm46.808 0c0 2.4958-.435 4.8178-1.303 6.9661-.853 2.1483-2.062 4.0201-3.626 5.6155-1.563 1.5796-3.451 2.8196-5.663 3.72-2.195.9004-4.636 1.3506-7.321 1.3506s-5.134-.4502-7.345-1.3506c-2.212-.9004-4.107-2.1404-5.687-3.72-1.564-1.5954-2.78-3.4672-3.649-5.6155-.853-2.1483-1.279-4.4703-1.279-6.9661s.426-4.8178 1.279-6.9661c.869-2.1483 2.085-4.0122 3.649-5.5918 1.58-1.5797 3.475-2.81965 5.687-3.72003 2.211-.90038 4.66-1.35057 7.345-1.35057s5.126.45809 7.321 1.37426c2.212.90038 4.1 2.14034 5.663 3.72004 1.564 1.5796 2.773 3.4435 3.626 5.5918.868 2.1483 1.303 4.4624 1.303 6.9424zm-8.198 0c0-1.706-.222-3.2382-.664-4.5967-.442-1.3742-1.082-2.5353-1.919-3.483-.821-.9478-1.832-1.6744-3.033-2.1799-1.2-.5055-2.567-.7582-4.099-.7582-1.548 0-2.93.2527-4.147.7582-1.2.5055-2.219 1.2321-3.056 2.1799-.821.9477-1.453 2.1088-1.896 3.483-.442 1.3585-.663 2.8907-.663 4.5967 0 1.7218.221 3.2698.663 4.6441.443 1.3584 1.075 2.5115 1.896 3.4593.837.9478 1.856 1.6744 3.056 2.1799 1.217.4897 2.599.7345 4.147.7345 1.532 0 2.899-.2448 4.099-.7345 1.201-.5055 2.212-1.2321 3.033-2.1799.837-.9478 1.477-2.1009 1.919-3.4593.442-1.3743.664-2.9223.664-4.6441zm40.503 4.0754-3.198-9.454c-.237-.6002-.49-1.3032-.759-2.1088-.268-.8214-.537-1.706-.805-2.6537-.237.9635-.49 1.856-.758 2.6774-.269.8214-.522 1.5322-.759 2.1325l-3.175 9.4066zm12.724 13.1977h-6.208c-.695 0-1.256-.158-1.682-.4739-.426-.3317-.75-.7503-.971-1.2558l-2.038-6.0183h-13.127l-2.037 6.0183c-.174.4423-.49.8451-.948 1.2084-.443.3475-.995.5213-1.659.5213h-6.255l13.363-34.52249h8.199z"/><path d="m119.759 67.2086h-32.3885l-5.9168 13.3921h-26.2973l-12.0204 7.3048h35.1685l-6.6271 14.8815 10.1455-.049 6.6028-14.8284h22.3523c5.759 0 10.978-3.486 13.327-8.7455l1.417-3.1248c1.863-4.1718-1.189-8.8307-5.759-8.8307zm-4.793 10.0603v.0528c-.811 1.9682-2.832 3.2831-4.991 3.2831h-18.3839l2.6906-6.0873h18.8543c1.469 0 2.638 1.4163 1.826 2.7555z"/><path d="m159.607 67.2086h-17.548l-34.637 35.7124h11.769l7.065-7.3049h23.339l.272 7.3049h12.479zm-25.961 20.6969 13.019-13.3921h2.147l.503 13.3921h-15.665z"/><path d="m198.935 88.2586-22.438-.767c-3.267-.1096-5.369-3.5063-4.014-6.4809l3.482-7.6457c.552-1.0268 1.684-2.8124 3.754-4.3383 2.463-1.814 4.939-2.2807 6.128-2.4308 3.985-.3977 8.405-.6412 13.189-.6088 5.515.0366 10.552.4383 15.016 1.0146.142.0081 2.292.138 3.368 2.0169.897 1.5665.361 3.1411.276 3.3765l-2.09 4.7521h-10.552l.22-.4707c.511-1.1039-.293-2.37-1.51-2.37h-16.46c-1.051 0-2.005.6128-2.439 1.5705l-.532 1.1728c-.519 1.1485.288 2.4553 1.55 2.4999l22.398.7995c3.299.1177 5.434 3.5306 4.099 6.5499l-2.776 6.2659c-2.354 5.3122-7.618 8.737-13.425 8.737h-26.666c-2.971 0-4.959-3.0555-3.754-5.7704l2.658-5.9981h10.117l-.726 1.6436c-.504 1.1363.332 2.4146 1.574 2.4146h16.765c1.7 0 3.226-1.051 3.831-2.6378l.418-1.0998c.397-1.0389-.349-2.163-1.461-2.1995z"/><path d="m276.154 87.9055 12.504-7.7106h-58.601l2.322-5.2757h28.277l3.653-7.7106h-38.959l-15.422 34.9004h10.491 28.468l3.247-7.7103h-28.326l2.857-6.4932z"/><path d="m120.526 143.219 1.441 11.931c-4.132 1.376-9.768 2.752-15.34 2.752-12.7189 0-20.9124-7.082-20.9124-20.19 0-15.34 11.2737-25.827 26.9424-25.827 5.637 0 10.88 1.376 14.618 2.752l-4.85 11.732c-1.899-.917-4.784-1.639-7.8-1.639-7.735 0-12.324 4.784-12.324 11.273 0 5.901 3.737 8.851 9.898 8.851 3.015 0 6.16-.722 8.323-1.639z"/><path d="m144.189 144.595h15.929l-1.769 12.454h-32.186l6.225-44.311h16.257z"/><path d="m208.76 112.734-3.738 26.812c-1.769 12.585-10.162 18.356-22.945 18.356s-19.536-5.767-17.763-18.356l3.738-26.812h16.257l-3.738 26.613c-.458 3.146-.065 5.507 3.344 5.507s4.391-2.426 4.85-5.507l3.738-26.613z"/><path d="m223.97 157.902c-5.507 0-11.274-.459-14.683-.918l6.161-43.987c3.409-.458 9.374-1.116 14.816-1.116 10.292 0 21.241 2.293 21.241 11.802 0 5.702-3.409 9.11-7.147 10.88 2.427.523 6.49 3.279 6.49 8.782 0 11.996-12.585 14.553-26.878 14.553zm11.801-15.734c0-3.08-3.409-3.539-5.835-3.539-.589 0-2.034.065-2.622.13l-1.116 7.865c.394.065 2.163.065 2.751.065 2.752 0 6.818-.852 6.818-4.525zm-7.211-12.061c.458.065 1.639.065 2.228.065 2.621 0 5.965-.723 5.965-4.326 0-2.492-2.556-3.145-4.654-3.145-.589 0-1.969.065-2.557.13z"/></g><path d="m13.6479 28.8596c1.0583 0 1.9192-.1343 2.5826-.4028.6793-.2686 1.2084-.6161 1.5876-1.0426.3791-.4265.6397-.9083.7819-1.4453.1421-.5371.2132-1.0821.2132-1.6349 0-.6319-.0869-1.2005-.2606-1.706-.158-.5055-.4423-.932-.853-1.2795-.3949-.3475-.9241-.6161-1.5875-.8056-.6635-.1896-1.5007-.2843-2.5116-.2843h-5.59185v8.601zm-5.63925-22.48586v8.52996h4.17015c.8846 0 1.6823-.0632 2.3931-.1896.7109-.1264 1.3111-.3475 1.8008-.6634.5055-.316.8846-.7503 1.1373-1.3032.2686-.5529.4028-1.2479.4028-2.0851 0-.8214-.1026-1.50064-.308-2.03771-.2053-.55286-.5213-.99515-.9478-1.32687s-.9714-.56866-1.6349-.71083c-.6476-.14216-1.4216-.21325-2.322-.21325zm4.69145-5.994632c2.3852 0 4.415.221146 6.0894.663442 1.6744.44229 3.0408 1.06624 4.0991 1.87184 1.0584.8056 1.8245 1.78496 2.2984 2.93808.4896 1.15312.7345 2.44051.7345 3.86216 0 .77397-.1106 1.52437-.3317 2.25097-.2212.7108-.5687 1.3821-1.0426 2.014-.4739.616-1.082 1.1847-1.8244 1.706-.7425.5212-1.6349.9714-2.6775 1.3505 2.2747.5529 3.9569 1.4454 5.0469 2.6775 1.0899 1.2321 1.6349 2.8275 1.6349 4.7862 0 1.4691-.2844 2.8354-.853 4.0991-.5687 1.2637-1.4059 2.3694-2.5116 3.3172-1.0899.932-2.4405 1.6665-4.0517 2.2036-1.6112.5212-3.4515.7819-5.5208.7819h-13.79v-34.522492zm27.1025 34.522492h-8.056v-34.522492h8.056zm14.7163-28.362v8.056h10.852v5.9236h-10.852v8.2219h14.1691v6.1605h-22.2251v-34.522492h22.2251v6.160492zm49.2481-6.160492v34.522492h-4.1702c-.6161 0-1.1374-.0948-1.5638-.2844-.4107-.2053-.8214-.5528-1.2321-1.0425l-16.278-20.5903c.0632.6161.1027 1.2163.1185 1.8008.0316.5687.0474 1.1057.0474 1.6112v18.5052h-7.0609v-34.522492h4.2176c.3475 0 .6397.015796.8767.047388.2369.031592.4502.094777.6397.189554.1896.078981.3712.197452.545.355413.1737.157957.3712.371207.5923.639747l16.4201 20.73239c-.079-.6634-.1342-1.3031-.1658-1.9192-.0316-.6318-.0474-1.2242-.0474-1.7771v-18.268192zm37.666 0-13.837 34.522492h-7.25l-13.838-34.522492h6.445c.695 0 1.256.165859 1.682.497576.427.315926.751.726626.972 1.232096l6.681 18.48152c.316.8056.624 1.6902.925 2.6537.3.9478.584 1.943.853 2.9855.221-1.0425.465-2.0377.734-2.9855.284-.9635.584-1.8481.9-2.6537l6.635-18.48152c.174-.44229.482-.83719.924-1.184705.458-.363311 1.019-.544967 1.682-.544967zm10.778 6.160492v8.056h10.852v5.9236h-10.852v8.2219h14.169v6.1605h-22.225v-34.522492h22.225v6.160492zm49.248-6.160492v34.522492h-4.17c-.616 0-1.137-.0948-1.564-.2844-.41-.2053-.821-.5528-1.232-1.0425l-16.278-20.5903c.063.6161.103 1.2163.119 1.8008.031.5687.047 1.1057.047 1.6112v18.5052h-7.061v-34.522492h4.218c.347 0 .64.015796.877.047388.236.031592.45.094777.639.189554.19.078981.371.197452.545.355413.174.157957.371.371207.593.639747l16.42 20.73239c-.079-.6634-.135-1.3031-.166-1.9192-.032-.6318-.048-1.2242-.048-1.7771v-18.268192zm14.754 34.522492h-8.056v-34.522492h8.056zm37.984-17.2731c0 2.4958-.434 4.802-1.303 6.9187-.853 2.1009-2.061 3.9253-3.625 5.4734-1.564 1.5322-3.451 2.7327-5.663 3.6015-2.196.853-4.636 1.2795-7.321 1.2795h-13.411v-34.522492h13.411c2.685 0 5.125.434394 7.321 1.303182 2.212.86879 4.099 2.06929 5.663 3.60152s2.772 3.35668 3.625 5.47339c.869 2.1009 1.303 4.3913 1.303 6.8713zm-8.198 0c0-1.706-.221-3.2461-.663-4.6204-.442-1.3742-1.082-2.5353-1.919-3.48303-.822-.96356-1.833-1.69808-3.033-2.20356-1.201-.52127-2.567-.78191-4.099-.78191h-5.355v22.2015h5.355c1.532 0 2.898-.2528 4.099-.7582 1.2-.5213 2.211-1.2558 3.033-2.2036.837-.9636 1.477-2.1325 1.919-3.5067.442-1.3743.663-2.9223.663-4.6441zm46.808 0c0 2.4958-.435 4.8178-1.303 6.9661-.853 2.1483-2.062 4.0201-3.626 5.6155-1.563 1.5796-3.451 2.8196-5.663 3.72-2.195.9004-4.636 1.3506-7.321 1.3506s-5.134-.4502-7.345-1.3506c-2.212-.9004-4.107-2.1404-5.687-3.72-1.564-1.5954-2.78-3.4672-3.649-5.6155-.853-2.1483-1.279-4.4703-1.279-6.9661s.426-4.8178 1.279-6.9661c.869-2.14828 2.085-4.01222 3.649-5.59184 1.58-1.57961 3.475-2.81961 5.687-3.71999 2.211-.90038 4.66-1.35057 7.345-1.35057s5.126.458088 7.321 1.37426c2.212.90038 4.1 2.14038 5.663 3.72 1.564 1.57961 2.773 3.44355 3.626 5.59184.868 2.1483 1.303 4.4624 1.303 6.9424zm-8.198 0c0-1.706-.222-3.2382-.664-4.5967-.442-1.3742-1.082-2.5353-1.919-3.48303-.821-.94777-1.832-1.67439-3.033-2.17987-1.2-.50548-2.567-.75821-4.099-.75821-1.548 0-2.93.25273-4.147.75821-1.2.50548-2.219 1.2321-3.056 2.17987-.821.94773-1.453 2.10883-1.896 3.48303-.442 1.3585-.663 2.8907-.663 4.5967 0 1.7218.221 3.2698.663 4.6441.443 1.3584 1.075 2.5115 1.896 3.4593.837.9478 1.856 1.6744 3.056 2.1799 1.217.4897 2.599.7345 4.147.7345 1.532 0 2.899-.2448 4.099-.7345 1.201-.5055 2.212-1.2321 3.033-2.1799.837-.9478 1.477-2.1009 1.919-3.4593.442-1.3743.664-2.9223.664-4.6441zm40.503 4.0754-3.198-9.454c-.237-.6002-.49-1.3032-.759-2.1088-.268-.82137-.537-1.70596-.805-2.65373-.237.96357-.49 1.85605-.758 2.67743-.269.8214-.522 1.5322-.759 2.1325l-3.175 9.4066zm12.724 13.1977h-6.208c-.695 0-1.256-.158-1.682-.4739-.426-.3317-.75-.7503-.971-1.2558l-2.038-6.0183h-13.127l-2.037 6.0183c-.174.4423-.49.8451-.948 1.2084-.443.3475-.995.5213-1.659.5213h-6.255l13.363-34.522492h8.199z" fill="#8bb718"/><path d="m119.759 60.2086h-32.3885l-5.9168 13.3921h-26.2973l-12.0204 7.3048h35.1685l-6.6271 14.8815 10.1455-.0487 6.6028-14.8287h22.3523c5.759 0 10.978-3.486 13.327-8.7455l1.417-3.1248c1.863-4.1718-1.189-8.8307-5.759-8.8307zm-4.793 10.0603v.0528c-.811 1.9682-2.832 3.2831-4.991 3.2831h-18.3839l2.6906-6.0873h18.8543c1.469 0 2.638 1.4163 1.826 2.7555z" fill="#fff"/><path d="m159.607 60.2086h-17.548l-34.637 35.7123h11.769l7.065-7.3048h23.339l.272 7.3048h12.479zm-25.961 20.6969 13.019-13.3921h2.147l.503 13.3921h-15.665z" fill="#fff"/><path d="m198.935 81.2586-22.438-.767c-3.267-.1096-5.369-3.5063-4.014-6.4809l3.482-7.6457c.552-1.0268 1.684-2.8124 3.754-4.3383 2.463-1.814 4.939-2.2807 6.128-2.4308 3.985-.3977 8.405-.6412 13.189-.6088 5.515.0366 10.552.4383 15.016 1.0146.142.0081 2.292.138 3.368 2.0169.897 1.5665.361 3.1411.276 3.3765l-2.09 4.7521h-10.552l.22-.4707c.511-1.1039-.293-2.37-1.51-2.37h-16.46c-1.051 0-2.005.6128-2.439 1.5705l-.532 1.1728c-.519 1.1485.288 2.4553 1.55 2.4999l22.398.7995c3.299.1177 5.434 3.5306 4.099 6.5499l-2.776 6.2659c-2.354 5.3122-7.618 8.7373-13.425 8.7373h-26.666c-2.971 0-4.959-3.0558-3.754-5.7707l2.658-5.9981h10.117l-.726 1.6436c-.504 1.1363.332 2.4146 1.574 2.4146h16.765c1.7 0 3.226-1.051 3.831-2.6378l.418-1.0998c.397-1.0389-.349-2.163-1.461-2.1995z" fill="#fff"/><path d="m276.154 80.9055 12.504-7.7106h-58.601l2.322-5.2757h28.277l3.653-7.7106h-38.959l-15.422 34.9007h10.491 28.468l3.247-7.7106h-28.326l2.857-6.4932z" fill="#fff"/><path d="m120.526 136.219 1.441 11.931c-4.132 1.376-9.768 2.752-15.34 2.752-12.7189 0-20.9124-7.082-20.9124-20.19 0-15.34 11.2737-25.827 26.9424-25.827 5.637 0 10.88 1.376 14.618 2.752l-4.85 11.732c-1.899-.917-4.784-1.639-7.8-1.639-7.735 0-12.324 4.784-12.324 11.273 0 5.901 3.737 8.851 9.898 8.851 3.015 0 6.16-.722 8.323-1.639z" fill="#fff"/><path d="m144.189 137.595h15.929l-1.769 12.454h-32.186l6.225-44.311h16.257z" fill="#fff"/><path d="m208.76 105.734-3.738 26.812c-1.769 12.585-10.162 18.356-22.945 18.356s-19.536-5.767-17.763-18.356l3.738-26.812h16.257l-3.738 26.613c-.458 3.146-.065 5.507 3.344 5.507s4.391-2.426 4.85-5.507l3.738-26.613z" fill="#fff"/><path d="m223.97 150.902c-5.507 0-11.274-.459-14.683-.918l6.161-43.987c3.409-.458 9.374-1.116 14.816-1.116 10.292 0 21.241 2.293 21.241 11.802 0 5.702-3.409 9.11-7.147 10.88 2.427.523 6.49 3.279 6.49 8.782 0 11.996-12.585 14.553-26.878 14.553zm11.801-15.734c0-3.08-3.409-3.539-5.835-3.539-.589 0-2.034.065-2.622.13l-1.116 7.865c.394.065 2.163.065 2.751.065 2.752 0 6.818-.852 6.818-4.525zm-7.211-12.061c.458.065 1.639.065 2.228.065 2.621 0 5.965-.723 5.965-4.326 0-2.492-2.556-3.145-4.654-3.145-.589 0-1.969.065-2.557.13z" fill="#fff"/></svg>