<svg viewBox="0 0 1600 500" xmlns="http://www.w3.org/2000/svg"><path d="m1522.6 257.7h-574.6c-2.4 0-4.4-3.4-4.4-7.7 0-4.3 1.9-7.7 4.4-7.7h574.6c2.4 0 4.4 3.4 4.4 7.7 0 4.3-1.9 7.7-4.4 7.7z" fill="#e1e1ea"/><circle cx="1527" cy="250" fill="#e1e1ea" r="16"/><path d="m1530.9 250c0-2.1-1.7-3.8-3.8-3.8s-3.8 1.7-3.8 3.8 1.7 3.8 3.8 3.8 3.8-1.7 3.8-3.8z" fill="#babacd"/><circle cx="1382" cy="250" fill="#e1e1ea" r="16"/><path d="m1385.9 250c0-2.1-1.7-3.8-3.8-3.8s-3.8 1.7-3.8 3.8 1.7 3.8 3.8 3.8 3.8-1.7 3.8-3.8z" fill="#babacd"/><circle cx="1236" cy="250" fill="#e1e1ea" r="16"/><path d="m1239.9 250c0-2.1-1.7-3.8-3.8-3.8s-3.8 1.7-3.8 3.8 1.7 3.8 3.8 3.8 3.8-1.7 3.8-3.8z" fill="#babacd"/><circle cx="1091" cy="250" fill="#e1e1ea" r="16"/><path d="m1094.9 250c0-2.1-1.7-3.8-3.8-3.8s-3.8 1.7-3.8 3.8 1.7 3.8 3.8 3.8 3.8-1.7 3.8-3.8z" fill="#babacd"/><circle cx="945" cy="250" fill="#e1e1ea" r="16"/><path d="m948.9 250c0-2.1-1.7-3.8-3.8-3.8s-3.8 1.7-3.8 3.8 1.7 3.8 3.8 3.8 3.8-1.7 3.8-3.8z" fill="#babacd"/><path d="m376.5 255.4h-298.8c-1.9 0-3.5-2.4-3.5-5.4 0-3 1.5-5.4 3.5-5.4h298.8c1.9 0 3.5 2.4 3.5 5.4 0 3-1.5 5.4-3.5 5.4z" fill="#0045a7"/><circle cx="73.3" cy="250" fill="#0045a7" r="16"/><path d="m77.1 250c0-2.1-1.7-3.8-3.8-3.8s-3.8 1.7-3.8 3.8 1.7 3.8 3.8 3.8 3.8-1.7 3.8-3.8z" fill="#86b52c"/><circle cx="218.5" cy="250" fill="#0045a7" r="16"/><path d="m222.4 250c0-2.1-1.7-3.8-3.8-3.8s-3.8 1.7-3.8 3.8 1.7 3.8 3.8 3.8 3.8-1.7 3.8-3.8z" fill="#86b52c"/><circle cx="363.8" cy="250" fill="#0045a7" r="16"/><path d="m367.6 250c0-2.1-1.7-3.8-3.8-3.8s-3.8 1.7-3.8 3.8 1.7 3.8 3.8 3.8 3.8-1.7 3.8-3.8z" fill="#86b52c"/><path d="m954.5 255.4h-575.2c-3.7 0-6.7-2.4-6.7-5.4 0-3 2.9-5.4 6.7-5.4h575.2c3.7 0 6.7 2.4 6.7 5.4 0 3-2.9 5.4-6.7 5.4z" fill="#0045a7"/><circle cx="654.5" cy="250" fill="#0045a7" r="16"/><path d="m658.3 250c0-2.1-1.7-3.8-3.8-3.8s-3.8 1.7-3.8 3.8 1.7 3.8 3.8 3.8 3.8-1.7 3.8-3.8z" fill="#86b52c"/><circle cx="799.7" cy="250" fill="#0045a7" r="16"/><path d="m803.6 250c0-2.1-1.7-3.8-3.8-3.8s-3.8 1.7-3.8 3.8 1.7 3.8 3.8 3.8 3.8-1.7 3.8-3.8z" fill="#86b52c"/><circle cx="945" cy="250" fill="#0045a7" r="16"/><path d="m948.8 250c0-2.1-1.7-3.8-3.8-3.8s-3.8 1.7-3.8 3.8 1.7 3.8 3.8 3.8 3.8-1.7 3.8-3.8z" fill="#86b52c"/><circle cx="509.4" cy="250" fill="#0045a7" r="16" transform="matrix(.15988119 -.98713627 .98713627 .15988119 181 712.8)"/><path d="m513.2 250c0-2.1-1.7-3.8-3.8-3.8s-3.8 1.7-3.8 3.8 1.7 3.8 3.8 3.8 3.8-1.7 3.8-3.8z" fill="#86b52c"/><path d="m79.5 221.4-5.3 4.1c-.5.4-1.2.4-1.7 0l-5.3-4.1c-.3-.3-.5-.7-.5-1.1v-9.9c0-.8.6-1.4 1.4-1.4h10.6c.8 0 1.4.6 1.4 1.4v9.9c0 .4-.2.9-.5 1.1z" fill="#86b52c"/><path d="m224.5 278.4-5.3-4.1c-.5-.4-1.2-.4-1.7 0l-5.3 4.1c-.3.3-.5.7-.5 1.1v9.9c0 .8.6 1.4 1.4 1.4h10.6c.8 0 1.4-.6 1.4-1.4v-9.9c0-.4-.2-.9-.5-1.1z" fill="#86b52c"/><path d="m369.5 221.4-5.3 4.1c-.5.4-1.2.4-1.7 0l-5.3-4.1c-.3-.3-.5-.7-.5-1.1v-9.9c0-.8.6-1.4 1.4-1.4h10.6c.8 0 1.4.6 1.4 1.4v9.9c0 .4-.2.9-.5 1.1z" fill="#86b52c"/><path d="m515.5 278.4-5.3-4.1c-.5-.4-1.2-.4-1.7 0l-5.3 4.1c-.3.3-.5.7-.5 1.1v9.9c0 .8.6 1.4 1.4 1.4h10.6c.8 0 1.4-.6 1.4-1.4v-9.9c0-.4-.2-.9-.5-1.1z" fill="#86b52c"/><path d="m661.5 221.4-5.3 4.1c-.5.4-1.2.4-1.7 0l-5.3-4.1c-.3-.3-.5-.7-.5-1.1v-9.9c0-.8.6-1.4 1.4-1.4h10.6c.8 0 1.4.6 1.4 1.4v9.9c0 .4-.2.9-.5 1.1z" fill="#86b52c"/><path d="m72.5 10c-36.8 0-66.7 29.3-67.8 65.8h135.5c-1.1-36.5-31-65.8-67.8-65.8z" fill="#0045a7"/><path d="m72.5 145.6c36.7 0 66.5-29.1 67.8-65.5h-135.6c1.2 36.4 31.1 65.5 67.8 65.5z" fill="#86b52c"/><path d="m110.9 88.7c-3.7 0-7.3.9-10.3 2.6l-15.5-13 15.5-13c3.1 1.7 6.6 2.7 10.4 2.7 12 0 21.7-9.7 21.7-21.7s-9.7-21.7-21.7-21.7-21.7 9.7-21.7 21.7.2 3.4.6 5.1l-18.5 15.5-16.1-13.5c.8-2.2 1.2-4.6 1.2-7.1 0-12-9.7-21.7-21.7-21.7s-21.7 9.7-21.7 21.7 9.7 21.7 21.7 21.7 5.9-.6 8.5-1.7l14.4 12.1-14.5 12.1c-2.6-1.1-5.5-1.7-8.5-1.7-12 0-21.7 9.7-21.7 21.7s9.7 21.7 21.7 21.7 21.7-9.7 21.7-21.7-.4-4.9-1.2-7.1l16.1-13.5 18.5 15.5c-.4 1.7-.6 3.4-.6 5.1 0 12 9.7 21.7 21.7 21.7s21.7-9.7 21.7-21.7-9.7-21.7-21.7-21.7z" fill="#fff"/><path d="m36.2 128.7c10.2-.9 17.7-9.9 16.8-20.1-.2-2.1-.7-4.1-1.5-5.9l49.2-41c1.7 1.1 3.6 2 5.6 2.5 9.9 2.6 20-3.3 22.6-13.1.6-2.4.8-4.9.4-7.4l-.4-3-2.3 2-10.7 9.3-8.1-2.9-1-8.2 11-9.1 2.2-1.8-2.7-1c-.5-.2-1-.3-1.5-.5-9.9-2.6-20 3.3-22.6 13.1-.9 3.5-.8 7.1.3 10.5l-50.2 41.9c-3.1-1.7-6.7-2.4-10.3-2.1-10.2.9-17.7 9.9-16.8 20.1 0 .5.1 1 .2 1.6l.5 2.8 2.2-1.9 10.8-9.3 8 2.4 1.5 8.5-11 8.9-2.3 1.9 2.9.9c2.4.8 4.9 1.1 7.4.8h-.2zm5.9-10.7.7-.6-.2-.9-1.8-10.5-.2-1-1-.3-9.8-3-.9-.3-.7.6-9 7.8c.2-7.6 6.1-14 13.9-14.7 3.3-.3 6.5.5 9.3 2.2l1 .6.9-.8 51.9-43.2 1-.8-.5-1.1c-1.2-3.1-1.4-6.4-.6-9.6 2-7.5 9.3-12.3 16.9-11.2l-9.2 7.6-.7.6v.9l1.4 10.1v1l1.1.3 10 3.6.9.3.7-.6 8.8-7.7c0 1-.2 1.9-.5 2.8-2.1 8.1-10.5 13-18.6 10.8-2-.5-3.9-1.4-5.5-2.7l-1.1-.8-1 .9-51.1 42.6-1.1.9.6 1.2c1 1.8 1.6 3.8 1.8 5.9.7 8.4-5.5 15.8-13.8 16.5h-2.9l9.1-7.4z"/><path d="m58.2 73.3 17.2 15.6 9.6-5.3-18.7-15z" fill="#fff"/><path d="m128.7 105.6c-2.6-9.9-12.8-15.7-22.7-13.1-2 .5-3.9 1.4-5.6 2.6l-49-41.4c.8-1.9 1.3-3.9 1.5-5.9.9-10.2-6.7-19.1-16.9-20-2.5-.2-5 0-7.4.9l-2.9.9 2.3 1.9 11 8.9-1.5 8.5-7.9 2.5-10.9-9.3-2.2-1.9-.5 2.8c0 .6-.2 1.1-.2 1.6-.9 10.2 6.7 19.1 16.9 20 3.6.3 7.1-.4 10.3-2.1l49.9 42.2c-1.1 3.4-1.2 7-.3 10.5 2.6 9.9 12.8 15.7 22.7 13.1.5-.1 1-.3 1.5-.5l2.7-1-2.2-1.8-11-9 1-8.3 8.1-2.9 10.7 9.3 2.3 2 .4-3c.4-2.5.2-5-.5-7.4h.4zm-11.5-4-.7-.6-.9.3-10 3.6-.9.3v1l-1.4 10.1v.9l.6.6 9.2 7.6c-7.5 1.1-14.9-3.6-16.9-11.1-.9-3.2-.7-6.5.6-9.6l.5-1.1-1-.8-51.6-43.6-.9-.8-1 .6c-2.8 1.7-6 2.5-9.3 2.2-7.8-.7-13.7-7.1-13.9-14.7l9.1 7.7.7.6.9-.3 9.8-3 1-.3.2-1 1.8-10.5.2-.9-.8-.6-9.1-7.4c.9-.1 1.9-.1 2.9 0 8.4.7 14.6 8.1 13.9 16.4-.2 2.1-.8 4.1-1.7 5.9l-.6 1.2 1.1.8 50.9 43 1 .9 1.1-.8c1.6-1.3 3.5-2.2 5.5-2.8 8.1-2.2 16.5 2.6 18.6 10.8.3.9.4 1.9.5 2.8l-8.9-7.7z"/><rect fill="#0045a7" height="46.5" rx="7.6" width="135.5" x="4.7" y="154"/><rect fill="#0045a7" height="46.5" rx="7.6" width="135.5" x="150.7" y="299"/><path d="m214 438.1c0-12.4 10-22.4 22.4-22.4 12.4 0 22.4 10 22.4 22.4 0 12.4-10 22.4-22.4 22.4-12.4 0-22.4-10-22.4-22.4zm6.2 0c0 9 7.3 16.2 16.2 16.3 9 0 16.2-7.3 16.3-16.3 0-9-7.3-16.2-16.3-16.2-9 0-16.2 7.3-16.2 16.2z"/><path d="m155.4 449.9c-.7-1.6-1.4-3.2-2-4.8h52.7c-2.1-8.2 1.7-18.8 1.7-18.8 7.9-19.5 32.1-26 48.2-11.6s9.6 31.1 9.6 31.1h11.6l2.1-23.9-10.6-.3-10.3-14.7 8.5-.7c-12-4.8-51.6-9.2-51.6-9.2-3.4 7.2-10.6 6.5-10.6 6.5h-53c.4-1.4.8-2.8 1.3-4.1h51.4s7.5-1.7 1-5.8c-5.6-3.6-27.1-10.7-42.3-13.2 1.2-1.6 2.4-3.1 3.8-4.6 12.4 2.8 33.4 8.1 43.7 13.7 15 8.2 67.7 8.6 72.8 22.6l-20.2-2.7 6.8 8.9 13.2.4-.9 9.8h3.1l-1 7.6c-.2 1-.4 2-.7 3h-2.1l-.8 8.6c-.3.8-.7 1.6-1 2.3h-19.4c1.8-3.6 2.8-7.6 2.8-11.8 0-14.8-12-26.8-26.8-26.8s-26.8 12-26.8 26.8 1 8.2 2.8 11.8h-57z"/><path d="m151.4 438.7h55.7v8.2h-53.1c-1-2.7-1.9-5.4-2.7-8.2z"/><path d="m264.5 440.5h14.6v6.7h-14.6z"/><path d="m260.9 396.4c11.8 2 19 5.8 23.3 9.1-7.2-30-34.2-52.3-66.5-52.3s-34.9 7.2-47.2 18.9c13 2.5 30.2 6.7 40.3 12.5 11.5 6.6 26.3 7.7 50.1 11.8z" fill="#0045a7"/><path d="m215.3 454.5c4.9 6.3 12.6 10.4 21.2 10.4s16.3-4.1 21.2-10.4h19.9c-11.6 21.1-34.1 35.5-59.9 35.5s-48.3-14.3-59.9-35.5z" fill="#86b52c"/><path d="m268.6 418.4h17.1s1.7 17.4-5.7 31.6l-1.2-6.9 1.4-22.2-9.9-.6-1.6-1.9z"/><path d="m279.3 421.9s-.1 11.8-4.6 21.1l6.2-.8.8-20.8z"/><rect fill="#0045a7" height="46.5" rx="7.6" width="135.5" x="295.7" y="154"/><path d="m361.6 73.4-25.6-.5s1.5 6.1 5.8 9.6h19.7l.2-9.1z"/><path d="m329.8 72.7s-2.7-.4-6.2-.9c.1.4.2.8.2 1.3 0 2.8-2.8 5.1-6.2 5.1s-6.2-2.3-6.2-5.1.5-2.3 1.4-3.2c-1.4-.3-2.5-.6-3.3-.9 0 0-4.5 4.5-1.5 10.9l26.5 1.1s-3-4.3-4.7-8.2z"/><path d="m319.5 91.8c-6.2 1.8-4.7 8.4-4.7 8.4h42.1v-8.4z"/><path d="m362.1 57h-47.4s3-12.6 16.9-19.9h30.1z"/><path d="m312.9 58.1-11.1 15.5-1.9 14.2-.6-16.6 7.9-12.3h-10.3s-4.3-3.9 3.2-6.9 12.4 2.8 12.8 6.1z"/><path d="m300.1 93.4 2.8 10.8 15.8 1.3v5.3h-18.8z"/><path d="m359.6 73.4 25.6-.5s-1.5 6.1-5.8 9.6h-19.7l-.2-9.1z"/><path d="m391.4 72.7s2.7-.4 6.2-.9c-.1.4-.2.8-.2 1.3 0 2.8 2.8 5.1 6.2 5.1s6.2-2.3 6.2-5.1-.5-2.3-1.4-3.2c1.4-.3 2.5-.6 3.3-.9 0 0 4.5 4.5 1.5 10.9l-26.5 1.1s3-4.3 4.7-8.2z"/><path d="m364.3 91.8v8.4h42.1s1.5-6.6-4.7-8.4z"/><path d="m359.1 57h47.4s-3-12.6-16.9-19.9h-30.1z"/><path d="m408.3 58.1 11.1 15.5 1.9 14.2.6-16.6-7.9-12.3h10.3s4.3-3.9-3.2-6.9-12.4 2.8-12.8 6.1z"/><path d="m421.1 93.4-2.8 10.8-15.8 1.3v5.3h18.8z"/><path d="m397.8 105.7h-74.7v9.4h-28v-44.4l4.8-8.2h-10.5c-13.1 18.8-17.1 38.6-8.9 55.2 14.7 30.1 63.9 36.2 110 13.7 9.8-4.8 18.7-10.5 26.1-16.4h-18.8v-9.2z" fill="#86b52c"/><path d="m447.5 36.3c-14.7-30.1-63.9-36.3-110-13.8-13.9 6.8-25.9 15.4-35.5 24.9 3.8-.4 8.2 0 10.9 3.3 0 0 6.3-13.1 19.4-17.9h59.2s12.2 6.5 16.8 17.1c0 0 7.1-4.6 13.4-2.3s11.1 8.3 5.1 15.7h-6l4.8 7.7v35.9c22.6-22.2 32.1-49.5 21.8-70.6z" fill="#0045a7"/><rect fill="#0045a7" height="46.5" rx="7.6" width="135.5" x="441.7" y="299"/><path d="m558.3 406.2c-.6-9.5-17.4-13.6-40.6-10.8s-69.1 17-82.9 29.1c-14.5 12.7-13 27.5-13 27.5 6.5-1.3 11.7-.7 11.7-.7l-.4-1.8-9.9.3s-1.1-19.4 26-32.1 77.1-21.6 88.9-20.8 18 3.9 18.7 7.9c.3 1.5.5 8.3-4.5 8.2-4.5 0-4.6-5.1-3.8-6.8.6-1.4 3.1-3.9 5.4-2.2.9.7 1.4 1.3 1.5 1.9 0-2-1.1-3.5-3.7-4.2-3.7-.9-8.7 4.3-5.5 9.9 3.2 5.7 12.6 3.2 12-5.6v.2z"/><path d="m555.9 401.8s13.8 2.8 23.5 16.3c0 0 3.2-.8 5.4.9s2.1 5.5 0 7.9c-2.2 2.5-5.8 2.1-6.7-.6s1.4-6.2 4.4-5.4c0 0-1.9.3-2.5 2-.7 1.6 0 3.1 1.1 3.5 1.7.8 4.6 0 4.5-3.5 0-3.7-3.4-4.2-6.5-3.3 0 0-8.2-11-21.6-13.7 0 0-.8-3.3-1.5-4.1z"/><path d="m514.8 397.6s-.3-17.4-18.4-17.9c-18.2-.5-36.6 17.1-42.8 32.8 0 0 7.7-15.6 24.6-25.3s32.3-3.4 31.8 11.3l4.9-.9z"/><path d="m497.3 379.7s26.6 1.5 42.5 13.5c0 0-11.2-8.1-34.9-10.6z"/><path d="m511 397.3s-5.8-.7-8-3.2-3.4-5.9-8.4-3.9-3.4 5.6-.8 5.9c2.5.3 14.2 2.6 14.2 2.6l3.1-1.5h-.1z"/><path d="m576.4 437.6c-10.1-7.4-17.9-9.1-26.5-11.3-8.6-2.3-24.3-.2-24.3-.2 10.8-29-5.7-26.8-16.1-19.9-10.3 6.9-14.6 23.3-14.6 23.3-20.6 2.3-44.4 10.4-44.4 10.4 4.4-14.9-2.8-21.4-12.6-10.7-9.9 10.6-8.8 21.7-8.8 21.7l3.2-.3c2.9 9.3 12 6.6 12 6.6 8.9.6 13.1-12.1 13.1-12.1 4.2-1.1 8.4-2.1 12.8-2.9-1 5.5 3 10.8 9.9 8.5 5.9-2 9.2-8.4 10.4-11.4 3.7-.4 7.4-.7 11-.9 1.2 4.1 2.5 7.3 11.3 8.3 7.5.8 13.4-5.7 15.8-9 4.5 0 8.8.1 12.9.3-.2 2.5-.3 8.5 5.3 9.8 6.7 1.6 12.1-.7 15.7-8.6 7.9.7 13.2 1.4 14.3 1.6 4.4.9-.5-3.2-.5-3.2zm-140.5 16.4c-3.5-1.6-3.5-8.9-.1-16.2s9-11.9 12.5-10.3 3.5 8.9.1 16.2-9 11.9-12.5 10.3zm69.9-10.4c-5-2.3-5.1-12.8-.2-23.4s13-17.2 18-14.9c5 2.4 5.1 12.8.2 23.4s-13 17.2-18 14.9z"/><path d="m451.6 432.8s-3.4-5-9 1.2-4.6 14.5-4.2 15.4c0 0-.4-6.5 3.8-11.9s8.4-3.7 8.9-1.3z"/><path d="m528.3 413.8s-4.9-7.2-13.1 1.8-6.7 21.1-6.2 22.4c0 0-.5-9.5 5.5-17.3 6.1-7.8 12.2-5.3 12.9-1.9l.8-4.9z"/><path d="m583.3 439.5s-12.1-14.6-33.7-17.6c0 0-12-.1-10.2-2.9s14.4-.5 19.4 1.2 20.6 9.3 24.5 19.3z"/><path d="m511.8 406.8s-20.8 2.1-42 10.7c0 0 19.8-6.7 39.3-6.9z"/><path d="m560.9 447.4c-4.9 5.2-9.8 4.4-16.4 3s-6.6-9-6.6-9l-7.9-.3c-7.1 9.6-15 10.7-23.2 7.7s-8.2-6.8-8.2-6.8l-5.7.8c-6.3 9.3-10.9 12.3-18 12.3s-8.7-8.7-8.7-8.7l-6.6 1.6s0 4.1-5.2 9-6.3 3.3-14.5 3.8-9.3-5.7-9.3-5.7l-8.1 1c.6 2.2 1.4 4.3 2.5 6.4 14.8 30.3 64.4 36.5 110.9 13.8 17.6-8.6 32.2-20.1 42.8-32.7-5.2-.9-14-1.4-14-1.4s1.4 0-3.6 5.2z" fill="#86b52c"/><path d="m420.8 447.4c.6-.4 1.2-.8 1.7-1.1l-1.8.5v.7zm172.3-66.9c-14.8-30.3-64.4-36.5-110.9-13.8-34.5 16.8-57.5 44.8-61 70.5 3.5-7.9 11.4-18.7 28.5-26.1 0 0 11.2-23.5 33.1-31.7s54.1 6.3 62.6 12.8c0 0 8.5.8 13.7 6.6 0 0 13.1 3.8 21.9 16.1 0 0 12.4-.4 6.6 16.1 10.3-17.3 13-35.5 5.6-50.6z" fill="#0045a7"/><rect fill="#0045a7" height="46.5" rx="7.6" width="135.5" x="587.7" y="154"/><path d="m707.7 68.3c2.8-1.2 4 .9 4 .9 2.5 2 4.5 9.1 4.5 9.1s-5.3.9-7.5.7-3.4 0-4.8-3.6c-1.4-3.7.5-5.7 3.8-7.1z"/><path d="m653.1 81.4c-3.4.6-23.8-1-23.8-1-3-11 3.5-11.5 5.4-11.8s15.9 1.3 20.3 5.9c4.3 4.6 1.5 6.3-1.9 6.9z"/><path d="m590.9 72s.8 3.9.4 7.9c0 0-1-4.4-2.6-3.1 0 0 .7-3.3 2.2-4.8z"/><path d="m590 102c-.8 0-1.6-4.4-1.7-10-.2-5.5.4-10.1 1.2-10.1s1.6 4.5 1.7 10c0 5.5-.4 10.1-1.2 10.1z"/><path d="m613.3 78.8c-4.4-.8-4.3 12.9-4.3 12.9-1.2-11.1 1.3-17.8 5.3-15.2s5.2 12.5 5.2 12.5-1.8-9.4-6.2-10.2z"/><path d="m715.3 99.4c-2.5.5-12.7 1.8-12.7 1.8s2.3-.7 3.1-12l-.8-.3s-.4-10.6-2.6-15.8h-.7s.5 2.7.9 5.2-1.6 4-3.9 3.9c-2.3 0-31.6.7-31.6.7s-1.8.3-4.2-2.1-4.1-5.4-5.2-6.5h-1.1s8.3 11.2 6.9 16.5c0 0-.3.8-1.8.8 0 0 .2 7.2 4.1 11.4 0 0-25.7.5-31.1-.2 0 0-3.2 0-3.6-3.5 0 0-.4 3 1.3 4.4l-2.9 2.2 2.8-.4s38.3 2.5 68.6-1.3l14.4-2.1s2.7-1.5 3-4.6c0 0-.5 1.4-2.9 1.9zm-16 1.4c-4.1.8-24 1.6-27.7 1.7-3.7 0-3.9-2.2-3.9-2.2-2.4-3.9-2.2-8.6-2.2-8.6 14.9.4 37.7-1.7 37.7-1.7.3 10.2-3.9 10.8-3.9 10.8z"/><path d="m614.2 112.3c-2.2 0-4.1-6.5-4.3-14.6s1.4-14.7 3.6-14.7 4.1 6.5 4.3 14.6-1.4 14.7-3.6 14.7z"/><path d="m668.1 44.1c9.8 5.4 18.4 14.6 18.4 14.6s-7-.5-18.4-.3-48.3.6-49.5 0c-1.2-.4-1.4 0-1.7-5.9-.3-6-1.9-10-1.9-10 34.7-1.2 53.1 1.4 53.1 1.4z"/><path d="m611.4 61.9s1.6-10.8.2-16.5-10.8-1.3-16.7 15.6l2.3.2s-.2-5.2 10.5-4.2c0 0 .7 1.2.7 4.5l2.9.3z"/><path d="m656.2 8.6c-32.2-1.1-59.9 20.3-68 50.1l4.7-.7s3.4-10.5 9.5-15.5c6.2-5 37.2-3.3 66.6-2.3 0 0 14.2 7.9 20.7 16 0 0 23.3 5.5 26.5 14.3 1.7 4.7 3.7 9.6 5.2 13.2.2-1.5.3-3.1.3-4.7 1.3-37.5-28-69-65.6-70.3z" fill="#0045a7"/><path d="m635.8 109.6c-.7 5.4-4 6.7-4 6.7s-14.8 1.9-19.3-1.2c-4.5-3.2-5-11.6-5-11.6l-5.9-2.4c-.9 3-2 2.9-2 2.9h-7.8c10.2 23.1 32.9 39.6 59.8 40.5 28 1 52.6-15.1 63.9-39-33.5 7.3-79.5 4-79.5 4h-.2z" fill="#86b52c"/><path d="m806.5 278.4-5.3-4.1c-.5-.4-1.2-.4-1.7 0l-5.3 4.1c-.3.3-.5.7-.5 1.1v9.9c0 .8.6 1.4 1.4 1.4h10.6c.8 0 1.4-.6 1.4-1.4v-9.9c0-.4-.2-.9-.5-1.1z" fill="#86b52c"/><rect fill="#0045a7" height="46.5" rx="7.6" width="135.5" x="732.7" y="299"/><path d="m742.6 410.5s17.7-12.1 57.3-10.1l-8.5 2.4s-25.5-1.4-48.8 7.7z"/><path d="m756.7 405.5s-8.2-4.4-19.1-.1c0 0 8.7-2.2 15.4 1.2z"/><path d="m780.9 406.6s22.8-11.7 38.1-8.9c15.2 2.9 27.3 5.5 34.3 6.2s14 1.2 14.7 7c0 0-.9-3.4-5-4.1s-23.7-2-30.3-3.7-22.7-7.5-51.8 3.5z"/><path d="m789.9 398.7s2.4-2.1 7.4-3.4c5-1.2 25.5-5.7 41.3-2.6 0 0 6.5 1.9 13.7 9.9 0 0-10.1-7.6-14.5-7.4 0 0-1.6-.2-.5 2s3.4 6.1 3.4 6.1l-4.2-1.1s-1.6-4.5-3-6.6c0 0-9.6-3.1-31.8-.1 0 0-7.9.9-11.7 3.2z"/><path d="m816.5 412.2s-26.2 1.4-36.6.4c0 0-2.7-.7-.7-2.5 2-1.7 34-16.8 31.4 1.2h-2s4.5-14.8-23.9-1.6c0 0-1.8 1.2 0 1.4s21.7 0 32.9-1.7l-1.1 2.7z"/><path d="m778.5 418.2c1.4.7.9 1.9.9 1.9 0 .7-.5 1.8-1.2 3.1l3.4-.2c4-6.8 0-6.8 0-6.8-23.4-2.9-47.8 1.1-47.8 1.1 35.8-1.1 43.4.3 44.8 1h-.1z"/><path d="m775.3 427.3c-2.9 3.4-7.1 6.7-11.5 6.9-8 .4-30.6.4-30.6.4s26.2 2 32.6.9c5.3-.9 8.9-3 12.7-8h-3.2z"/><path d="m794.7 419c-4.8 0-8.7 3.4-8.7 7.6s3.9 7.6 8.7 7.6 8.7-3.4 8.7-7.6-3.9-7.6-8.7-7.6zm1.1 13.5c-3.6 0-6.5-2.6-6.5-5.7s2.9-5.7 6.5-5.7 6.5 2.6 6.5 5.7-2.9 5.7-6.5 5.7z"/><path d="m749.8 445.4c19.1 4.9 77.8 4.2 77.8 4.2 8.6-.4 15.5-9.8 15.5-21.4s-4.7-17.6-11.2-20.4c-5-9.6-14.8-3.3-17.1 5.8-2.4 9.4-2 30.3-2 30.3-13.2 3.7-63 1.4-63 1.4zm64.5-10.8c.2-7.1.8-13.6 1-15.7 2.4-5.5 6.7-9.2 11.8-9.2 7.5 0 13.6 8.3 13.6 18.5s-6.1 18.5-13.6 18.5-10.9-5.1-12.8-12.2z"/><path d="m839.9 440.1s4.4-6.8 14.3-11.9c0 0-5.8 1.7-12.4 5.8l-1.8 6.1z"/><path d="m832.3 408.7s17.1-1.5 31.4.5c0 0-14.5.3-26.7 3.6 0 0-.9-1.5-4.6-4.1z"/><path d="m817.6 412.6s-3.6 12.7-2.4 27.4l-2.2-5.1 1.2-17 3.3-5.3z"/><path d="m788.4 422.3-54.9.4 1.8 1.4-1.2 2.1 52.9 2z"/><path d="m809.3 411.3s2.3-6.6-4.5-7.5c-6.8-1-24.2 6.9-24.2 6.9s6 2.6 28.7.6z"/><path d="m777.7 416.8s7.5-.1 1.5 7.7-10.8 10.2-18.2 10.5c-6.3.3-21.8-.1-28.1-.5-.8-4.2-1.2-8.5-1.2-13s0-2.6 0-3.9c6.4-1.1 23.1-3.1 45.9-.8z"/><path d="m839.1 389.7s-17.9-4.3-47.5 4.3c0 0-4.3 1.9-5.4 3.1 0 0-17.5.4-30.3 4.5 0 0-11-3.9-21.6 1.4 8-28.9 34.5-50.1 66-50.1s57.7 21 65.9 49.7c-2.6-1-6.3-2.1-11.2-2.7 0 0-7-7.4-15.9-10.3z" fill="#0045a7"/><path d="m827.4 454c9.6-.3 16.5-12.3 16.5-12.3 3.9-6.7 17.4-13.1 24.8-16.2-2.1 36-31.9 64.5-68.4 64.5s-53.2-17.6-63.4-42.6c31.6 7.6 90.6 6.7 90.6 6.7z" fill="#86b52c"/><path d="m951.5 221.4-5.3 4.1c-.5.4-1.2.4-1.7 0l-5.3-4.1c-.3-.3-.5-.7-.5-1.1v-9.9c0-.8.6-1.4 1.4-1.4h10.6c.8 0 1.4.6 1.4 1.4v9.9c0 .4-.2.9-.5 1.1z" fill="#86b52c"/><rect fill="#0045a7" height="46.5" rx="7.6" width="135.5" x="877.7" y="154"/><path d="m1009.4 60.6s-48.9-11.7-78.7 15.9l15.8.5s5.2-3 8.5-11.7c0 0 20.5-12.3 60.7 1.6 0 0 5.5-11.7 15.8-5.7 0 0-12.9-12.3-22.1-.5z"/><path d="m1020.3 57.3s-13.8-12.5-32.9-12.8c-19.2-.3-48.9 3.1-66.1 6.3 0 0 53.1-4.9 64.1-2.4 0 0-6 6.3-8.5 10.6h7.2s1.1-4.7 6-10.6c0 0 12.3-.3 27 10.9l3.3-1.9z"/><path d="m952 57.2s-85.9-3.2-97.9 24.9l8.1-.5s2.8-2.9 7.2-9.6c0 0 25.1-13.2 82.7-14.9z"/><path d="m920.3 83.5-51.9 3.4-10.1 15.2h110.4l-8.5-9.8-26.8 2.1z"/><path d="m976.8 102.1h50.3l-.8-4.9-41.4-5.5z"/><path d="m1031.1 102.1c2.4-4.5 3.9-5.6 5.3-16.6 1.3-11.3-2.2-20.5-4.9-20.5s-6.9 10.2-6.9 21.6 1.2 11.6 1.3 15.5h5.3z"/><path d="m983.8 102.1c3.2-3.9 5.2-9.6 5.2-15.7 0-12.1-7.6-21.8-16.9-21.8s-16.9 9.8-16.9 21.8 2 11.7 5.2 15.7z"/><path d="m968.3 70s5.6-4.3 12.3 2.8 5.3 24.2-.5 30.6l-5.3-.3s6.6-6.4 6.4-18.5c-.3-10.7-6.4-16.1-12.6-14.5h-.3z" fill="#fff"/><path d="m1015.6 71.7s-3.5 12.5-.7 25.3l-4.2-.7s0-13.7 4.9-24.6z"/><path d="m946.6 138.3c35.2 0 65.9-12.8 80.5-30.5h-163.1c16.8 17.8 47.4 30.5 82.6 30.5z" fill="#86b52c"/><path d="m901.6 55.1s13.4-5.8 22.5-9.4c0 0 33.9-7.2 61-6.1 0 0 18.6-.7 33 10.3 0 0 7.9.3 15.4 6.2-13.3-22.8-47.2-39-86.8-39s-88.2 24.3-92.4 55.1c5.8-5.3 20.8-14.2 47.4-17.2h-.1z" fill="#0045a7"/><path d="m1097.5 278.4-5.3-4.1c-.5-.4-1.2-.4-1.7 0l-5.3 4.1c-.3.3-.5.7-.5 1.1v9.9c0 .8.6 1.4 1.4 1.4h10.6c.8 0 1.4-.6 1.4-1.4v-9.9c0-.4-.2-.9-.5-1.1z" fill="#babacd"/><rect fill="#e1e1ea" height="46.5" rx="7.6" width="135.5" x="1023.7" y="299"/><path d="m1054.8 399s-5.5 27.1-18.2 39.5l-4.6-.4c6.4-4.1 12-21.1 15-31.7 3-10.5 6.6-13.1 12.4-11.1 5.8 2.1 5.7 3.3 1.6 18.4s-15.7 25.6-15.7 25.6l-6-.6c3-3.7 12.5-16.8 15.4-39.7z"/><path d="m1121 446.1s3.9-33.1-10-36.1c0 0 17.4-17.4 15.9 36.2l-5.9-.2z"/><path d="m1033 427.5s2.5-2.5 5.4-4c0 0 3.6-7.4 7-21 3.4-13.5 12.8-16.4 26.8-14.7 14 1.6 38.6 3.7 38.6 3.7l-36.7-6.4s-26.2-4.1-30.9 13.9-5.7 22.7-5.7 22.7-2.9 3.1-4.6 5.7z"/><path d="m1126.9 446.3s10-4 6.4-17.4-8.6-31.8-25-31.6-27.1 19.9-27.1 19.9 9.7-13 21.1-15.5c11.4-2.6 21.7.8 28.2 27.5 0 0 3.6 10.9-4.1 14.4l.4 2.7z"/><path d="m1043.3 403.4s-20.4-8.6-30.2 14.5c0 0 11.3-19.8 29.7-10.1z"/><path d="m1089.1 438.9s-60.5-.8-82.9-5.1l.4 5.4s18.4 9.5 82.8 8.7z"/><path d="m1089.8 450.8 2 6.2s-35.8-5.2-53.5-6.4c0 0-3.7 3.4-11.7 1.7 0 0-5.1 0-7.5-7.4 0 0 22.5 4.6 70.8 5.9z"/><path d="m1135.1 395.2-1 3s1.1 1 1.6 4.2.4 7 2.7 6.9l1.9-.4s1.3 0 1.5-2.4c.2-2.3 1.9-9.7-6.7-11.4z"/><path d="m1113.7 384.9-2.9 6.6c16.9.8 21.5 4.6 21.5 4.6l3.2-9.2c-5.3-4.7-20.4-4.3-20.4-4.3l-12.9 5.3 11.5-3.1zm2.3-.4s14 .5 17.4 3.2l-2 5.7s-5.3-3.6-17.5-3.6z"/><path d="m1168.9 423.5s1.9-15.6-3-19.2-12.1.1-13.3 13.4c0 0 2-9.7 6.9-11.2 4.9-1.4 10 4 9.3 17z"/><path d="m1132.4 431.4.3 3.6c10.9-3.1 21.4-2.4 21.4-2.4 2.4 5.3 5.1 4.1 7.1 4.1s5.4-1.8 6.1-11.9c.7-10.2-2-12.5-2-12.5-.3.7-.5 1.5-.8 2.4-.3 1.1-.6 2.7-.9 5.1-.7 5.7-.6 11.7-.6 11.7-6.1-1-30.6 0-30.6 0z"/><path d="m1064.7 419.6c.3 3.9 3.4 6.8 6.9 6.5s6.1-3.6 5.8-7.5-3.4-6.8-6.9-6.5-6.1 3.6-5.8 7.5z"/><path d="m1021.8 418.4c.3 3.5 3 6.1 6.1 5.8 3.1-.2 5.4-3.2 5.1-6.7s-3-6.1-6.1-5.8c-3.1.2-5.4 3.2-5.1 6.7z"/><path d="m1099.2 463.8c9.8 4.1 15.8-2.1 16.5-4.4.7-2.4 6.4-15.4 3.1-33.5s-9.7-13.1-9.7-13.1-.7 1.6-1.9 3.3c-1.7 2.2-4.6 4.8-9.2 5.4-1.9.1-3.6 0-4.4 0h-.4c-4.1 9.2-3.8 38.4 6 42.5zm8.1-25.8c0-9.6 2-17.4 4.4-17.4s4.4 7.8 4.4 17.4-2 17.4-4.4 17.4-4.4-7.8-4.4-17.4z"/><path d="m1101.6 385.9-5.4 4.1s13.8 1.5 14.8 1.4c0 0 11.9-1.9 20.5 3.4l3.1-7.9s-10.2-4.2-19.4-4.3l-13.5 3.3z"/><path d="m1139.2 426.8h3.5c8.4-23.6-2.2-31-2.2-31 7.7 3.7 8.6 16.1 8.6 16.1h2.8c-2.8 9.3-3.3 17.2-3.3 17.2h-8.1l-1.3-2.2z"/><path d="m1174.2 379.4c-14.3-29.7-63-35.2-108.7-12.2-17.8 8.9-32.4 20.8-42.9 33.8 4.7-2.1 10.9-4 17.1-3.1 0 0 1-9.4 13.1-14.2 12.1-4.7 36.1 0 43.5 2l3.7-3 16.9-4.7s15.5 1.4 22.9 7.1l-1.3 5.1s11.8 4 13.5 15.8c0 0 3-7.1 9.4-6.7 5.8.3 11.6 1.2 11.9 20.9 6.1-14.2 6.9-28.5 1-40.7z" fill="#0045a7"/><path d="m1155.9 440.3c-4.4-.3-4.7-4.4-4.7-4.4-7.1.7-14.2 2.7-14.2 2.7-2 8.1-7.1 11.1-7.1 11.1l-8.1.3c-.3 5.1-3.4 12.5-3.4 12.5-5.4 8.1-13.5 7.4-18.5 6.1-5.1-1.4-8.8-6.7-8.8-6.7l-51.2-7.4c-7.4 4.4-14.2 2.7-18.2 1s-7.7-9.1-7.7-9.1c-1.3 0-5.6-1.4-9.2-2.6 0 6.6 1.1 13 3.9 18.8 14.3 29.7 63 35.2 108.7 12.2 17.8-9 32.6-21 43.1-34-3.1 0-4.6-.5-4.6-.5z" fill="#86b52c"/><path d="m1242.5 221.4-5.3 4.1c-.5.4-1.2.4-1.7 0l-5.3-4.1c-.3-.3-.5-.7-.5-1.1v-9.9c0-.8.6-1.4 1.4-1.4h10.6c.8 0 1.4.6 1.4 1.4v9.9c0 .4-.2.9-.5 1.1z" fill="#babacd"/><rect fill="#e1e1ea" height="46.5" rx="7.6" width="135.5" x="1168.7" y="154"/><path d="m1208.6 95.4c0 10.9-8.8 19.8-19.8 19.8-10.9 0-19.8-8.8-19.8-19.8 0-10.9 8.8-19.8 19.8-19.8 10.9 0 19.8 8.8 19.8 19.8zm-5.4 0c0-7.9-6.4-14.4-14.4-14.4-7.9 0-14.4 6.4-14.4 14.4 0 7.9 6.4 14.4 14.4 14.4 7.9 0 14.4-6.4 14.4-14.4z"/><path d="m1151.1 97.5h12.9v5.9h-12.9z"/><path d="m1299.4 34.4c-6.2-4.1-17.8-9-17.7-9.1-14.3-5.7-31.1-9-49-9-51.8 0-93.8 27.4-93.8 61.2s.6 7.9 1.7 11.8h1.8c-.7-5.6-2.3-19.8 6.7-24.7 11.5-6.3 46.2-10.9 53.8-14.5 7.5-3.6 35.7-13.3 55.3-16.7h15c8.1.2 18.3.6 26.2 1.1z" fill="#0045a7"/><path d="m1331.4 71.3c-4.9-3 3-8.7 3-8.7-10.6.6-6.3 2.1-20.2 8.2s-18.1-1.2-10.6-5.4 9.9-12.7 9.9-12.7c-8.5 7.3-7.8 4.5-15.7 9.4-7.8 4.9-8.2 9.9-12.4 14.5-4.2 4.5-16.7 8.7-20.9 3.6s11.8-3.3 15.1-10.9c3.3-7.5-4.5-12.1-4.5-12.1 2.8 3.3 4.5 12.1-10.6 12.4s-14.2 5.4-23.6 13.3c-9.4 7.8-19 7.8-10.6 1.8 8.5-6.1 7.5-10.9 7.5-10.9s-5.2 5.7-14.8 6.1c-6.4.2-10.4 4.2-12.4 7 1 2.7 1.7 5.6 1.7 8.6 0 6-2.2 11.4-5.9 15.5l104 .3c4.9-4.2 9.9-14.5 16.7-15.1 6.6-.6 6.3-7.3 6.3-7.3s-4.5 4.2-8.2-.3c-3.6-4.5 2.1-5.4 9.1-9.1 7-3.6 9.1-8.5 9.1-8.5s-7.3 3.3-12.1.3v-.3.3z" fill="#86b52c"/><path d="m1207.3 110.4c-4.3 5.2-10.9 8.6-18.3 8.6s-13.9-3.3-18.3-8.6h-17.1c16.7 17 45.8 28.2 79 28.2s62.4-11.3 79-28.2h-104.4z" fill="#86b52c"/><path d="m1308.6 66.9s4.5-.2 12.9-5 6.8-8.4 14.1-8.8c0 0-5.9-4.5-13.8.5s-3.4 5-13.2 13.3z" fill="#86b52c"/><path d="m1284.4 70.1s5.2-6.9 8.6-9.7c4.5-3.6 9.7-6.2 10.8-11 0 0-5.7 2-11.8 4-7.4 2.3-9.1 9.2-7.5 16.7z" fill="#86b52c"/><path d="m1171.5 74.7c-14.2 12.7-8.5 27.5-8.5 27.5h-10.3l-1.8-21.2 9.4-.3 9.1-13-7.5-.6c10.6-4.2 45.6-8.2 45.6-8.2 3 6.3 9.4 5.7 9.4 5.7h51.5c1.7-.2 4-.3 4.6-3.6h-55.8s-6.6-1.5-.9-5.2c5.7-3.6 30.2-11.5 43.2-12.4h49.4c-1.8-1.7-3.8-3.4-5.8-5h-44.3s-33.9 6.5-47.1 13.8-59.8 7.5-64.4 20l17.8-2.4-6.1 7.8h-11.8l.9 9.1h-2.8v9.4h3.3l.9 9.7h17.8c-1.6-3.1-2.5-6.7-2.5-10.4 0-13.1 10.6-23.7 23.7-23.7s16.5 4.8 20.5 12l2.6-2.8c-8.5-14-27.5-17.8-40.6-6.2z"/><path d="m1388.5 278.4-5.3-4.1c-.5-.4-1.2-.4-1.7 0l-5.3 4.1c-.3.3-.5.7-.5 1.1v9.9c0 .8.6 1.4 1.4 1.4h10.6c.8 0 1.4-.6 1.4-1.4v-9.9c0-.4-.2-.9-.5-1.1z" fill="#babacd"/><rect fill="#e1e1ea" height="46.5" rx="7.6" width="135.5" x="1314.7" y="299"/><path d="m1416.3 424.1c1 0 2.5.2 4.2.2-.8-8.3-4.6-13.3-4.6-13.3 1.3 6.7.8 10.9.4 13.1z"/><path d="m1429.8 423.8c-2.5-10.2-7-15.8-7-15.8 1.7 7.9 2 13.8 2.1 16.1 1.5 0 3.1-.2 4.8-.4z"/><path d="m1441.3 421.8c-3.2-9.6-12.4-18.1-12.4-18.1 4.7 8.8 5.9 16.3 6.3 19.3 1.9-.4 4-.7 6.1-1.2z"/><path d="m1446.4 420.4c2.5-.7 5.1-1.6 7.7-2.6-8.9-14.7-21-18.8-21-18.8 9.6 9 12.4 17.8 13.3 21.4z"/><path d="m1459.9 415.4c2.2-1 4.5-2.1 6.9-3.3-15.3-15.3-30.6-18.2-30.6-18.2 14.7 8.1 21.4 17.6 23.7 21.5z"/><path d="m1472.5 408.9c2.2-1.4 4.5-2.8 6.8-4.5-3.5-3.2-16.2-13.5-41-16.9 0 0 21.7 5.8 34.2 21.3z"/><path d="m1490.8 395.4c-21.1-16.5-52.2-13.4-52.2-13.4 26.9 4.5 40.5 14.9 45.2 19.2 2.3-1.8 4.7-3.7 7.1-5.8z"/><path d="m1414 405.4c7.8-3.7 18.6-12 11.9-28.3 0 0 24.1-19.2 80.6 2.3-3 3.4-5.9 6.6-8.9 9.6-7.1-4.8-29.2-17.1-62.5-11.2 0 0 4.9 21.9-19.9 30.6-.2-.8-.6-1.9-1.2-3z"/><path d="m1358.1 438.8c0 10.9-8.8 19.7-19.7 19.7-10.9 0-19.7-8.8-19.7-19.7 0-10.9 8.8-19.7 19.7-19.7 10.9 0 19.7 8.8 19.7 19.7zm-5.4 0c0-7.9-6.4-14.3-14.3-14.3-7.9 0-14.3 6.4-14.3 14.3 0 7.9 6.4 14.3 14.3 14.3 7.9 0 14.2-6.4 14.3-14.3z"/><path d="m1464.5 449.2c1-1.2 1.9-2.3 2.9-4.2h-102.3c1.8-7.2-1.5-16.5-1.5-16.5-6.9-17.1-28.2-22.8-42.3-10.2s-8.4 27.3-8.4 27.3h-10.2l-1.8-21 9.3-.3 9-12.9-7.5-.6c10.5-4.2 45.3-8.1 45.3-8.1 3 6.3 9.3 5.7 9.3 5.7h49.7c1.4-.5 3.9-1.6 6.1-3.6h-55.5s-6.6-1.5-.9-5.1 30-11.4 42.9-12.3h23.2l.5-4.9-24.2-.2s-33.6 6.6-46.8 13.8-59.4 7.5-63.9 19.8l17.7-2.4-6 7.8h-11.7l.9 9h-2.7v9.3h3.3l.9 9.6h17.7c-1.6-3.2-2.4-6.6-2.4-10.4 0-13 10.6-23.6 23.6-23.6s23.6 10.6 23.6 23.6-.9 7.2-2.4 10.4h104.9z"/><path d="m1356.8 453.7c-4.4 5.2-10.9 8.4-18.1 8.4s-13.8-3.3-18.1-8.4h-17.1c16.5 16.9 45.5 28.1 78.5 28.1s62-11.2 78.5-28.1z" fill="#86b52c"/><path d="m1299 408.1c11.4-6.3 45.9-10.8 53.4-14.4s35.4-13.2 54.9-16.5l15 .3-1.5-3.6s2.9-2 9.8-4.6c-14.2-5.7-30.9-9-48.7-9-51.5 0-93.1 27.2-93.1 60.8s.6 7.9 1.8 11.7h1.8c-.7-5.6-2.3-19.7 6.7-24.6h-.1z" fill="#0045a7"/><path d="m1466.6 446.3-102.5.2v-7.2h106.5z"/><path d="m1301 440.9h12.8v5.8h-12.8z"/><path d="m1533.5 221.4-5.3 4.1c-.5.4-1.2.4-1.7 0l-5.3-4.1c-.3-.3-.5-.7-.5-1.1v-9.9c0-.8.6-1.4 1.4-1.4h10.6c.8 0 1.4.6 1.4 1.4v9.9c0 .4-.2.9-.5 1.1z" fill="#babacd"/><rect fill="#e1e1ea" height="46.5" rx="7.6" width="135.5" x="1459.7" y="154"/><path d="m1584.7 84.9-5.2-.9s-17.2-19.3-30.8-.7l19.4 2.3s-4.6 10.5-2.3 22.8c0 0 1-19.2 6.2-24.1l-16.9-2.9s8.8-12.3 24 3.7l3.3.7s9.1 10.8 2.8 26.2l-1.8-.2c.4-3.1 1.6-13.7-1.3-20-3.4-7.4-13.1-7.2-11.7 18.9l-16-1.6s1.1-11.3-3.7-20.8c-4.2-8.5-15-5.9-15.8 20.5l-62.4 2.3s-1.2-3.8-1.1-8.7l11.3-1.4h-13.3s-1.6 4.5 1 13.3h115.2s9-15.7-.9-29.5zm-39.4 27.9c-3.1 0-5.6-5.8-5.6-12.9s2.5-12.9 5.6-12.9 5.6 5.8 5.6 12.9-2.5 12.9-5.6 12.9zm31.7 0c-2.1 0-3.8-4.9-3.8-11.1s1.7-11.1 3.8-11.1 3.8 4.9 3.8 11.1-1.7 11.1-3.8 11.1z"/><path d="m1507.9 99.9 22.2-.6s.3-5.5 2-8.4l-21.8 1.6s-3.4 1.1-6 6.2l-17.1 1.1s-1.3-3.5-4.6-5.1l-10.5.9s-.7-4.6 15.5-8.7c0 0 41.8-4.4 54.8-4.4 0 0 6.7-8.5 18.5-9 0 0-25.9-3.9-52.6 2.8 0 0-6.3 1.5-12.4 7 0 0 8.5-5.2 14.3-6.2 0 0 19.4-3.8 39.1-2.7 0 0-3.3.6-9.3 5.7 0 0-32 1.6-52.7 5.5 0 0-17.5 3.3-18.2 11.3l12.7-.9s2 1.3 3.8 5.5l20.7-1s2.2-5.2 5.1-6.5l17.9-1s-.7 2.4-1.1 5.3l-20.2 1.7h-.1z"/><path d="m1458 71.6v8.7h19v-3.3c0-14.1 5.7-26.8 14.9-36.1 9.2-9.2 22-14.9 36.1-14.9s26.8 5.7 36.1 14.9c9.2 9.2 14.9 22 14.9 36.1s0 2.2 0 3.3h18.7v-8.7l-9.9-.6c-.4-4-1.2-7.8-2.3-11.5l9-4.5-4.3-10.2-9.5 3.3c-1.8-3.3-4-6.4-6.3-9.3l6.5-7.3-7.8-7.8-7.4 6.5c-2.7-2.2-5.6-4.1-8.7-5.8l3.5-9.4-10.1-4.5-4.9 9.2c-3.6-1.1-7.3-1.8-11.1-2.2l-.6-10.4h-11.1l-.6 10.3c-3.8.4-7.4 1.1-11 2.2l-4.8-9.2-10.1 4.5 3.5 9.3c-3.2 1.7-6.2 3.8-9 6l-7.6-6.7-7.8 7.8 6.6 7.5c-2.4 2.9-4.5 6-6.3 9.3l-10.1-3.5-4.3 10.2 9.6 4.8c-1.1 3.6-1.8 7.3-2.2 11.2l-10.2.7h-.4z" fill="#86b52c"/><path d="m1493.6 81.3s6-5.4 13.1-7.7c0 0 28-6.7 56.3-2.3 0 0 5.7 1.2 11.8 5.8v-.8c0-25.9-21-46.9-46.9-46.9s-46.9 21-46.9 46.9.2 5.2.6 7.6c3.1-.9 7.5-2.1 12.1-2.6z" fill="#86b52c"/><path d="m1458.5 84c1 8.7 3.5 17 7.4 24.5-.9-9.2.9-14.3.9-14.3 3.3-6.9 10.7-8.9 10.7-8.9l-.4-2-18.6.8z" fill="#0045a7"/><path d="m1597.2 83.2-14.6-.6 4.4 1c5.2 6.9 5.6 14.8 4.7 20.7 2.9-6.6 4.8-13.6 5.5-21.1z" fill="#0045a7"/><path d="m1527.8 146c22.9 0 43.3-11.1 56-27.6h-111.9c12.7 16.6 33 27.6 56 27.6z" fill="#0045a7"/><g fill="#fff"><path d="m37 170.7v2h-8.4v-10.9h8.2v2h-5.7v2.4h5v2h-5v2.5z"/><path d="m44 172.7-1.8-2.6-1.9 2.6h-2.6l3.2-4.2-3.1-4.1h2.7l1.8 2.4 1.8-2.4h2.6l-3.1 4.1 3.2 4.3h-2.7z"/><path d="m57 168.5c0 2.6-1.8 4.3-4.2 4.3s-1.9-.3-2.5-1v3.9h-2.4v-11.3h2.3v1c.6-.7 1.5-1.1 2.6-1.1 2.3 0 4.2 1.7 4.2 4.3zm-2.4 0c0-1.4-.9-2.3-2.1-2.3s-2.1.9-2.1 2.3.9 2.3 2.1 2.3 2.1-.9 2.1-2.3z"/><path d="m58.6 161.2h2.4v11.5h-2.4z"/><path d="m62.7 168.5c0-2.5 1.9-4.3 4.6-4.3s4.6 1.8 4.6 4.3-1.9 4.3-4.6 4.3-4.6-1.8-4.6-4.3zm6.7 0c0-1.4-.9-2.3-2.1-2.3s-2.1.9-2.1 2.3.9 2.3 2.1 2.3 2.1-.9 2.1-2.3z"/><path d="m78.6 164.2v2.2c-.2 0-.4 0-.5 0-1.3 0-2.2.7-2.2 2.3v3.9h-2.4v-8.3h2.3v1.1c.6-.8 1.6-1.2 2.9-1.2z"/><path d="m87.4 167.9v4.8h-2.3v-1c-.4.8-1.3 1.2-2.5 1.2-2 0-3.1-1.1-3.1-2.5s1-2.5 3.6-2.5h1.9c0-1-.6-1.6-1.9-1.6s-1.8.3-2.4.8l-.9-1.7c.9-.7 2.3-1 3.6-1 2.5 0 4 1.2 4 3.7zm-2.4 2.2v-.9h-1.7c-1.1 0-1.5.4-1.5 1s.5 1 1.4 1 1.5-.4 1.8-1.1z"/><path d="m98.2 161.2v11.5h-2.3v-1c-.6.7-1.5 1.1-2.6 1.1-2.4 0-4.2-1.7-4.2-4.3s1.8-4.3 4.2-4.3 1.9.3 2.5 1v-4zm-2.4 7.3c0-1.4-.9-2.3-2.1-2.3s-2.1.9-2.1 2.3.9 2.3 2.1 2.3 2.1-.9 2.1-2.3z"/><path d="m99.8 168.5c0-2.5 1.9-4.3 4.6-4.3s4.6 1.8 4.6 4.3-1.9 4.3-4.6 4.3-4.6-1.8-4.6-4.3zm6.7 0c0-1.4-.9-2.3-2.1-2.3s-2.1.9-2.1 2.3.9 2.3 2.1 2.3 2.1-.9 2.1-2.3z"/><path d="m115.7 164.2v2.2c-.2 0-.4 0-.5 0-1.3 0-2.2.7-2.2 2.3v3.9h-2.4v-8.3h2.3v1.1c.6-.8 1.6-1.2 2.9-1.2z"/><path d="m37.7 187.3c0-3.6 2-5.6 4.5-5.6s4.5 2 4.5 5.6-2 5.6-4.5 5.6-4.5-2-4.5-5.6zm7 0c0-2.6-1-3.8-2.5-3.8s-2.5 1.2-2.5 3.8 1 3.8 2.5 3.8 2.5-1.2 2.5-3.8z"/><path d="m61.8 188.6c0 2.6-1.8 4.2-4.2 4.2s-2-.4-2.7-1.1v4h-1.9v-11.3h1.8v1.1c.7-.8 1.6-1.2 2.7-1.2 2.4 0 4.2 1.7 4.2 4.2zm-2 0c0-1.6-1.1-2.6-2.4-2.6s-2.5 1-2.5 2.6 1.1 2.6 2.5 2.6 2.4-1 2.4-2.6z"/><path d="m71.6 184.4v8.3h-1.8v-1.1c-.6.8-1.6 1.2-2.7 1.2-2.1 0-3.6-1.2-3.6-3.7v-4.7h1.9v4.5c0 1.5.7 2.2 1.9 2.2s2.3-.8 2.3-2.5v-4.2h1.9z"/><path d="m82.3 188v4.7h-1.9v-4.5c0-1.5-.7-2.2-2-2.2s-2.3.8-2.3 2.5v4.2h-1.9v-8.3h1.8v1.1c.6-.8 1.6-1.2 2.9-1.2 2 0 3.5 1.1 3.5 3.6z"/><path d="m89.8 192.3c-.5.4-1.2.6-1.9.6-1.8 0-2.9-1-2.9-2.8v-4h-1.4v-1.6h1.4v-1.9h1.9v1.9h2.2v1.6h-2.2v3.9c0 .8.4 1.2 1.1 1.2s.8-.1 1.1-.3l.5 1.4z"/><path d="m90.4 188.6c0-2.5 1.9-4.2 4.4-4.2s4.4 1.8 4.4 4.2-1.8 4.2-4.4 4.2-4.4-1.8-4.4-4.2zm6.9 0c0-1.6-1.1-2.6-2.5-2.6s-2.4 1-2.4 2.6 1.1 2.6 2.4 2.6 2.5-1 2.5-2.6z"/><path d="m100.1 191.9.7-1.5c.7.5 1.8.8 2.9.8s1.7-.3 1.7-.9c0-1.6-5.1 0-5.1-3.4s1.4-2.6 3.6-2.6 2.4.3 3.1.7l-.7 1.5c-.8-.5-1.6-.6-2.4-.6-1.2 0-1.7.4-1.7.9 0 1.7 5.1.2 5.1 3.4s-1.4 2.6-3.8 2.6-2.8-.4-3.5-.9z"/><path d="m200 306.8v10.9h-2.1l-5.4-6.6v6.6h-2.5v-10.9h2.1l5.4 6.6v-6.6z"/><path d="m201.8 313.5c0-2.5 1.9-4.3 4.6-4.3s4.6 1.8 4.6 4.3-1.9 4.3-4.6 4.3-4.6-1.8-4.6-4.3zm6.7 0c0-1.4-.9-2.3-2.1-2.3s-2.1.9-2.1 2.3.9 2.3 2.1 2.3 2.1-.9 2.1-2.3z"/><path d="m220.6 309.4-3.5 8.3h-2.5l-3.5-8.3h2.5l2.3 5.7 2.4-5.7z"/><path d="m228.7 312.9v4.8h-2.3v-1c-.4.8-1.3 1.2-2.5 1.2-2 0-3.1-1.1-3.1-2.5s1-2.5 3.6-2.5h1.9c0-1-.6-1.6-1.9-1.6s-1.8.3-2.4.8l-.9-1.7c.9-.7 2.3-1 3.6-1 2.5 0 4 1.2 4 3.7zm-2.4 2.2v-.9h-1.7c-1.1 0-1.5.4-1.5 1s.5 1 1.4 1 1.5-.4 1.8-1.1z"/><path d="m236.3 317.3c-.5.4-1.2.5-2 .5-2 0-3.1-1-3.1-3v-3.4h-1.3v-1.9h1.3v-2h2.4v2h2.1v1.9h-2.1v3.4c0 .7.4 1.1 1 1.1s.7-.1 1-.3z"/><path d="m236.8 313.5c0-2.5 1.9-4.3 4.6-4.3s4.6 1.8 4.6 4.3-1.9 4.3-4.6 4.3-4.6-1.8-4.6-4.3zm6.7 0c0-1.4-.9-2.3-2.1-2.3s-2.1.9-2.1 2.3.9 2.3 2.1 2.3 2.1-.9 2.1-2.3z"/><path d="m166.9 326.8v10.9h-2v-9.2h-2.3v-1.7z"/><path d="m169.1 332.3c0-3.6 2-5.6 4.5-5.6s4.5 2 4.5 5.6-2 5.6-4.5 5.6-4.5-2-4.5-5.6zm7 0c0-2.6-1-3.8-2.5-3.8s-2.5 1.2-2.5 3.8 1 3.8 2.5 3.8 2.5-1.2 2.5-3.8z"/><path d="m181.8 336.5c0 .3 0 .6-.4 1.3l-.8 2.2h-1.3l.6-2.4c-.4-.2-.7-.6-.7-1.1s.5-1.3 1.3-1.3 1.3.5 1.3 1.3z"/><path d="m182.9 332.3c0-3.6 2-5.6 4.5-5.6s4.5 2 4.5 5.6-2 5.6-4.5 5.6-4.5-2-4.5-5.6zm7.1 0c0-2.6-1-3.8-2.5-3.8s-2.5 1.2-2.5 3.8 1 3.8 2.5 3.8 2.5-1.2 2.5-3.8z"/><path d="m193.4 332.3c0-3.6 2-5.6 4.5-5.6s4.5 2 4.5 5.6-2 5.6-4.5 5.6-4.5-2-4.5-5.6zm7 0c0-2.6-1-3.8-2.5-3.8s-2.5 1.2-2.5 3.8 1 3.8 2.5 3.8 2.5-1.2 2.5-3.8z"/><path d="m203.8 332.3c0-3.6 2-5.6 4.5-5.6s4.5 2 4.5 5.6-2 5.6-4.5 5.6-4.5-2-4.5-5.6zm7 0c0-2.6-1-3.8-2.5-3.8s-2.5 1.2-2.5 3.8 1 3.8 2.5 3.8 2.5-1.2 2.5-3.8z"/><path d="m227.9 333.6c0 2.6-1.8 4.2-4.2 4.2s-2-.4-2.7-1.1v4h-1.9v-11.3h1.8v1.1c.7-.8 1.6-1.2 2.7-1.2 2.4 0 4.2 1.7 4.2 4.2zm-2 0c0-1.6-1.1-2.6-2.4-2.6s-2.5 1-2.5 2.6 1.1 2.6 2.5 2.6 2.4-1 2.4-2.6z"/><path d="m237.7 329.4v8.3h-1.8v-1.1c-.6.8-1.6 1.2-2.7 1.2-2.1 0-3.6-1.2-3.6-3.7v-4.7h1.9v4.5c0 1.5.7 2.2 1.9 2.2s2.3-.8 2.3-2.5v-4.2h1.9z"/><path d="m248.4 333v4.7h-1.9v-4.5c0-1.5-.7-2.2-2-2.2s-2.3.8-2.3 2.5v4.2h-1.9v-8.3h1.8v1.1c.6-.8 1.6-1.2 2.9-1.2 2 0 3.5 1.1 3.5 3.6z"/><path d="m255.9 337.3c-.5.4-1.2.6-1.9.6-1.8 0-2.9-1-2.9-2.8v-4h-1.4v-1.6h1.4v-1.9h1.9v1.9h2.2v1.6h-2.2v3.9c0 .8.4 1.2 1.1 1.2s.8-.1 1.1-.3l.5 1.4z"/><path d="m256.5 333.6c0-2.5 1.9-4.2 4.4-4.2s4.4 1.8 4.4 4.2-1.8 4.2-4.4 4.2-4.4-1.8-4.4-4.2zm6.9 0c0-1.6-1.1-2.6-2.5-2.6s-2.4 1-2.4 2.6 1.1 2.6 2.4 2.6 2.5-1 2.5-2.6z"/><path d="m266.2 336.9.7-1.5c.7.5 1.8.8 2.9.8s1.7-.3 1.7-.9c0-1.6-5.1 0-5.1-3.4s1.4-2.6 3.6-2.6 2.4.3 3.1.7l-.7 1.5c-.8-.5-1.6-.6-2.4-.6-1.2 0-1.7.4-1.7.9 0 1.7 5.1.2 5.1 3.4s-1.4 2.6-3.8 2.6-2.8-.4-3.5-.9z"/><path d="m320.8 161.8h4.9c3.5 0 6 2.1 6 5.4s-2.4 5.4-6 5.4h-4.9v-10.9zm4.8 8.8c2.2 0 3.6-1.3 3.6-3.4s-1.4-3.4-3.6-3.4h-2.3v6.7h2.3z"/><path d="m341.5 169.2h-6.3c.2 1 1.1 1.7 2.4 1.7s1.5-.3 2.1-.8l1.3 1.4c-.8.9-1.9 1.3-3.4 1.3-2.9 0-4.8-1.8-4.8-4.3s1.9-4.3 4.4-4.3 4.3 1.6 4.3 4.3 0 .5 0 .7zm-6.3-1.4h4.1c-.2-1.1-1-1.7-2-1.7s-1.9.7-2.1 1.7z"/><path d="m342.4 171.9.8-1.7c.7.5 1.9.8 2.9.8s1.5-.3 1.5-.8c0-1.4-5 0-5-3.3s1.4-2.7 3.9-2.7 2.4.3 3.2.7l-.8 1.7c-.8-.5-1.6-.6-2.4-.6-1.1 0-1.5.3-1.5.8 0 1.4 5 0 5 3.3s-1.4 2.7-3.9 2.7-2.8-.4-3.6-.9z"/><path d="m356.8 172.3c-.5.4-1.2.5-2 .5-2 0-3.1-1-3.1-3v-3.4h-1.3v-1.9h1.3v-2h2.4v2h2.1v1.9h-2.1v3.4c0 .7.4 1.1 1 1.1s.7-.1 1-.3z"/><path d="m365.6 167.9v4.8h-2.3v-1c-.4.8-1.3 1.2-2.5 1.2-2 0-3.1-1.1-3.1-2.5s1-2.5 3.6-2.5h1.9c0-1-.6-1.6-1.9-1.6s-1.8.3-2.4.8l-.9-1.7c.9-.7 2.3-1 3.6-1 2.5 0 4 1.2 4 3.7zm-2.5 2.2v-.9h-1.7c-1.1 0-1.5.4-1.5 1s.5 1 1.4 1 1.5-.4 1.8-1.1z"/><path d="m367.2 168.5c0-2.5 1.9-4.3 4.7-4.3s3.1.8 3.7 2.1l-1.9 1c-.4-.8-1.1-1.1-1.9-1.1-1.2 0-2.2.9-2.2 2.3s1 2.3 2.2 2.3 1.4-.3 1.9-1.1l1.9 1c-.6 1.3-2 2.1-3.7 2.1-2.7 0-4.7-1.8-4.7-4.3z"/><path d="m384.4 167.9v4.8h-2.3v-1c-.4.8-1.3 1.2-2.5 1.2-2 0-3.1-1.1-3.1-2.5s1-2.5 3.6-2.5h1.9c0-1-.6-1.6-1.9-1.6s-1.8.3-2.4.8l-.9-1.7c.9-.7 2.3-1 3.6-1 2.5 0 4 1.2 4 3.7zm-2.5 2.2v-.9h-1.7c-1.1 0-1.5.4-1.5 1s.5 1 1.4 1 1.5-.4 1.8-1.1z"/><path d="m395.1 161.2v11.5h-2.3v-1c-.6.7-1.5 1.1-2.6 1.1-2.4 0-4.2-1.7-4.2-4.3s1.8-4.3 4.2-4.3 1.9.3 2.5 1v-4zm-2.3 7.3c0-1.4-.9-2.3-2.1-2.3s-2.1.9-2.1 2.3.9 2.3 2.1 2.3 2.1-.9 2.1-2.3z"/><path d="m396.8 168.5c0-2.5 1.9-4.3 4.6-4.3s4.6 1.8 4.6 4.3-1.9 4.3-4.6 4.3-4.6-1.8-4.6-4.3zm6.7 0c0-1.4-.9-2.3-2.1-2.3s-2.1.9-2.1 2.3.9 2.3 2.1 2.3 2.1-.9 2.1-2.3z"/><path d="m314.5 191v1.7h-8v-1.3l4.3-4.1c1.1-1 1.2-1.6 1.2-2.2 0-1-.7-1.6-2-1.6s-1.9.4-2.5 1.1l-1.4-1.1c.8-1.1 2.3-1.8 4.1-1.8s3.9 1.2 3.9 3.1-.3 2-1.8 3.4l-2.9 2.8z"/><path d="m315.7 187.3c0-3.6 2-5.6 4.5-5.6s4.5 2 4.5 5.6-2 5.6-4.5 5.6-4.5-2-4.5-5.6zm7 0c0-2.6-1-3.8-2.5-3.8s-2.5 1.2-2.5 3.8 1 3.8 2.5 3.8 2.5-1.2 2.5-3.8z"/><path d="m328.4 191.5c0 .3 0 .6-.4 1.3l-.8 2.2h-1.3l.6-2.4c-.4-.2-.7-.6-.7-1.1s.5-1.3 1.3-1.3 1.3.5 1.3 1.3z"/><path d="m329.5 187.3c0-3.6 2-5.6 4.5-5.6s4.5 2 4.5 5.6-2 5.6-4.5 5.6-4.5-2-4.5-5.6zm7 0c0-2.6-1-3.8-2.5-3.8s-2.5 1.2-2.5 3.8 1 3.8 2.5 3.8 2.5-1.2 2.5-3.8z"/><path d="m339.9 187.3c0-3.6 2-5.6 4.5-5.6s4.5 2 4.5 5.6-2 5.6-4.5 5.6-4.5-2-4.5-5.6zm7.1 0c0-2.6-1-3.8-2.5-3.8s-2.5 1.2-2.5 3.8 1 3.8 2.5 3.8 2.5-1.2 2.5-3.8z"/><path d="m350.4 187.3c0-3.6 2-5.6 4.5-5.6s4.5 2 4.5 5.6-2 5.6-4.5 5.6-4.5-2-4.5-5.6zm7 0c0-2.6-1-3.8-2.5-3.8s-2.5 1.2-2.5 3.8 1 3.8 2.5 3.8 2.5-1.2 2.5-3.8z"/><path d="m374.4 188.6c0 2.6-1.8 4.2-4.2 4.2s-2-.4-2.7-1.1v4h-1.9v-11.3h1.8v1.1c.7-.8 1.6-1.2 2.7-1.2 2.4 0 4.2 1.7 4.2 4.2zm-1.9 0c0-1.6-1.1-2.6-2.4-2.6s-2.5 1-2.5 2.6 1.1 2.6 2.5 2.6 2.4-1 2.4-2.6z"/><path d="m384.3 184.4v8.3h-1.8v-1.1c-.6.8-1.6 1.2-2.7 1.2-2.1 0-3.6-1.2-3.6-3.7v-4.7h1.9v4.5c0 1.5.7 2.2 1.9 2.2s2.3-.8 2.3-2.5v-4.2h1.9z"/><path d="m395 188v4.7h-1.9v-4.5c0-1.5-.7-2.2-2-2.2s-2.3.8-2.3 2.5v4.2h-1.9v-8.3h1.8v1.1c.6-.8 1.6-1.2 2.9-1.2 2 0 3.5 1.1 3.5 3.6z"/><path d="m402.4 192.3c-.5.4-1.2.6-1.9.6-1.8 0-2.9-1-2.9-2.8v-4h-1.4v-1.6h1.4v-1.9h1.9v1.9h2.2v1.6h-2.2v3.9c0 .8.4 1.2 1.1 1.2s.8-.1 1.1-.3l.5 1.4z"/><path d="m403.1 188.6c0-2.5 1.9-4.2 4.4-4.2s4.4 1.8 4.4 4.2-1.8 4.2-4.4 4.2-4.4-1.8-4.4-4.2zm6.8 0c0-1.6-1.1-2.6-2.5-2.6s-2.4 1-2.4 2.6 1.1 2.6 2.4 2.6 2.5-1 2.5-2.6z"/><path d="m412.8 191.9.7-1.5c.7.5 1.8.8 2.9.8s1.7-.3 1.7-.9c0-1.6-5.1 0-5.1-3.4s1.4-2.6 3.6-2.6 2.4.3 3.1.7l-.7 1.5c-.8-.5-1.6-.6-2.4-.6-1.2 0-1.7.4-1.7.9 0 1.7 5.1.2 5.1 3.4s-1.4 2.6-3.8 2.6-2.8-.4-3.5-.9z"/><path d="m464.9 306.8h2.5v10.9h-2.5z"/><path d="m478.3 312.9v4.8h-2.4v-4.4c0-1.3-.6-2-1.7-2s-2 .7-2 2.2v4.1h-2.4v-8.3h2.3v1c.7-.7 1.6-1.1 2.8-1.1 2 0 3.5 1.1 3.5 3.7z"/><path d="m485.9 317.3c-.5.4-1.2.5-2 .5-2 0-3.1-1-3.1-3v-3.4h-1.3v-1.9h1.3v-2h2.4v2h2.1v1.9h-2.1v3.4c0 .7.4 1.1 1 1.1s.7-.1 1-.3z"/><path d="m495.1 314.2h-6.3c.2 1 1.1 1.7 2.4 1.7s1.5-.3 2.1-.8l1.3 1.4c-.8.9-1.9 1.3-3.4 1.3-2.9 0-4.8-1.8-4.8-4.3s1.9-4.3 4.4-4.3 4.3 1.6 4.3 4.3 0 .5 0 .7zm-6.3-1.4h4.1c-.2-1.1-1-1.7-2-1.7s-1.9.7-2.1 1.7z"/><path d="m501.9 309.2v2.2c-.2 0-.4 0-.5 0-1.3 0-2.2.7-2.2 2.3v3.9h-2.4v-8.3h2.3v1.1c.6-.8 1.6-1.2 2.9-1.2z"/><path d="m517.5 312.9v4.8h-2.4v-4.4c0-1.3-.6-2-1.6-2s-1.8.7-1.8 2.2v4.2h-2.4v-4.4c0-1.3-.6-2-1.6-2s-1.8.7-1.8 2.2v4.2h-2.4v-8.3h2.3v1c.6-.7 1.6-1.1 2.6-1.1s2.2.5 2.7 1.4c.7-.9 1.8-1.4 3-1.4 2 0 3.4 1.1 3.4 3.7z"/><path d="m527.9 314.2h-6.3c.2 1 1.1 1.7 2.4 1.7s1.5-.3 2.1-.8l1.3 1.4c-.8.9-1.9 1.3-3.4 1.3-2.9 0-4.8-1.8-4.8-4.3s1.9-4.3 4.4-4.3 4.3 1.6 4.3 4.3 0 .5 0 .7zm-6.4-1.4h4.1c-.2-1.1-1-1.7-2-1.7s-1.9.7-2.1 1.7z"/><path d="m538 306.2v11.5h-2.3v-1c-.6.7-1.5 1.1-2.6 1.1-2.4 0-4.2-1.7-4.2-4.3s1.8-4.3 4.2-4.3 1.9.3 2.5 1v-4zm-2.4 7.3c0-1.4-.9-2.3-2.1-2.3s-2.1.9-2.1 2.3.9 2.3 2.1 2.3 2.1-.9 2.1-2.3z"/><path d="m540 306.8c0-.8.6-1.3 1.5-1.3s1.5.6 1.5 1.3-.6 1.4-1.5 1.4-1.5-.6-1.5-1.3zm.2 2.6h2.4v8.3h-2.4z"/><path d="m544.3 313.5c0-2.5 1.9-4.3 4.6-4.3s4.6 1.8 4.6 4.3-1.9 4.3-4.6 4.3-4.6-1.8-4.6-4.3zm6.7 0c0-1.4-.9-2.3-2.1-2.3s-2.1.9-2.1 2.3.9 2.3 2.1 2.3 2.1-.9 2.1-2.3z"/><path d="m460.4 334.4c0 1.8-1.4 3.4-4.3 3.4s-3.1-.5-4.1-1.3l.9-1.6c.8.7 2 1.1 3.2 1.1s2.3-.6 2.3-1.6-.7-1.6-2.4-1.6h-1v-1.4l2.5-2.9h-4.9v-1.7h7.4v1.3l-2.6 3.1c2 .3 3.1 1.5 3.1 3.1z"/><path d="m461.7 332.3c0-3.6 2-5.6 4.5-5.6s4.5 2 4.5 5.6-2 5.6-4.5 5.6-4.5-2-4.5-5.6zm7 0c0-2.6-1-3.8-2.5-3.8s-2.5 1.2-2.5 3.8 1 3.8 2.5 3.8 2.5-1.2 2.5-3.8z"/><path d="m474.4 336.5c0 .3 0 .6-.4 1.3l-.8 2.2h-1.3l.6-2.4c-.4-.2-.7-.6-.7-1.1s.5-1.3 1.3-1.3 1.3.5 1.3 1.3z"/><path d="m475.5 332.3c0-3.6 2-5.6 4.5-5.6s4.5 2 4.5 5.6-2 5.6-4.5 5.6-4.5-2-4.5-5.6zm7.1 0c0-2.6-1-3.8-2.5-3.8s-2.5 1.2-2.5 3.8 1 3.8 2.5 3.8 2.5-1.2 2.5-3.8z"/><path d="m486 332.3c0-3.6 2-5.6 4.5-5.6s4.5 2 4.5 5.6-2 5.6-4.5 5.6-4.5-2-4.5-5.6zm7 0c0-2.6-1-3.8-2.5-3.8s-2.5 1.2-2.5 3.8 1 3.8 2.5 3.8 2.5-1.2 2.5-3.8z"/><path d="m496.4 332.3c0-3.6 2-5.6 4.5-5.6s4.5 2 4.5 5.6-2 5.6-4.5 5.6-4.5-2-4.5-5.6zm7 0c0-2.6-1-3.8-2.5-3.8s-2.5 1.2-2.5 3.8 1 3.8 2.5 3.8 2.5-1.2 2.5-3.8z"/><path d="m520.5 333.6c0 2.6-1.8 4.2-4.2 4.2s-2-.4-2.7-1.1v4h-1.9v-11.3h1.8v1.1c.7-.8 1.6-1.2 2.7-1.2 2.4 0 4.2 1.7 4.2 4.2zm-2 0c0-1.6-1.1-2.6-2.4-2.6s-2.5 1-2.5 2.6 1.1 2.6 2.5 2.6 2.4-1 2.4-2.6z"/><path d="m530.4 329.4v8.3h-1.8v-1.1c-.6.8-1.6 1.2-2.7 1.2-2.1 0-3.6-1.2-3.6-3.7v-4.7h1.9v4.5c0 1.5.7 2.2 1.9 2.2s2.3-.8 2.3-2.5v-4.2h1.9z"/><path d="m541 333v4.7h-1.9v-4.5c0-1.5-.7-2.2-2-2.2s-2.3.8-2.3 2.5v4.2h-1.9v-8.3h1.8v1.1c.6-.8 1.6-1.2 2.9-1.2 2 0 3.5 1.1 3.5 3.6z"/><path d="m548.5 337.3c-.5.4-1.2.6-1.9.6-1.8 0-2.9-1-2.9-2.8v-4h-1.4v-1.6h1.4v-1.9h1.9v1.9h2.2v1.6h-2.2v3.9c0 .8.4 1.2 1.1 1.2s.8-.1 1.1-.3l.5 1.4z"/><path d="m549.1 333.6c0-2.5 1.9-4.2 4.4-4.2s4.4 1.8 4.4 4.2-1.8 4.2-4.4 4.2-4.4-1.8-4.4-4.2zm6.9 0c0-1.6-1.1-2.6-2.5-2.6s-2.4 1-2.4 2.6 1.1 2.6 2.4 2.6 2.5-1 2.5-2.6z"/><path d="m558.9 336.9.7-1.5c.7.5 1.8.8 2.9.8s1.7-.3 1.7-.9c0-1.6-5.1 0-5.1-3.4s1.4-2.6 3.6-2.6 2.4.3 3.1.7l-.7 1.5c-.8-.5-1.6-.6-2.4-.6-1.2 0-1.7.4-1.7.9 0 1.7 5.1.2 5.1 3.4s-1.4 2.6-3.8 2.6-2.8-.4-3.5-.9z"/><path d="m623 170.4h-5l-1 2.3h-2.6l4.8-10.9h2.5l4.9 10.9h-2.6zm-.8-1.9-1.7-4.2-1.7 4.2z"/><path d="m635.4 164.4-3.5 8.3h-2.5l-3.5-8.3h2.5l2.3 5.7 2.4-5.7z"/><path d="m643.5 167.9v4.8h-2.3v-1c-.4.8-1.3 1.2-2.5 1.2-2 0-3.1-1.1-3.1-2.5s1-2.5 3.6-2.5h1.9c0-1-.6-1.6-1.9-1.6s-1.8.3-2.4.8l-.9-1.7c.9-.7 2.3-1 3.6-1 2.5 0 4 1.2 4 3.7zm-2.4 2.2v-.9h-1.7c-1.1 0-1.5.4-1.5 1s.5 1 1.4 1 1.5-.4 1.8-1.1z"/><path d="m654.2 167.9v4.8h-2.4v-4.4c0-1.3-.6-2-1.7-2s-2 .7-2 2.2v4.1h-2.4v-8.3h2.3v1c.7-.7 1.6-1.1 2.8-1.1 2 0 3.5 1.1 3.5 3.7z"/><path d="m663.3 170.8v1.9h-7.4v-1.5l4.2-5h-4.1v-1.9h7.2v1.5l-4.2 5h4.4z"/><path d="m672.2 167.9v4.8h-2.3v-1c-.4.8-1.3 1.2-2.5 1.2-2 0-3.1-1.1-3.1-2.5s1-2.5 3.6-2.5h1.9c0-1-.6-1.6-1.9-1.6s-1.8.3-2.4.8l-.9-1.7c.9-.7 2.3-1 3.6-1 2.5 0 4 1.2 4 3.7zm-2.4 2.2v-.9h-1.7c-1.1 0-1.5.4-1.5 1s.5 1 1.4 1 1.5-.4 1.8-1.1z"/><path d="m683 161.2v11.5h-2.3v-1c-.6.7-1.5 1.1-2.6 1.1-2.4 0-4.2-1.7-4.2-4.3s1.8-4.3 4.2-4.3 1.9.3 2.5 1v-4zm-2.4 7.3c0-1.4-.9-2.3-2.1-2.3s-2.1.9-2.1 2.3.9 2.3 2.1 2.3 2.1-.9 2.1-2.3z"/><path d="m684.6 168.5c0-2.5 1.9-4.3 4.6-4.3s4.6 1.8 4.6 4.3-1.9 4.3-4.6 4.3-4.6-1.8-4.6-4.3zm6.7 0c0-1.4-.9-2.3-2.1-2.3s-2.1.9-2.1 2.3.9 2.3 2.1 2.3 2.1-.9 2.1-2.3z"/><path d="m607.6 190.2h-1.9v2.5h-2v-2.5h-6v-1.4l5.3-7h2.2l-5 6.7h3.5v-2.2h1.9v2.2h1.9v1.7z"/><path d="m608.4 187.3c0-3.6 2-5.6 4.5-5.6s4.5 2 4.5 5.6-2 5.6-4.5 5.6-4.5-2-4.5-5.6zm7 0c0-2.6-1-3.8-2.5-3.8s-2.5 1.2-2.5 3.8 1 3.8 2.5 3.8 2.5-1.2 2.5-3.8z"/><path d="m621.1 191.5c0 .3 0 .6-.4 1.3l-.8 2.2h-1.3l.6-2.4c-.4-.2-.7-.6-.7-1.1s.5-1.3 1.3-1.3 1.3.5 1.3 1.3z"/><path d="m622.2 187.3c0-3.6 2-5.6 4.5-5.6s4.5 2 4.5 5.6-2 5.6-4.5 5.6-4.5-2-4.5-5.6zm7.1 0c0-2.6-1-3.8-2.5-3.8s-2.5 1.2-2.5 3.8 1 3.8 2.5 3.8 2.5-1.2 2.5-3.8z"/><path d="m632.7 187.3c0-3.6 2-5.6 4.5-5.6s4.5 2 4.5 5.6-2 5.6-4.5 5.6-4.5-2-4.5-5.6zm7 0c0-2.6-1-3.8-2.5-3.8s-2.5 1.2-2.5 3.8 1 3.8 2.5 3.8 2.5-1.2 2.5-3.8z"/><path d="m643.1 187.3c0-3.6 2-5.6 4.5-5.6s4.5 2 4.5 5.6-2 5.6-4.5 5.6-4.5-2-4.5-5.6zm7 0c0-2.6-1-3.8-2.5-3.8s-2.5 1.2-2.5 3.8 1 3.8 2.5 3.8 2.5-1.2 2.5-3.8z"/><path d="m667.2 188.6c0 2.6-1.8 4.2-4.2 4.2s-2-.4-2.7-1.1v4h-1.9v-11.3h1.8v1.1c.7-.8 1.6-1.2 2.7-1.2 2.4 0 4.2 1.7 4.2 4.2zm-2 0c0-1.6-1.1-2.6-2.5-2.6s-2.5 1-2.5 2.6 1.1 2.6 2.5 2.6 2.5-1 2.5-2.6z"/><path d="m677.1 184.4v8.3h-1.8v-1.1c-.6.8-1.6 1.2-2.7 1.2-2.1 0-3.6-1.2-3.6-3.7v-4.7h1.9v4.5c0 1.5.7 2.2 1.9 2.2s2.3-.8 2.3-2.5v-4.2h1.9z"/><path d="m687.8 188v4.7h-1.9v-4.5c0-1.5-.7-2.2-2-2.2s-2.3.8-2.3 2.5v4.2h-1.9v-8.3h1.8v1.1c.6-.8 1.6-1.2 2.9-1.2 2 0 3.5 1.1 3.5 3.6z"/><path d="m695.2 192.3c-.5.4-1.2.6-1.9.6-1.8 0-2.9-1-2.9-2.8v-4h-1.4v-1.6h1.4v-1.9h1.9v1.9h2.2v1.6h-2.2v3.9c0 .8.4 1.2 1.1 1.2s.8-.1 1.1-.3l.5 1.4z"/><path d="m695.8 188.6c0-2.5 1.9-4.2 4.4-4.2s4.4 1.8 4.4 4.2-1.8 4.2-4.4 4.2-4.4-1.8-4.4-4.2zm6.9 0c0-1.6-1.1-2.6-2.5-2.6s-2.5 1-2.5 2.6 1.1 2.6 2.5 2.6 2.5-1 2.5-2.6z"/><path d="m705.6 191.9.7-1.5c.7.5 1.8.8 2.9.8s1.7-.3 1.7-.9c0-1.6-5.1 0-5.1-3.4s1.4-2.6 3.6-2.6 2.4.3 3.1.7l-.7 1.5c-.8-.5-1.6-.6-2.4-.6-1.2 0-1.7.4-1.7.9 0 1.7 5.1.2 5.1 3.4s-1.4 2.6-3.8 2.6-2.8-.4-3.5-.9z"/><path d="m764.3 310.8c0 2.4-1.8 3.9-4.7 3.9h-2.2v3h-2.5v-10.9h4.7c2.9 0 4.7 1.5 4.7 3.9zm-2.5 0c0-1.2-.8-1.9-2.3-1.9h-2v3.8h2c1.5 0 2.3-.7 2.3-1.9z"/><path d="m771.1 309.2v2.2c-.2 0-.4 0-.5 0-1.3 0-2.2.7-2.2 2.3v3.9h-2.4v-8.3h2.3v1.1c.6-.8 1.6-1.2 2.9-1.2z"/><path d="m771.8 313.5c0-2.5 1.9-4.3 4.6-4.3s4.6 1.8 4.6 4.3-1.9 4.3-4.6 4.3-4.6-1.8-4.6-4.3zm6.7 0c0-1.4-.9-2.3-2.1-2.3s-2.1.9-2.1 2.3.9 2.3 2.1 2.3 2.1-.9 2.1-2.3z"/><path d="m785.3 309.5h2.1v1.9h-2.1v6.3h-2.4v-6.3h-1.3v-1.9h1.3v-.4c0-1.9 1.1-3.1 3.2-3.1s1.4.1 1.8.4l-.6 1.8c-.3-.2-.6-.3-1-.3-.7 0-1.1.4-1.1 1.2v.4z"/><path d="m796.6 314.2h-6.3c.2 1 1.1 1.7 2.4 1.7s1.5-.3 2.1-.8l1.3 1.4c-.8.9-1.9 1.3-3.4 1.3-2.9 0-4.8-1.8-4.8-4.3s1.9-4.3 4.4-4.3 4.3 1.6 4.3 4.3 0 .5 0 .7zm-6.3-1.4h4.1c-.2-1.1-1-1.7-2-1.7s-1.9.7-2.1 1.7z"/><path d="m797.5 316.9.8-1.7c.7.5 1.9.8 2.9.8s1.5-.3 1.5-.8c0-1.4-5 0-5-3.3s1.4-2.7 3.9-2.7 2.4.3 3.2.7l-.8 1.7c-.8-.5-1.6-.6-2.4-.6-1.1 0-1.5.3-1.5.8 0 1.4 5 0 5 3.3s-1.4 2.7-3.9 2.7-2.8-.4-3.6-.9z"/><path d="m806.2 306.8c0-.8.6-1.3 1.5-1.3s1.5.6 1.5 1.3-.6 1.4-1.5 1.4-1.5-.6-1.5-1.3zm.3 2.6h2.4v8.3h-2.4z"/><path d="m810.5 313.5c0-2.5 1.9-4.3 4.6-4.3s4.6 1.8 4.6 4.3-1.9 4.3-4.6 4.3-4.6-1.8-4.6-4.3zm6.8 0c0-1.4-.9-2.3-2.1-2.3s-2.1.9-2.1 2.3.9 2.3 2.1 2.3 2.1-.9 2.1-2.3z"/><path d="m829.8 312.9v4.8h-2.4v-4.4c0-1.3-.6-2-1.7-2s-2 .7-2 2.2v4.1h-2.4v-8.3h2.3v1c.7-.7 1.6-1.1 2.8-1.1 2 0 3.5 1.1 3.5 3.7z"/><path d="m839.4 312.9v4.8h-2.3v-1c-.4.8-1.3 1.2-2.5 1.2-2 0-3.1-1.1-3.1-2.5s1-2.5 3.6-2.5h1.9c0-1-.6-1.6-1.9-1.6s-1.8.3-2.4.8l-.9-1.7c.9-.7 2.3-1 3.6-1 2.5 0 4 1.2 4 3.7zm-2.4 2.2v-.9h-1.7c-1.1 0-1.5.4-1.5 1s.5 1 1.4 1 1.5-.4 1.8-1.1z"/><path d="m841.6 306.2h2.4v11.5h-2.4z"/><path d="m751.6 334.4c0 1.9-1.4 3.5-4.3 3.5s-3.1-.5-4.1-1.3l.9-1.6c.8.7 2 1.1 3.2 1.1s2.3-.6 2.3-1.7-.7-1.7-2.9-1.7h-2.6l.6-5.9h6.4v1.7h-4.7l-.2 2.5h1c3.2 0 4.5 1.4 4.5 3.3z"/><path d="m752.7 332.3c0-3.6 2-5.6 4.5-5.6s4.5 2 4.5 5.6-2 5.6-4.5 5.6-4.5-2-4.5-5.6zm7.1 0c0-2.6-1-3.8-2.5-3.8s-2.5 1.2-2.5 3.8 1 3.8 2.5 3.8 2.5-1.2 2.5-3.8z"/><path d="m765.5 336.5c0 .3 0 .6-.4 1.3l-.8 2.2h-1.3l.6-2.4c-.4-.2-.7-.6-.7-1.1s.5-1.3 1.3-1.3 1.3.5 1.3 1.3z"/><path d="m766.6 332.3c0-3.6 2-5.6 4.5-5.6s4.5 2 4.5 5.6-2 5.6-4.5 5.6-4.5-2-4.5-5.6zm7 0c0-2.6-1-3.8-2.5-3.8s-2.5 1.2-2.5 3.8 1 3.8 2.5 3.8 2.5-1.2 2.5-3.8z"/><path d="m777 332.3c0-3.6 2-5.6 4.5-5.6s4.5 2 4.5 5.6-2 5.6-4.5 5.6-4.5-2-4.5-5.6zm7 0c0-2.6-1-3.8-2.5-3.8s-2.5 1.2-2.5 3.8 1 3.8 2.5 3.8 2.5-1.2 2.5-3.8z"/><path d="m787.4 332.3c0-3.6 2-5.6 4.5-5.6s4.5 2 4.5 5.6-2 5.6-4.5 5.6-4.5-2-4.5-5.6zm7.1 0c0-2.6-1-3.8-2.5-3.8s-2.5 1.2-2.5 3.8 1 3.8 2.5 3.8 2.5-1.2 2.5-3.8z"/><path d="m811.5 333.6c0 2.6-1.8 4.2-4.2 4.2s-2-.4-2.7-1.1v4h-1.9v-11.3h1.8v1.1c.7-.8 1.6-1.2 2.7-1.2 2.4 0 4.2 1.7 4.2 4.2zm-1.9 0c0-1.6-1.1-2.6-2.5-2.6s-2.5 1-2.5 2.6 1.1 2.6 2.5 2.6 2.5-1 2.5-2.6z"/><path d="m821.4 329.4v8.3h-1.8v-1.1c-.6.8-1.6 1.2-2.7 1.2-2.1 0-3.6-1.2-3.6-3.7v-4.7h1.9v4.5c0 1.5.7 2.2 1.9 2.2s2.3-.8 2.3-2.5v-4.2h1.9z"/><path d="m832.1 333v4.7h-1.9v-4.5c0-1.5-.7-2.2-2-2.2s-2.3.8-2.3 2.5v4.2h-1.9v-8.3h1.8v1.1c.6-.8 1.6-1.2 2.9-1.2 2 0 3.5 1.1 3.5 3.6z"/><path d="m839.5 337.3c-.5.4-1.2.6-1.9.6-1.8 0-2.9-1-2.9-2.8v-4h-1.4v-1.6h1.4v-1.9h1.9v1.9h2.2v1.6h-2.2v3.9c0 .8.4 1.2 1.1 1.2s.8-.1 1.1-.3l.5 1.4z"/><path d="m840.2 333.6c0-2.5 1.9-4.2 4.4-4.2s4.4 1.8 4.4 4.2-1.8 4.2-4.4 4.2-4.4-1.8-4.4-4.2zm6.8 0c0-1.6-1.1-2.6-2.5-2.6s-2.4 1-2.4 2.6 1.1 2.6 2.4 2.6 2.5-1 2.5-2.6z"/><path d="m849.9 336.9.7-1.5c.7.5 1.8.8 2.9.8s1.7-.3 1.7-.9c0-1.6-5.1 0-5.1-3.4s1.4-2.6 3.6-2.6 2.4.3 3.1.7l-.7 1.5c-.8-.5-1.6-.6-2.4-.6-1.2 0-1.7.4-1.7.9 0 1.7 5.1.2 5.1 3.4s-1.4 2.6-3.8 2.6-2.8-.4-3.5-.9z"/><path d="m922.8 170.7v2h-8.4v-10.9h8.2v2h-5.7v2.4h5v2h-5v2.5z"/><path d="m929.8 172.7-1.8-2.6-1.9 2.6h-2.6l3.2-4.2-3.1-4.1h2.7l1.8 2.4 1.8-2.4h2.6l-3.1 4.1 3.2 4.3h-2.7z"/><path d="m942.8 168.5c0 2.6-1.8 4.3-4.2 4.3s-1.9-.3-2.5-1v3.9h-2.4v-11.3h2.3v1c.6-.7 1.5-1.1 2.6-1.1 2.3 0 4.2 1.7 4.2 4.3zm-2.4 0c0-1.4-.9-2.3-2.1-2.3s-2.1.9-2.1 2.3.9 2.3 2.1 2.3 2.1-.9 2.1-2.3z"/><path d="m952.5 169.2h-6.3c.2 1 1.1 1.7 2.4 1.7s1.5-.3 2.1-.8l1.3 1.4c-.8.9-1.9 1.3-3.4 1.3-2.9 0-4.8-1.8-4.8-4.3s1.9-4.3 4.4-4.3 4.3 1.6 4.3 4.3 0 .5 0 .7zm-6.3-1.4h4.1c-.2-1.1-1-1.7-2-1.7s-1.9.7-2.1 1.7z"/><path d="m959.4 164.2v2.2c-.2 0-.4 0-.5 0-1.3 0-2.2.7-2.2 2.3v3.9h-2.4v-8.3h2.3v1.1c.6-.8 1.6-1.2 2.9-1.2z"/><path d="m966.5 172.3c-.5.4-1.2.5-2 .5-2 0-3.1-1-3.1-3v-3.4h-1.3v-1.9h1.3v-2h2.4v2h2.1v1.9h-2.1v3.4c0 .7.4 1.1 1 1.1s.7-.1 1-.3z"/><path d="m967 168.5c0-2.5 1.9-4.3 4.6-4.3s4.6 1.8 4.6 4.3-1.9 4.3-4.6 4.3-4.6-1.8-4.6-4.3zm6.7 0c0-1.4-.9-2.3-2.1-2.3s-2.1.9-2.1 2.3.9 2.3 2.1 2.3 2.1-.9 2.1-2.3z"/><path d="m896.9 189.3c0 2.2-1.8 3.5-4 3.5s-4.7-1.9-4.7-5.4 2.2-5.8 5.3-5.8 2.1.2 2.9.7l-.7 1.5c-.6-.4-1.3-.5-2.1-.5-2 0-3.3 1.3-3.3 3.7.7-.7 1.7-1.1 2.9-1.1 2.1 0 3.7 1.3 3.7 3.3zm-1.9.1c0-1.1-.9-1.8-2.2-1.8s-2.2.8-2.2 1.9.8 1.8 2.2 1.8 2.1-.7 2.1-1.8z"/><path d="m898 187.3c0-3.6 2-5.6 4.5-5.6s4.5 2 4.5 5.6-2 5.6-4.5 5.6-4.5-2-4.5-5.6zm7 0c0-2.6-1-3.8-2.5-3.8s-2.5 1.2-2.5 3.8 1 3.8 2.5 3.8 2.5-1.2 2.5-3.8z"/><path d="m910.7 191.5c0 .3 0 .6-.4 1.3l-.8 2.2h-1.3l.6-2.4c-.4-.2-.7-.6-.7-1.1s.5-1.3 1.3-1.3 1.3.5 1.3 1.3z"/><path d="m911.8 187.3c0-3.6 2-5.6 4.5-5.6s4.5 2 4.5 5.6-2 5.6-4.5 5.6-4.5-2-4.5-5.6zm7.1 0c0-2.6-1-3.8-2.5-3.8s-2.5 1.2-2.5 3.8 1 3.8 2.5 3.8 2.5-1.2 2.5-3.8z"/><path d="m922.3 187.3c0-3.6 2-5.6 4.5-5.6s4.5 2 4.5 5.6-2 5.6-4.5 5.6-4.5-2-4.5-5.6zm7 0c0-2.6-1-3.8-2.5-3.8s-2.5 1.2-2.5 3.8 1 3.8 2.5 3.8 2.5-1.2 2.5-3.8z"/><path d="m932.7 187.3c0-3.6 2-5.6 4.5-5.6s4.5 2 4.5 5.6-2 5.6-4.5 5.6-4.5-2-4.5-5.6zm7 0c0-2.6-1-3.8-2.5-3.8s-2.5 1.2-2.5 3.8 1 3.8 2.5 3.8 2.5-1.2 2.5-3.8z"/><path d="m956.8 188.6c0 2.6-1.8 4.2-4.2 4.2s-2-.4-2.7-1.1v4h-1.9v-11.3h1.8v1.1c.7-.8 1.6-1.2 2.7-1.2 2.4 0 4.2 1.7 4.2 4.2zm-2 0c0-1.6-1.1-2.6-2.4-2.6s-2.5 1-2.5 2.6 1.1 2.6 2.5 2.6 2.4-1 2.4-2.6z"/><path d="m966.7 184.4v8.3h-1.8v-1.1c-.6.8-1.6 1.2-2.7 1.2-2.1 0-3.6-1.2-3.6-3.7v-4.7h1.9v4.5c0 1.5.7 2.2 1.9 2.2s2.3-.8 2.3-2.5v-4.2h1.9z"/><path d="m977.3 188v4.7h-1.9v-4.5c0-1.5-.7-2.2-2-2.2s-2.3.8-2.3 2.5v4.2h-1.9v-8.3h1.8v1.1c.6-.8 1.6-1.2 2.9-1.2 2 0 3.5 1.1 3.5 3.6z"/><path d="m984.8 192.3c-.5.4-1.2.6-1.9.6-1.8 0-2.9-1-2.9-2.8v-4h-1.4v-1.6h1.4v-1.9h1.9v1.9h2.2v1.6h-2.2v3.9c0 .8.4 1.2 1.1 1.2s.8-.1 1.1-.3l.5 1.4z"/><path d="m985.4 188.6c0-2.5 1.9-4.2 4.4-4.2s4.4 1.8 4.4 4.2-1.8 4.2-4.4 4.2-4.4-1.8-4.4-4.2zm6.9 0c0-1.6-1.1-2.6-2.5-2.6s-2.4 1-2.4 2.6 1.1 2.6 2.4 2.6 2.5-1 2.5-2.6z"/><path d="m995.2 191.9.7-1.5c.7.5 1.8.8 2.9.8s1.7-.3 1.7-.9c0-1.6-5.1 0-5.1-3.4s1.4-2.6 3.6-2.6 2.4.3 3.1.7l-.7 1.5c-.8-.5-1.6-.6-2.4-.6-1.2 0-1.7.4-1.7.9 0 1.7 5.1.2 5.1 3.4s-1.4 2.6-3.8 2.6-2.8-.4-3.5-.9z"/></g><path d="m1069.2 317.7v-6.5s-3.2 5.4-3.2 5.4h-1.1l-3.2-5.2v6.4h-2.4v-10.9h2.1l4.1 6.7 4-6.7h2.1v10.9s-2.3 0-2.3 0z"/><path d="m1081.3 312.9v4.8h-2.3v-1c-.4.8-1.3 1.2-2.5 1.2-2 0-3.1-1.1-3.1-2.5s1-2.5 3.6-2.5h1.9c0-1-.6-1.6-1.9-1.6s-1.8.3-2.4.8l-.9-1.7c.9-.7 2.3-1 3.6-1 2.5 0 4 1.2 4 3.7zm-2.4 2.2v-.9h-1.7c-1.1 0-1.5.4-1.5 1s.5 1 1.4 1 1.5-.4 1.8-1.1z"/><path d="m1091.7 314.2h-6.3c.2 1 1.1 1.7 2.4 1.7s1.5-.3 2.1-.8l1.3 1.4c-.8.9-1.9 1.3-3.4 1.3-2.9 0-4.8-1.8-4.8-4.3s1.9-4.3 4.4-4.3 4.3 1.6 4.3 4.3 0 .5 0 .7zm-6.3-1.4h4.1c-.2-1.1-1-1.7-2-1.7s-1.9.7-2.1 1.7z"/><path d="m1092.5 316.9.8-1.7c.7.5 1.9.8 2.9.8s1.5-.3 1.5-.8c0-1.4-5 0-5-3.3s1.4-2.7 3.9-2.7 2.4.3 3.2.7l-.8 1.7c-.8-.5-1.6-.6-2.4-.6-1.1 0-1.5.3-1.5.8 0 1.4 5 0 5 3.3s-1.4 2.7-3.9 2.7-2.8-.4-3.6-.9z"/><path d="m1107 317.3c-.5.4-1.2.5-2 .5-2 0-3.1-1-3.1-3v-3.4h-1.3v-1.9h1.3v-2h2.4v2h2.1v1.9h-2.1v3.4c0 .7.4 1.1 1 1.1s.7-.1 1-.3z"/><path d="m1113.5 309.2v2.2c-.2 0-.4 0-.5 0-1.3 0-2.2.7-2.2 2.3v3.9h-2.4v-8.3h2.3v1.1c.6-.8 1.6-1.2 2.9-1.2z"/><path d="m1114.2 313.5c0-2.5 1.9-4.3 4.6-4.3s4.6 1.8 4.6 4.3-1.9 4.3-4.6 4.3-4.6-1.8-4.6-4.3zm6.8 0c0-1.4-.9-2.3-2.1-2.3s-2.1.9-2.1 2.3.9 2.3 2.1 2.3 2.1-.9 2.1-2.3z"/><path d="m1042.7 326.8v1.3l-4.2 9.5h-2.2l4.1-9.1h-4.3v1.8h-1.9v-3.5h8.4z"/><path d="m1043.6 332.3c0-3.6 2-5.6 4.5-5.6s4.5 2 4.5 5.6-2 5.6-4.5 5.6-4.5-2-4.5-5.6zm7 0c0-2.6-1-3.8-2.5-3.8s-2.5 1.2-2.5 3.8 1 3.8 2.5 3.8 2.5-1.2 2.5-3.8z"/><path d="m1056.3 336.5c0 .3 0 .6-.4 1.3l-.8 2.2h-1.3l.6-2.4c-.4-.2-.7-.6-.7-1.1s.5-1.3 1.3-1.3 1.3.5 1.3 1.3z"/><path d="m1057.4 332.3c0-3.6 2-5.6 4.5-5.6s4.5 2 4.5 5.6-2 5.6-4.5 5.6-4.5-2-4.5-5.6zm7.1 0c0-2.6-1-3.8-2.5-3.8s-2.5 1.2-2.5 3.8 1 3.8 2.5 3.8 2.5-1.2 2.5-3.8z"/><path d="m1067.9 332.3c0-3.6 2-5.6 4.5-5.6s4.5 2 4.5 5.6-2 5.6-4.5 5.6-4.5-2-4.5-5.6zm7 0c0-2.6-1-3.8-2.5-3.8s-2.5 1.2-2.5 3.8 1 3.8 2.5 3.8 2.5-1.2 2.5-3.8z"/><path d="m1078.3 332.3c0-3.6 2-5.6 4.5-5.6s4.5 2 4.5 5.6-2 5.6-4.5 5.6-4.5-2-4.5-5.6zm7 0c0-2.6-1-3.8-2.5-3.8s-2.5 1.2-2.5 3.8 1 3.8 2.5 3.8 2.5-1.2 2.5-3.8z"/><path d="m1102.4 333.6c0 2.6-1.8 4.2-4.2 4.2s-2-.4-2.7-1.1v4h-1.9v-11.3h1.8v1.1c.7-.8 1.6-1.2 2.7-1.2 2.4 0 4.2 1.7 4.2 4.2zm-2 0c0-1.6-1.1-2.6-2.4-2.6s-2.5 1-2.5 2.6 1.1 2.6 2.5 2.6 2.4-1 2.4-2.6z"/><path d="m1112.2 329.4v8.3h-1.8v-1.1c-.6.8-1.6 1.2-2.7 1.2-2.1 0-3.6-1.2-3.6-3.7v-4.7h1.9v4.5c0 1.5.7 2.2 1.9 2.2s2.3-.8 2.3-2.5v-4.2h1.9z"/><path d="m1122.9 333v4.7h-1.9v-4.5c0-1.5-.7-2.2-2-2.2s-2.3.8-2.3 2.5v4.2h-1.9v-8.3h1.8v1.1c.6-.8 1.6-1.2 2.9-1.2 2 0 3.5 1.1 3.5 3.6z"/><path d="m1130.4 337.3c-.5.4-1.2.6-1.9.6-1.8 0-2.9-1-2.9-2.8v-4h-1.4v-1.6h1.4v-1.9h1.9v1.9h2.2v1.6h-2.2v3.9c0 .8.4 1.2 1.1 1.2s.8-.1 1.1-.3l.5 1.4z"/><path d="m1131 333.6c0-2.5 1.9-4.2 4.4-4.2s4.4 1.8 4.4 4.2-1.8 4.2-4.4 4.2-4.4-1.8-4.4-4.2zm6.9 0c0-1.6-1.1-2.6-2.5-2.6s-2.4 1-2.4 2.6 1.1 2.6 2.4 2.6 2.5-1 2.5-2.6z"/><path d="m1140.7 336.9.7-1.5c.7.5 1.8.8 2.9.8s1.7-.3 1.7-.9c0-1.6-5.1 0-5.1-3.4s1.4-2.6 3.6-2.6 2.4.3 3.1.7l-.7 1.5c-.8-.5-1.6-.6-2.4-.6-1.2 0-1.7.4-1.7.9 0 1.7 5.1.2 5.1 3.4s-1.4 2.6-3.8 2.6-2.8-.4-3.5-.9z"/><path d="m1227.7 170.7v2h-8.4v-10.9h8.2v2h-5.7v2.4h5v2h-5v2.5zm-3.8-9.7h-1.9l2.1-2.2h2.6z"/><path d="m1229.5 161.2h2.4v11.5h-2.4z"/><path d="m1233.9 161.8c0-.8.6-1.3 1.5-1.3s1.5.6 1.5 1.3-.6 1.4-1.5 1.4-1.5-.6-1.5-1.3zm.3 2.6h2.4v8.3h-2.4z"/><path d="m1244.2 172.3c-.5.4-1.2.5-2 .5-2 0-3.1-1-3.1-3v-3.4h-1.3v-1.9h1.3v-2h2.4v2h2.1v1.9h-2.1v3.4c0 .7.4 1.1 1 1.1s.7-.1 1-.3z"/><path d="m1253.4 169.2h-6.3c.2 1 1.1 1.7 2.4 1.7s1.5-.3 2.1-.8l1.3 1.4c-.8.9-1.9 1.3-3.4 1.3-2.9 0-4.8-1.8-4.8-4.3s1.9-4.3 4.4-4.3 4.3 1.6 4.3 4.3 0 .5 0 .7zm-6.3-1.4h4.1c-.2-1.1-1-1.7-2-1.7s-1.9.7-2.1 1.7z"/><path d="m1187.9 189.6c0 2-1.8 3.3-4.4 3.3s-4.4-1.3-4.4-3.3.6-2.1 1.7-2.6c-.9-.5-1.3-1.3-1.3-2.3 0-1.9 1.6-3 4-3s4.1 1.2 4.1 3-.5 1.8-1.4 2.3c1.1.5 1.8 1.4 1.8 2.6zm-2-.1c0-1.1-.9-1.7-2.4-1.7s-2.4.7-2.4 1.7.9 1.8 2.4 1.8 2.4-.7 2.4-1.8zm-4.5-4.7c0 .9.8 1.5 2 1.5s2.1-.6 2.1-1.5-.8-1.5-2.1-1.5-2 .6-2 1.5z"/><path d="m1189.2 187.3c0-3.6 2-5.6 4.5-5.6s4.5 2 4.5 5.6-2 5.6-4.5 5.6-4.5-2-4.5-5.6zm7 0c0-2.6-1-3.8-2.5-3.8s-2.5 1.2-2.5 3.8 1 3.8 2.5 3.8 2.5-1.2 2.5-3.8z"/><path d="m1201.9 191.5c0 .3 0 .6-.4 1.3l-.8 2.2h-1.3l.6-2.4c-.4-.2-.7-.6-.7-1.1s.5-1.3 1.3-1.3 1.3.5 1.3 1.3z"/><path d="m1203 187.3c0-3.6 2-5.6 4.5-5.6s4.5 2 4.5 5.6-2 5.6-4.5 5.6-4.5-2-4.5-5.6zm7.1 0c0-2.6-1-3.8-2.5-3.8s-2.5 1.2-2.5 3.8 1 3.8 2.5 3.8 2.5-1.2 2.5-3.8z"/><path d="m1213.5 187.3c0-3.6 2-5.6 4.5-5.6s4.5 2 4.5 5.6-2 5.6-4.5 5.6-4.5-2-4.5-5.6zm7 0c0-2.6-1-3.8-2.5-3.8s-2.5 1.2-2.5 3.8 1 3.8 2.5 3.8 2.5-1.2 2.5-3.8z"/><path d="m1223.9 187.3c0-3.6 2-5.6 4.5-5.6s4.5 2 4.5 5.6-2 5.6-4.5 5.6-4.5-2-4.5-5.6zm7 0c0-2.6-1-3.8-2.5-3.8s-2.5 1.2-2.5 3.8 1 3.8 2.5 3.8 2.5-1.2 2.5-3.8z"/><path d="m1248 188.6c0 2.6-1.8 4.2-4.2 4.2s-2-.4-2.7-1.1v4h-1.9v-11.3h1.8v1.1c.7-.8 1.6-1.2 2.7-1.2 2.4 0 4.2 1.7 4.2 4.2zm-2 0c0-1.6-1.1-2.6-2.4-2.6s-2.5 1-2.5 2.6 1.1 2.6 2.5 2.6 2.4-1 2.4-2.6z"/><path d="m1257.8 184.4v8.3h-1.8v-1.1c-.6.8-1.6 1.2-2.7 1.2-2.1 0-3.6-1.2-3.6-3.7v-4.7h1.9v4.5c0 1.5.7 2.2 1.9 2.2s2.3-.8 2.3-2.5v-4.2h1.9z"/><path d="m1268.5 188v4.7h-1.9v-4.5c0-1.5-.7-2.2-2-2.2s-2.3.8-2.3 2.5v4.2h-1.9v-8.3h1.8v1.1c.6-.8 1.6-1.2 2.9-1.2 2 0 3.5 1.1 3.5 3.6z"/><path d="m1276 192.3c-.5.4-1.2.6-1.9.6-1.8 0-2.9-1-2.9-2.8v-4h-1.4v-1.6h1.4v-1.9h1.9v1.9h2.2v1.6h-2.2v3.9c0 .8.4 1.2 1.1 1.2s.8-.1 1.1-.3l.5 1.4z"/><path d="m1276.6 188.6c0-2.5 1.9-4.2 4.4-4.2s4.4 1.8 4.4 4.2-1.8 4.2-4.4 4.2-4.4-1.8-4.4-4.2zm6.9 0c0-1.6-1.1-2.6-2.5-2.6s-2.4 1-2.4 2.6 1.1 2.6 2.4 2.6 2.5-1 2.5-2.6z"/><path d="m1286.3 191.9.7-1.5c.7.5 1.8.8 2.9.8s1.7-.3 1.7-.9c0-1.6-5.1 0-5.1-3.4s1.4-2.6 3.6-2.6 2.4.3 3.1.7l-.7 1.5c-.8-.5-1.6-.6-2.4-.6-1.2 0-1.7.4-1.7.9 0 1.7 5.1.2 5.1 3.4s-1.4 2.6-3.8 2.6-2.8-.4-3.5-.9z"/><path d="m1368.9 306.8v10.9h-2.5v-4.4h-4.9v4.4h-2.5v-10.9h2.5v4.3h4.9v-4.3z"/><path d="m1379.5 314.2h-6.3c.2 1 1.1 1.7 2.4 1.7s1.5-.3 2.1-.8l1.3 1.4c-.8.9-1.9 1.3-3.4 1.3-2.9 0-4.8-1.8-4.8-4.3s1.9-4.3 4.4-4.3 4.3 1.6 4.3 4.3 0 .5 0 .7zm-6.4-1.4h4.1c-.2-1.1-1-1.7-2-1.7s-1.9.7-2.1 1.7zm2.5-4.5h-1.9l2.1-2.2h2.6z"/><path d="m1386.3 309.2v2.2c-.2 0-.4 0-.5 0-1.3 0-2.2.7-2.2 2.3v3.9h-2.4v-8.3h2.3v1.1c.6-.8 1.6-1.2 2.9-1.2z"/><path d="m1387 313.5c0-2.5 1.9-4.3 4.6-4.3s4.6 1.8 4.6 4.3-1.9 4.3-4.6 4.3-4.6-1.8-4.6-4.3zm6.8 0c0-1.4-.9-2.3-2.1-2.3s-2.1.9-2.1 2.3.9 2.3 2.1 2.3 2.1-.9 2.1-2.3z"/><path d="m1405.9 314.2h-6.3c.2 1 1.1 1.7 2.4 1.7s1.5-.3 2.1-.8l1.3 1.4c-.8.9-1.9 1.3-3.4 1.3-2.9 0-4.8-1.8-4.8-4.3s1.9-4.3 4.4-4.3 4.3 1.6 4.3 4.3 0 .5 0 .7zm-6.3-1.4h4.1c-.2-1.1-1-1.7-2-1.7s-1.9.7-2.1 1.7z"/><path d="m1333.6 332.1c0 3.7-2.2 5.8-5.3 5.8s-2.1-.2-2.9-.7l.7-1.5c.6.4 1.3.5 2.1.5 2 0 3.3-1.3 3.3-3.7-.7.7-1.7 1.1-2.9 1.1-2.1 0-3.7-1.3-3.7-3.3s1.8-3.5 4-3.5 4.7 1.9 4.7 5.4zm-2.3-2c0-1-.8-1.8-2.2-1.8s-2.1.7-2.1 1.8.9 1.8 2.2 1.8 2.2-.8 2.2-1.9z"/><path d="m1335 332.3c0-3.6 2-5.6 4.5-5.6s4.5 2 4.5 5.6-2 5.6-4.5 5.6-4.5-2-4.5-5.6zm7 0c0-2.6-1-3.8-2.5-3.8s-2.5 1.2-2.5 3.8 1 3.8 2.5 3.8 2.5-1.2 2.5-3.8z"/><path d="m1347.7 336.5c0 .3 0 .6-.4 1.3l-.8 2.2h-1.3l.6-2.4c-.4-.2-.7-.6-.7-1.1s.5-1.3 1.3-1.3 1.3.5 1.3 1.3z"/><path d="m1348.8 332.3c0-3.6 2-5.6 4.5-5.6s4.5 2 4.5 5.6-2 5.6-4.5 5.6-4.5-2-4.5-5.6zm7.1 0c0-2.6-1-3.8-2.5-3.8s-2.5 1.2-2.5 3.8 1 3.8 2.5 3.8 2.5-1.2 2.5-3.8z"/><path d="m1359.3 332.3c0-3.6 2-5.6 4.5-5.6s4.5 2 4.5 5.6-2 5.6-4.5 5.6-4.5-2-4.5-5.6zm7 0c0-2.6-1-3.8-2.5-3.8s-2.5 1.2-2.5 3.8 1 3.8 2.5 3.8 2.5-1.2 2.5-3.8z"/><path d="m1369.7 332.3c0-3.6 2-5.6 4.5-5.6s4.5 2 4.5 5.6-2 5.6-4.5 5.6-4.5-2-4.5-5.6zm7 0c0-2.6-1-3.8-2.5-3.8s-2.5 1.2-2.5 3.8 1 3.8 2.5 3.8 2.5-1.2 2.5-3.8z"/><path d="m1393.8 333.6c0 2.6-1.8 4.2-4.2 4.2s-2-.4-2.7-1.1v4h-1.9v-11.3h1.8v1.1c.7-.8 1.6-1.2 2.7-1.2 2.4 0 4.2 1.7 4.2 4.2zm-2 0c0-1.6-1.1-2.6-2.4-2.6s-2.5 1-2.5 2.6 1.1 2.6 2.5 2.6 2.4-1 2.4-2.6z"/><path d="m1403.7 329.4v8.3h-1.8v-1.1c-.6.8-1.6 1.2-2.7 1.2-2.1 0-3.6-1.2-3.6-3.7v-4.7h1.9v4.5c0 1.5.7 2.2 1.9 2.2s2.3-.8 2.3-2.5v-4.2h1.9z"/><path d="m1414.3 333v4.7h-1.9v-4.5c0-1.5-.7-2.2-2-2.2s-2.3.8-2.3 2.5v4.2h-1.9v-8.3h1.8v1.1c.6-.8 1.6-1.2 2.9-1.2 2 0 3.5 1.1 3.5 3.6z"/><path d="m1421.8 337.3c-.5.4-1.2.6-1.9.6-1.8 0-2.9-1-2.9-2.8v-4h-1.4v-1.6h1.4v-1.9h1.9v1.9h2.2v1.6h-2.2v3.9c0 .8.4 1.2 1.1 1.2s.8-.1 1.1-.3l.5 1.4z"/><path d="m1422.4 333.6c0-2.5 1.9-4.2 4.4-4.2s4.4 1.8 4.4 4.2-1.8 4.2-4.4 4.2-4.4-1.8-4.4-4.2zm6.9 0c0-1.6-1.1-2.6-2.5-2.6s-2.4 1-2.4 2.6 1.1 2.6 2.4 2.6 2.5-1 2.5-2.6z"/><path d="m1432.2 336.9.7-1.5c.7.5 1.8.8 2.9.8s1.7-.3 1.7-.9c0-1.6-5.1 0-5.1-3.4s1.4-2.6 3.6-2.6 2.4.3 3.1.7l-.7 1.5c-.8-.5-1.6-.6-2.4-.6-1.2 0-1.7.4-1.7.9 0 1.7 5.1.2 5.1 3.4s-1.4 2.6-3.8 2.6-2.8-.4-3.5-.9z"/><path d="m1493.7 161.8h2.5v8.8h5.4v2h-8v-10.9z"/><path d="m1510.9 169.2h-6.3c.2 1 1.1 1.7 2.4 1.7s1.5-.3 2.1-.8l1.3 1.4c-.8.9-1.9 1.3-3.4 1.3-2.9 0-4.8-1.8-4.8-4.3s1.9-4.3 4.4-4.3 4.3 1.6 4.3 4.3 0 .5 0 .7zm-6.3-1.4h4.1c-.2-1.1-1-1.7-2-1.7s-1.9.7-2.1 1.7z"/><path d="m1520.7 164.4-3.8 8.9c-.8 2-2 2.6-3.5 2.6s-1.8-.3-2.3-.8l.9-1.7c.4.3.9.5 1.4.5s1-.3 1.4-1-3.6-8.5-3.6-8.5h2.5l2.3 5.7 2.4-5.7z"/><path d="m1529.6 169.2h-6.3c.2 1 1.1 1.7 2.4 1.7s1.5-.3 2.1-.8l1.3 1.4c-.8.9-1.9 1.3-3.4 1.3-2.9 0-4.8-1.8-4.8-4.3s1.9-4.3 4.4-4.3 4.3 1.6 4.3 4.3 0 .5 0 .7zm-6.3-1.4h4.1c-.2-1.1-1-1.7-2-1.7s-1.9.7-2.1 1.7z"/><path d="m1539.8 167.9v4.8h-2.4v-4.4c0-1.3-.6-2-1.7-2s-2 .7-2 2.2v4.1h-2.4v-8.3h2.3v1c.7-.7 1.6-1.1 2.8-1.1 2 0 3.5 1.1 3.5 3.7z"/><path d="m1550.6 161.2v11.5h-2.3v-1c-.6.7-1.5 1.1-2.6 1.1-2.4 0-4.2-1.7-4.2-4.3s1.8-4.3 4.2-4.3 1.9.3 2.5 1v-4zm-2.4 7.3c0-1.4-.9-2.3-2.1-2.3s-2.1.9-2.1 2.3.9 2.3 2.1 2.3 2.1-.9 2.1-2.3z"/><path d="m1560.2 167.9v4.8h-2.3v-1c-.5.8-1.3 1.2-2.5 1.2-2 0-3.1-1.1-3.1-2.5s1-2.5 3.6-2.5h1.9c0-1-.6-1.6-1.9-1.6s-1.8.3-2.4.8l-.9-1.7c.9-.7 2.3-1 3.6-1 2.5 0 4 1.2 4 3.7zm-2.5 2.2v-.9h-1.7c-1.1 0-1.5.4-1.5 1s.5 1 1.4 1 1.5-.4 1.8-1.1z"/><path d="m1470.7 181.8v10.9h-2v-9.2h-2.3v-1.7z"/><path d="m1472.9 187.3c0-3.6 2-5.6 4.5-5.6s4.5 2 4.5 5.6-2 5.6-4.5 5.6-4.5-2-4.5-5.6zm7 0c0-2.6-1-3.8-2.5-3.8s-2.5 1.2-2.5 3.8 1 3.8 2.5 3.8 2.5-1.2 2.5-3.8z"/><path d="m1483.3 187.3c0-3.6 2-5.6 4.5-5.6s4.5 2 4.5 5.6-2 5.6-4.5 5.6-4.5-2-4.5-5.6zm7.1 0c0-2.6-1-3.8-2.5-3.8s-2.5 1.2-2.5 3.8 1 3.8 2.5 3.8 2.5-1.2 2.5-3.8z"/><path d="m1496 191.5c0 .3 0 .6-.4 1.3l-.8 2.2h-1.3l.6-2.4c-.4-.2-.7-.6-.7-1.1s.5-1.3 1.3-1.3 1.3.5 1.3 1.3z"/><path d="m1497.2 187.3c0-3.6 2-5.6 4.5-5.6s4.5 2 4.5 5.6-2 5.6-4.5 5.6-4.5-2-4.5-5.6zm7 0c0-2.6-1-3.8-2.5-3.8s-2.5 1.2-2.5 3.8 1 3.8 2.5 3.8 2.5-1.2 2.5-3.8z"/><path d="m1507.6 187.3c0-3.6 2-5.6 4.5-5.6s4.5 2 4.5 5.6-2 5.6-4.5 5.6-4.5-2-4.5-5.6zm7 0c0-2.6-1-3.8-2.5-3.8s-2.5 1.2-2.5 3.8 1 3.8 2.5 3.8 2.5-1.2 2.5-3.8z"/><path d="m1518 187.3c0-3.6 2-5.6 4.5-5.6s4.5 2 4.5 5.6-2 5.6-4.5 5.6-4.5-2-4.5-5.6zm7.1 0c0-2.6-1-3.8-2.5-3.8s-2.5 1.2-2.5 3.8 1 3.8 2.5 3.8 2.5-1.2 2.5-3.8z"/><path d="m1542.1 188.6c0 2.6-1.8 4.2-4.2 4.2s-2-.4-2.7-1.1v4h-1.9v-11.3h1.8v1.1c.7-.8 1.6-1.2 2.7-1.2 2.4 0 4.2 1.7 4.2 4.2zm-2 0c0-1.6-1.1-2.6-2.4-2.6s-2.5 1-2.5 2.6 1.1 2.6 2.5 2.6 2.4-1 2.4-2.6z"/><path d="m1552 184.4v8.3h-1.8v-1.1c-.6.8-1.6 1.2-2.7 1.2-2.1 0-3.6-1.2-3.6-3.7v-4.7h1.9v4.5c0 1.5.7 2.2 1.9 2.2s2.3-.8 2.3-2.5v-4.2h1.9z"/><path d="m1562.7 188v4.7h-1.9v-4.5c0-1.5-.7-2.2-2-2.2s-2.3.8-2.3 2.5v4.2h-1.9v-8.3h1.8v1.1c.6-.8 1.6-1.2 2.9-1.2 2 0 3.5 1.1 3.5 3.6z"/><path d="m1570.1 192.3c-.5.4-1.2.6-1.9.6-1.8 0-2.9-1-2.9-2.8v-4h-1.4v-1.6h1.4v-1.9h1.9v1.9h2.2v1.6h-2.2v3.9c0 .8.4 1.2 1.1 1.2s.8-.1 1.1-.3l.5 1.4z"/><path d="m1570.7 188.6c0-2.5 1.9-4.2 4.4-4.2s4.4 1.8 4.4 4.2-1.8 4.2-4.4 4.2-4.4-1.8-4.4-4.2zm6.9 0c0-1.6-1.1-2.6-2.5-2.6s-2.4 1-2.4 2.6 1.1 2.6 2.4 2.6 2.5-1 2.5-2.6z"/><path d="m1580.5 191.9.7-1.5c.7.5 1.8.8 2.9.8s1.7-.3 1.7-.9c0-1.6-5.1 0-5.1-3.4s1.4-2.6 3.6-2.6 2.4.3 3.1.7l-.7 1.5c-.8-.5-1.6-.6-2.4-.6-1.2 0-1.7.4-1.7.9 0 1.7 5.1.2 5.1 3.4s-1.4 2.6-3.8 2.6-2.8-.4-3.5-.9z"/></svg>