<svg viewBox="0 0 755.28 230.19" xmlns="http://www.w3.org/2000/svg" xmlns:xlink="http://www.w3.org/1999/xlink"><linearGradient id="a" gradientUnits="userSpaceOnUse" x1="133.0752" x2="42.6976" y1="55.0796" y2="145.4572"><stop offset="0" stop-color="#4090c8"/><stop offset=".01" stop-color="#4190c9"/><stop offset=".26" stop-color="#48b6e5"/><stop offset=".51" stop-color="#57bde7"/><stop offset=".76" stop-color="#65c0e1"/><stop offset="1" stop-color="#67c0de"/></linearGradient><linearGradient id="b" gradientUnits="userSpaceOnUse" x1="197.8952" x2="67.5144" y1="116.1956" y2="116.1956"><stop offset="0" stop-color="#ffdf13"/><stop offset=".41" stop-color="#f7bb19"/><stop offset=".78" stop-color="#f1a11b"/><stop offset="1" stop-color="#f1981f"/></linearGradient><linearGradient id="c" gradientUnits="userSpaceOnUse" x1="149.3728" x2="26.7704" y1="128.0484" y2="250.6508"><stop offset="0" stop-color="#e1464e"/><stop offset="1" stop-color="#be386b"/></linearGradient><linearGradient id="d" gradientUnits="userSpaceOnUse" x1="54.7356" x2="109.5548" y1="9.3352" y2="63.9692"><stop offset="0" stop-color="#2e9e71"/><stop offset=".07" stop-color="#2aa573"/><stop offset=".48" stop-color="#51ab6f"/><stop offset=".8" stop-color="#60ad66"/><stop offset="1" stop-color="#66b063"/></linearGradient><path d="m714.11 222.77h-672.95a26.66 26.66 0 0 1 -26.91-26.92v-161.51a26.66 26.66 0 0 1 26.91-26.92h673a26.66 26.66 0 0 1 26.84 26.92v161.51a26.66 26.66 0 0 1 -26.89 26.92z" fill="#040607"/><path d="m714.11 11.73a22.74 22.74 0 0 1 22.61 22.61v161.51a22.74 22.74 0 0 1 -22.61 22.61h-672.95a22.75 22.75 0 0 1 -22.61-22.61v-161.51a22.75 22.75 0 0 1 22.61-22.61h673m0-4.31h-673a27 27 0 0 0 -26.91 26.92v161.51a26.66 26.66 0 0 0 26.91 26.92h673a26.66 26.66 0 0 0 26.84-26.92v-161.51a27 27 0 0 0 -26.89-26.92z" fill="#a4a5a4"/><path d="m380.87 94.91c-12.92 0-23.15 9.69-23.15 23.15a23 23 0 0 0 23.15 23.14c12.92 0 23.15-9.69 23.15-23.14-.02-14-10.23-23.15-23.15-23.15zm0 36.6c-7 0-12.92-5.92-12.92-14s5.92-14 12.92-14 12.92 5.38 12.92 14c0 8.08-5.92 14-12.92 14zm-50.07-36.6c-12.92 0-23.15 9.69-23.15 23.15a23 23 0 0 0 23.15 23.14c12.92 0 23.15-9.69 23.15-23.14.05-14-10.23-23.15-23.15-23.15zm0 36.6c-7 0-12.92-5.92-12.92-14s5.92-14 12.92-14 12.92 5.38 12.92 14c0 8.08-5.92 14-12.92 14zm-59.8-29.61v9.7h23.15a20.37 20.37 0 0 1 -5.34 12.4c-3.23 3.23-8.61 7-17.77 7-14.53 0-25.3-11.31-25.3-25.85s11.31-25.86 25.26-25.86a26.7 26.7 0 0 1 17.77 7l7-7c-5.92-5.38-13.46-9.69-24.23-9.69-19.38 0-36.07 16.15-36.07 35.53s16.69 35.54 36.07 35.54c10.77 0 18.31-3.23 24.77-10.23 6.46-6.46 8.61-15.61 8.61-22.61a20.18 20.18 0 0 0 -.54-5.93zm244.42 7.54c-2.15-5.38-7.54-14.53-19.38-14.53s-21.54 9.15-21.54 23.15c0 12.92 9.69 23.14 22.61 23.14a22.12 22.12 0 0 0 18.89-10.2l-7.54-5.39c-2.69 3.77-5.92 6.46-11.31 6.46s-8.61-2.15-11.3-7l30.69-12.92-1.08-2.69zm-31.19 7.56c0-8.61 7-13.46 11.85-13.46 3.77 0 7.53 2.15 8.61 4.85zm-25.3 22.07h10.23v-67.31h-10.23zm-16.15-39.3a17.73 17.73 0 0 0 -12.38-5.38c-11.31 0-22.08 10.23-22.08 23.15a22.29 22.29 0 0 0 22.08 22.61 15.43 15.43 0 0 0 11.84-5.39h.54v3.24c0 8.62-4.85 13.46-12.38 13.46a12 12 0 0 1 -11.31-8.07l-8.61 3.77c2.69 5.92 9.15 13.46 20.46 13.46 11.84 0 21.53-7 21.53-23.69v-40.93h-9.69zm-11.84 31.76c-7 0-12.92-5.92-12.92-14s5.92-14 12.92-14 12.38 5.92 12.38 14-5.39 13.98-12.38 13.98zm131.36-59.77h-24.23v67.29h10.23v-25.3h14c11.3 0 22.07-8.08 22.07-21s-10.77-20.99-22.07-20.99zm.53 32.3h-14.53v-23.15h14.53a11.83 11.83 0 0 1 11.85 11.3c-.54 5.93-4.85 11.85-11.85 11.85zm61.92-9.69c-7.54 0-15.08 3.23-17.77 10.23l9.15 3.77c2.16-3.77 5.39-4.85 9.15-4.85 5.39 0 10.23 3.23 10.77 8.61v.54a21.41 21.41 0 0 0 -10.23-2.67c-9.69 0-19.38 5.38-19.38 15.07 0 9.16 8.08 15.08 16.69 15.08 7 0 10.23-3.23 12.92-6.46h.54v5.38h9.69v-25.86c-1.08-11.84-10.23-18.84-21.53-18.84zm-1.08 37.14c-3.23 0-8.08-1.61-8.08-5.92 0-5.38 5.93-7 10.77-7 4.31 0 6.46 1.08 9.15 2.16-1.07 6.46-6.46 10.76-11.84 10.76zm56.53-35.51-11.31 29.07h-.54l-11.84-29.07h-10.77l17.77 40.92-10.23 22.61h10.23l27.49-63.53zm-90.45 43.07h10.25v-67.31h-10.25z" fill="#fff"/><path d="m70.23 47.7c-1.61 1.62-2.15 4.31-2.15 7.54v119a10.69 10.69 0 0 0 2.69 7.54l.54.53 66.76-66.75v-1.08z" fill="url(#a)"/><path d="m159.6 138.15-22.07-22.07v-1.62l22.07-22.07.54.54 26.38 15.07c7.54 4.31 7.54 11.31 0 15.61z" fill="url(#b)"/><path d="m160.14 137.61-22.61-22.61-67.3 67.29c2.7 2.7 6.46 2.7 11.31.54z" fill="url(#c)"/><path d="m160.14 92.39-78.6-44.69c-4.85-2.69-8.61-2.15-11.31.54l67.3 66.76z" fill="url(#d)"/><path d="m159.6 137.07-78.06 44.15c-4.31 2.69-8.08 2.15-10.77 0l-.54.54.54.53c2.69 2.16 6.46 2.7 10.77 0z" fill="#040607" opacity=".2"/><path d="m70.23 181.22c-1.61-1.62-2.15-4.31-2.15-7.54v.54a10.69 10.69 0 0 0 2.69 7.54v-.54zm116.29-59.22-26.92 15.07.54.54 26.38-15.07c3.77-2.16 5.38-4.85 5.38-7.54 0 2.69-2.15 4.84-5.38 7z" fill="#040607" opacity=".12"/><path d="m81.54 48.24 105 59.76c3.23 2.15 5.38 4.31 5.38 7 0-2.69-1.61-5.39-5.38-7.54l-105-59.76c-7.54-4.3-13.46-1.07-13.46 7.54v.54c0-8.08 5.92-11.85 13.46-7.54z" fill="#fff" opacity=".25"/><g fill="none" stroke="#2e2014"><path d="m714.11 222.77h-672.95a26.66 26.66 0 0 1 -26.91-26.92v-161.51a26.66 26.66 0 0 1 26.91-26.92h673a26.66 26.66 0 0 1 26.84 26.92v161.51a26.66 26.66 0 0 1 -26.89 26.92z"/><path d="m714.11 11.73a22.74 22.74 0 0 1 22.61 22.61v161.51a22.74 22.74 0 0 1 -22.61 22.61h-672.95a22.75 22.75 0 0 1 -22.61-22.61v-161.51a22.75 22.75 0 0 1 22.61-22.61h673m0-4.31h-673a27 27 0 0 0 -26.91 26.92v161.51a26.66 26.66 0 0 0 26.91 26.92h673a26.66 26.66 0 0 0 26.84-26.92v-161.51a27 27 0 0 0 -26.89-26.92z"/><path d="m380.87 94.91c-12.92 0-23.15 9.69-23.15 23.15a23 23 0 0 0 23.15 23.14c12.92 0 23.15-9.69 23.15-23.14-.02-14-10.23-23.15-23.15-23.15zm0 36.6c-7 0-12.92-5.92-12.92-14s5.92-14 12.92-14 12.92 5.38 12.92 14c0 8.08-5.92 14-12.92 14zm-50.07-36.6c-12.92 0-23.15 9.69-23.15 23.15a23 23 0 0 0 23.15 23.14c12.92 0 23.15-9.69 23.15-23.14.05-14-10.23-23.15-23.15-23.15zm0 36.6c-7 0-12.92-5.92-12.92-14s5.92-14 12.92-14 12.92 5.38 12.92 14c0 8.08-5.92 14-12.92 14zm-59.8-29.61v9.7h23.15a20.37 20.37 0 0 1 -5.34 12.4c-3.23 3.23-8.61 7-17.77 7-14.53 0-25.3-11.31-25.3-25.85s11.31-25.86 25.26-25.86a26.7 26.7 0 0 1 17.77 7l7-7c-5.92-5.38-13.46-9.69-24.23-9.69-19.38 0-36.07 16.15-36.07 35.53s16.69 35.54 36.07 35.54c10.77 0 18.31-3.23 24.77-10.23 6.46-6.46 8.61-15.61 8.61-22.61a20.18 20.18 0 0 0 -.54-5.93zm244.42 7.54c-2.15-5.38-7.54-14.53-19.38-14.53s-21.54 9.15-21.54 23.15c0 12.92 9.69 23.14 22.61 23.14a22.12 22.12 0 0 0 18.89-10.2l-7.54-5.39c-2.69 3.77-5.92 6.46-11.31 6.46s-8.61-2.15-11.3-7l30.69-12.92-1.08-2.69zm-31.19 7.56c0-8.61 7-13.46 11.85-13.46 3.77 0 7.53 2.15 8.61 4.85zm-25.3 22.07h10.23v-67.31h-10.23zm-16.15-39.3a17.73 17.73 0 0 0 -12.38-5.38c-11.31 0-22.08 10.23-22.08 23.15a22.29 22.29 0 0 0 22.08 22.61 15.43 15.43 0 0 0 11.84-5.39h.54v3.24c0 8.62-4.85 13.46-12.38 13.46a12 12 0 0 1 -11.31-8.07l-8.61 3.77c2.69 5.92 9.15 13.46 20.46 13.46 11.84 0 21.53-7 21.53-23.69v-40.93h-9.69zm-11.84 31.76c-7 0-12.92-5.92-12.92-14s5.92-14 12.92-14 12.38 5.92 12.38 14-5.39 13.98-12.38 13.98zm131.36-59.77h-24.23v67.29h10.23v-25.3h14c11.3 0 22.07-8.08 22.07-21s-10.77-20.99-22.07-20.99zm.53 32.3h-14.53v-23.15h14.53a11.83 11.83 0 0 1 11.85 11.3c-.54 5.93-4.85 11.85-11.85 11.85zm61.92-9.69c-7.54 0-15.08 3.23-17.77 10.23l9.15 3.77c2.16-3.77 5.39-4.85 9.15-4.85 5.39 0 10.23 3.23 10.77 8.61v.54a21.41 21.41 0 0 0 -10.23-2.67c-9.69 0-19.38 5.38-19.38 15.07 0 9.16 8.08 15.08 16.69 15.08 7 0 10.23-3.23 12.92-6.46h.54v5.38h9.69v-25.86c-1.08-11.84-10.23-18.84-21.53-18.84zm-1.08 37.14c-3.23 0-8.08-1.61-8.08-5.92 0-5.38 5.93-7 10.77-7 4.31 0 6.46 1.08 9.15 2.16-1.07 6.46-6.46 10.76-11.84 10.76zm56.53-35.51-11.31 29.07h-.54l-11.84-29.07h-10.77l17.77 40.92-10.23 22.61h10.23l27.49-63.53zm-90.45 43.07h10.25v-67.31h-10.25z"/><path d="m70.23 47.7c-1.61 1.62-2.15 4.31-2.15 7.54v119a10.69 10.69 0 0 0 2.69 7.54l.54.53 66.76-66.75v-1.08z"/><path d="m159.6 138.15-22.07-22.07v-1.62l22.07-22.07.54.54 26.38 15.07c7.54 4.31 7.54 11.31 0 15.61z"/><path d="m160.14 137.61-22.61-22.61-67.3 67.29c2.7 2.7 6.46 2.7 11.31.54z"/><path d="m160.14 92.39-78.6-44.69c-4.85-2.69-8.61-2.15-11.31.54l67.3 66.76z"/><path d="m159.6 137.07-78.06 44.15c-4.31 2.69-8.08 2.15-10.77 0l-.54.54.54.53c2.69 2.16 6.46 2.7 10.77 0z"/><path d="m70.23 181.22c-1.61-1.62-2.15-4.31-2.15-7.54v.54a10.69 10.69 0 0 0 2.69 7.54v-.54zm116.29-59.22-26.92 15.07.54.54 26.38-15.07c3.77-2.16 5.38-4.85 5.38-7.54 0 2.69-2.15 4.84-5.38 7z"/><path d="m81.54 48.24 105 59.76c3.23 2.15 5.38 4.31 5.38 7 0-2.69-1.61-5.39-5.38-7.54l-105-59.76c-7.54-4.3-13.46-1.07-13.46 7.54v.54c0-8.08 5.92-11.85 13.46-7.54z"/></g></svg>