<svg viewBox="0 0 755.28 230.19" xmlns="http://www.w3.org/2000/svg"><path d="m714.11 222.77h-672.95a26.66 26.66 0 0 1 -26.91-26.92v-161.51a26.66 26.66 0 0 1 26.91-26.92h673a26.66 26.66 0 0 1 26.84 26.92v161.51a26.66 26.66 0 0 1 -26.89 26.92z" fill="#040607"/><path d="m714.11 11.73a22.74 22.74 0 0 1 22.61 22.61v161.51a22.74 22.74 0 0 1 -22.61 22.61h-672.95a22.75 22.75 0 0 1 -22.61-22.61v-161.51a22.75 22.75 0 0 1 22.61-22.61h673m0-4.31h-673a27 27 0 0 0 -26.91 26.92v161.51a26.66 26.66 0 0 0 26.91 26.92h673a26.66 26.66 0 0 0 26.84-26.92v-161.51a27 27 0 0 0 -26.89-26.92z" fill="#a4a5a4"/><path d="m176.32 119.45c-.12-17.34 14.2-25.84 14.9-26.19-8.15-11.87-20.72-13.5-25.22-13.62-10.59-1.16-20.84 6.41-26.31 6.41s-13.91-6.29-22.87-6.05a33.81 33.81 0 0 0 -28.29 17.22c-12.23 21.19-3.15 52.27 8.61 69.26 5.82 8.38 12.69 17.7 21.66 17.35 8.73-.35 12-5.59 22.59-5.59s13.5 5.59 22.7 5.35c9.43-.11 15.37-8.38 21-16.87a69 69 0 0 0 9.55-19.56s-18-6.87-18.28-27.71zm-17.23-51.1c4.65-5.93 7.91-13.85 7-22-6.87.35-15.37 4.78-20.26 10.48-4.33 5.17-8.29 13.39-7.24 21.17 7.69.6 15.6-3.83 20.5-9.65z" fill="#fff"/><path d="m303.23 141h-12.23l-6.76-21.06h-23.24l-6.44 21.06h-11.87l23.05-71.7h14.32zm-21-29.91-6-18.74c-.7-1.87-1.86-6.4-3.61-13.51h-.23c-.7 3-1.87 7.57-3.38 13.51l-5.94 18.74zm80.23 3.37c0 8.85-2.45 15.72-7.22 20.84a21.06 21.06 0 0 1 -15.95 6.87c-6.87 0-11.76-2.45-14.79-7.33v27.16h-11.37v-55.81c0-5.47-.12-11.18-.47-17h10.13l.7 8.15h.23c3.85-6.17 9.67-9.31 17.47-9.31a19.33 19.33 0 0 1 15.25 7.22c4.08 5 6.06 11.41 6.06 19.2zm-11.65.47a21.84 21.84 0 0 0 -3.37-12.46 11.83 11.83 0 0 0 -10-5.12 12 12 0 0 0 -7.68 2.8 12.68 12.68 0 0 0 -4.54 7.45 17.55 17.55 0 0 0 -.58 3.49v8.61a13.78 13.78 0 0 0 3.49 9.55 11.63 11.63 0 0 0 9 3.84 11.75 11.75 0 0 0 10.13-5c2.45-3.26 3.61-7.68 3.61-13.15zm71.26-.47c0 8.85-2.44 15.72-7.22 20.84a21 21 0 0 1 -15.95 6.87c-6.87 0-11.76-2.45-14.79-7.33v27.16h-11.48v-55.81c0-5.47-.12-11.18-.47-17h10.13l.7 8.15h.23c3.85-6.17 9.67-9.31 17.47-9.31a19.33 19.33 0 0 1 15.25 7.22c4.06 5 6.17 11.41 6.17 19.2zm-11.76.47a21.84 21.84 0 0 0 -3.31-12.47 11.84 11.84 0 0 0 -10-5.12 12 12 0 0 0 -7.68 2.8 12.68 12.68 0 0 0 -4.54 7.45 15.43 15.43 0 0 0 -.59 3.49v8.61a13.79 13.79 0 0 0 3.5 9.55 11.62 11.62 0 0 0 9 3.84 11.75 11.75 0 0 0 10.13-5c2.45-3.26 3.61-7.68 3.61-13.15zm78.25 5.94a19.06 19.06 0 0 1 -6.41 14.9q-7 6.28-19.56 6.28c-7.68 0-13.85-1.51-18.63-4.42l2.68-9.55a31.56 31.56 0 0 0 16.65 4.43c4.31 0 7.69-.93 10.13-2.91a9.44 9.44 0 0 0 3.61-7.8 10 10 0 0 0 -3-7.34c-2-2-5.24-3.84-9.89-5.58q-18.87-7-18.87-20.61a18 18 0 0 1 6.64-14.43c4.42-3.73 10.36-5.59 17.58-5.59 6.52 0 12 1.17 16.3 3.38l-2.91 9.31a28.18 28.18 0 0 0 -13.74-3.26c-4.07 0-7.22 1-9.55 3a8.72 8.72 0 0 0 -2.91 6.52 8.56 8.56 0 0 0 3.26 7c1.87 1.75 5.36 3.49 10.48 5.59q9.26 3.66 13.63 8.73c3.15 3.26 4.55 7.33 4.55 12.34zm38.07-22.94h-12.63v25.15c0 6.4 2.21 9.54 6.75 9.54a16.24 16.24 0 0 0 5.13-.58l.35 8.73a26.55 26.55 0 0 1 -9 1.28c-4.54 0-8-1.39-10.6-4.19s-3.84-7.45-3.84-14v-26.05h-7.57v-8.62h7.57v-9.42l11.3-3.38v12.92h12.69l-.12 8.61zm57.05 16.77c0 7.91-2.32 14.43-6.86 19.55-4.78 5.24-11.07 7.92-19 7.92-7.57 0-13.63-2.56-18.17-7.57s-6.65-11.42-6.65-19.1c0-8 2.33-14.55 7-19.67s10.94-7.68 18.74-7.68c7.57 0 13.74 2.56 18.28 7.56s6.75 11.29 6.75 19zm-11.87.23a23.75 23.75 0 0 0 -3-12.22c-2.44-4.08-5.82-6.17-10.36-6.17a11.68 11.68 0 0 0 -10.6 6.17c-2.09 3.37-3 7.56-3 12.45a23.79 23.79 0 0 0 3 12.23c2.45 4.07 5.94 6.16 10.48 6.16s7.8-2.09 10.36-6.28a23.39 23.39 0 0 0 3.15-12.34zm49.25-15.6a19.12 19.12 0 0 0 -3.61-.35c-4.07 0-7.22 1.52-9.31 4.54a17.46 17.46 0 0 0 -2.91 10.25v27.12h-11.49v-35.4c0-5.47-.12-10.82-.35-16.3h10l.47 9.9h.35a17.27 17.27 0 0 1 5.7-8.15 14.4 14.4 0 0 1 8.27-2.79 22 22 0 0 1 2.91.23v10.94zm51.46 13.39a26.58 26.58 0 0 1 -.46 5.24h-34.43c.12 5.12 1.75 9.08 5 11.75 2.91 2.45 6.64 3.61 11.3 3.61a38.26 38.26 0 0 0 14-2.44l1.74 7.91a43.86 43.86 0 0 1 -17.34 3.15c-8 0-14.33-2.33-18.87-7.1s-6.87-11.06-6.87-19 2.1-14.32 6.41-19.44c4.42-5.59 10.48-8.26 18-8.26s13.16 2.79 16.89 8.26c3.14 4.42 4.65 9.78 4.65 16.3zm-10.94-3a15.69 15.69 0 0 0 -2.21-8.85c-2-3.25-5-4.77-9.2-4.77a11 11 0 0 0 -9.2 4.66 17.45 17.45 0 0 0 -3.38 9z" fill="#fff"/><g fill="none" stroke="#2e2014"><path d="m714.11 222.77h-672.95a26.66 26.66 0 0 1 -26.91-26.92v-161.51a26.66 26.66 0 0 1 26.91-26.92h673a26.66 26.66 0 0 1 26.84 26.92v161.51a26.66 26.66 0 0 1 -26.89 26.92z"/><path d="m714.11 11.73a22.74 22.74 0 0 1 22.61 22.61v161.51a22.74 22.74 0 0 1 -22.61 22.61h-672.95a22.75 22.75 0 0 1 -22.61-22.61v-161.51a22.75 22.75 0 0 1 22.61-22.61h673m0-4.31h-673a27 27 0 0 0 -26.91 26.92v161.51a26.66 26.66 0 0 0 26.91 26.92h673a26.66 26.66 0 0 0 26.84-26.92v-161.51a27 27 0 0 0 -26.89-26.92z"/><path d="m176.32 119.45c-.12-17.34 14.2-25.84 14.9-26.19-8.15-11.87-20.72-13.5-25.22-13.62-10.59-1.16-20.84 6.41-26.31 6.41s-13.91-6.29-22.87-6.05a33.81 33.81 0 0 0 -28.29 17.22c-12.23 21.19-3.15 52.27 8.61 69.26 5.82 8.38 12.69 17.7 21.66 17.35 8.73-.35 12-5.59 22.59-5.59s13.5 5.59 22.7 5.35c9.43-.11 15.37-8.38 21-16.87a69 69 0 0 0 9.55-19.56s-18-6.87-18.28-27.71zm-17.23-51.1c4.65-5.93 7.91-13.85 7-22-6.87.35-15.37 4.78-20.26 10.48-4.33 5.17-8.29 13.39-7.24 21.17 7.69.6 15.6-3.83 20.5-9.65z"/><path d="m303.23 141h-12.23l-6.76-21.06h-23.24l-6.44 21.06h-11.87l23.05-71.7h14.32zm-21-29.91-6-18.74c-.7-1.87-1.86-6.4-3.61-13.51h-.23c-.7 3-1.87 7.57-3.38 13.51l-5.94 18.74zm80.23 3.37c0 8.85-2.45 15.72-7.22 20.84a21.06 21.06 0 0 1 -15.95 6.87c-6.87 0-11.76-2.45-14.79-7.33v27.16h-11.37v-55.81c0-5.47-.12-11.18-.47-17h10.13l.7 8.15h.23c3.85-6.17 9.67-9.31 17.47-9.31a19.33 19.33 0 0 1 15.25 7.22c4.08 5 6.06 11.41 6.06 19.2zm-11.65.47a21.84 21.84 0 0 0 -3.37-12.46 11.83 11.83 0 0 0 -10-5.12 12 12 0 0 0 -7.68 2.8 12.68 12.68 0 0 0 -4.54 7.45 17.55 17.55 0 0 0 -.58 3.49v8.61a13.78 13.78 0 0 0 3.49 9.55 11.63 11.63 0 0 0 9 3.84 11.75 11.75 0 0 0 10.13-5c2.45-3.26 3.61-7.68 3.61-13.15zm71.26-.47c0 8.85-2.44 15.72-7.22 20.84a21 21 0 0 1 -15.95 6.87c-6.87 0-11.76-2.45-14.79-7.33v27.16h-11.48v-55.81c0-5.47-.12-11.18-.47-17h10.13l.7 8.15h.23c3.85-6.17 9.67-9.31 17.47-9.31a19.33 19.33 0 0 1 15.25 7.22c4.06 5 6.17 11.41 6.17 19.2zm-11.76.47a21.84 21.84 0 0 0 -3.31-12.47 11.84 11.84 0 0 0 -10-5.12 12 12 0 0 0 -7.68 2.8 12.68 12.68 0 0 0 -4.54 7.45 15.43 15.43 0 0 0 -.59 3.49v8.61a13.79 13.79 0 0 0 3.5 9.55 11.62 11.62 0 0 0 9 3.84 11.75 11.75 0 0 0 10.13-5c2.45-3.26 3.61-7.68 3.61-13.15zm78.25 5.94a19.06 19.06 0 0 1 -6.41 14.9q-7 6.28-19.56 6.28c-7.68 0-13.85-1.51-18.63-4.42l2.68-9.55a31.56 31.56 0 0 0 16.65 4.43c4.31 0 7.69-.93 10.13-2.91a9.44 9.44 0 0 0 3.61-7.8 10 10 0 0 0 -3-7.34c-2-2-5.24-3.84-9.89-5.58q-18.87-7-18.87-20.61a18 18 0 0 1 6.64-14.43c4.42-3.73 10.36-5.59 17.58-5.59 6.52 0 12 1.17 16.3 3.38l-2.91 9.31a28.18 28.18 0 0 0 -13.74-3.26c-4.07 0-7.22 1-9.55 3a8.72 8.72 0 0 0 -2.91 6.52 8.56 8.56 0 0 0 3.26 7c1.87 1.75 5.36 3.49 10.48 5.59q9.26 3.66 13.63 8.73c3.15 3.26 4.55 7.33 4.55 12.34zm38.07-22.94h-12.63v25.15c0 6.4 2.21 9.54 6.75 9.54a16.24 16.24 0 0 0 5.13-.58l.35 8.73a26.55 26.55 0 0 1 -9 1.28c-4.54 0-8-1.39-10.6-4.19s-3.84-7.45-3.84-14v-26.05h-7.57v-8.62h7.57v-9.42l11.3-3.38v12.92h12.69l-.12 8.61zm57.05 16.77c0 7.91-2.32 14.43-6.86 19.55-4.78 5.24-11.07 7.92-19 7.92-7.57 0-13.63-2.56-18.17-7.57s-6.65-11.42-6.65-19.1c0-8 2.33-14.55 7-19.67s10.94-7.68 18.74-7.68c7.57 0 13.74 2.56 18.28 7.56s6.75 11.29 6.75 19zm-11.87.23a23.75 23.75 0 0 0 -3-12.22c-2.44-4.08-5.82-6.17-10.36-6.17a11.68 11.68 0 0 0 -10.6 6.17c-2.09 3.37-3 7.56-3 12.45a23.79 23.79 0 0 0 3 12.23c2.45 4.07 5.94 6.16 10.48 6.16s7.8-2.09 10.36-6.28a23.39 23.39 0 0 0 3.15-12.34zm49.25-15.6a19.12 19.12 0 0 0 -3.61-.35c-4.07 0-7.22 1.52-9.31 4.54a17.46 17.46 0 0 0 -2.91 10.25v27.12h-11.49v-35.4c0-5.47-.12-10.82-.35-16.3h10l.47 9.9h.35a17.27 17.27 0 0 1 5.7-8.15 14.4 14.4 0 0 1 8.27-2.79 22 22 0 0 1 2.91.23v10.94zm51.46 13.39a26.58 26.58 0 0 1 -.46 5.24h-34.43c.12 5.12 1.75 9.08 5 11.75 2.91 2.45 6.64 3.61 11.3 3.61a38.26 38.26 0 0 0 14-2.44l1.74 7.91a43.86 43.86 0 0 1 -17.34 3.15c-8 0-14.33-2.33-18.87-7.1s-6.87-11.06-6.87-19 2.1-14.32 6.41-19.44c4.42-5.59 10.48-8.26 18-8.26s13.16 2.79 16.89 8.26c3.14 4.42 4.65 9.78 4.65 16.3zm-10.94-3a15.69 15.69 0 0 0 -2.21-8.85c-2-3.25-5-4.77-9.2-4.77a11 11 0 0 0 -9.2 4.66 17.45 17.45 0 0 0 -3.38 9z"/></g></svg>