<svg viewBox="0 0 327.37 327.37" xmlns="http://www.w3.org/2000/svg"><rect fill="#fff" height="327.37" rx="12" width="327.37"/><path d="m236.26 147.97c-.67 0-1.36-.14-2.01-.42-9.7-4.25-18.44-7.47-26.72-9.82-9.32-2.65-18.65-4.48-27.75-5.45-5.52-.61-11.16-.92-16.76-.92-3.95 0-7.97.15-11.95.46-9.22.71-18.62 2.34-27.95 4.84-8.45 2.22-17.18 5.31-26.73 9.47l-3.27 1.43c-.65.28-1.33.42-2 .42-1.7 0-3.34-.87-4.27-2.4-1.3-2.13-.83-4.9 1.11-6.48l1.22-.98c7.62-6.02 16.28-11.09 25.71-15.07 9.92-4.17 20.27-7 30.76-8.42 5.84-.81 11.77-1.22 17.63-1.22 4.93 0 9.9.29 14.75.87 10.74 1.3 21.15 3.83 30.93 7.54 10.25 3.95 19.42 8.94 27.29 14.83.86.63 1.76 1.34 2.62 2.02l.48.38c1.98 1.56 2.49 4.34 1.2 6.5-.93 1.55-2.58 2.43-4.29 2.43z" fill="#fff"/><path d="m91.11 142.97c7.73-6.29 16.48-11.42 25.72-15.32 9.44-3.97 19.36-6.7 29.48-8.07 10.33-1.44 20.79-1.57 31.12-.34 10.19 1.23 20.18 3.63 29.75 7.25 9.23 3.56 18.13 8.21 26.06 14.16 1.03.75 2.05 1.57 3.01 2.33-8.89-3.9-17.99-7.39-27.36-10.06s-18.88-4.58-28.59-5.61c-9.85-1.09-19.77-1.23-29.62-.48-9.78.75-19.43 2.46-28.87 4.99-9.37 2.46-18.47 5.81-27.43 9.71-1.09.48-2.19.96-3.28 1.44 3.63-2.94.62-.27 0 0z" fill="#fff"/><path d="m107.8 164.32c-2.31 0-4.32-1.58-4.86-3.82s.52-4.57 2.57-5.62l46.72-24.01c.71-.36 1.49-.55 2.29-.55h7.87c1.61 0 3.12.77 4.06 2.08.94 1.3 1.2 2.98.69 4.5l-8 24.01c-.68 2.04-2.59 3.42-4.74 3.42h-46.58z" fill="#fff"/><path d="m162.39 135.31-8.01 24.01h-46.58l46.72-24.01z" fill="#fff"/><path d="m172.65 164.32c-2.15 0-4.06-1.38-4.74-3.42l-8-24.01c-.51-1.52-.25-3.2.69-4.5s2.45-2.08 4.06-2.08h7.87c.79 0 1.58.19 2.29.55l46.72 24.01c2.05 1.06 3.12 3.38 2.57 5.62-.54 2.24-2.55 3.82-4.86 3.82h-46.58z" fill="#fff"/><path d="m164.64 135.31 8.01 24.01h46.58l-46.72-24.01z" fill="#fff"/><path d="m120.25 188.46c-1.69 0-3.27-.85-4.19-2.27-.92-1.4-1.07-3.17-.4-4.71h-8.61c-2.24 0-4.21-1.5-4.82-3.66-.6-2.16.31-4.46 2.23-5.62l5.54-3.35c.78-.47 1.68-.72 2.59-.72h8.93l1.42-3.19c.8-1.81 2.59-2.97 4.57-2.97h14.98c2.58 0 5.01 1.29 6.49 3.44 1.52 2.2 1.87 5.01.92 7.5-.05.13-.1.25-.16.38l-.68 1.44c-1.9 4.15-6.1 6.88-10.67 6.88h-7.1l-1.75 3.89c-.81 1.79-2.59 2.95-4.56 2.95h-4.72z" fill="#fff"/><path d="m142.48 166.98h-14.98l-2.74 6.16h-12.18l-5.54 3.35h16.28l-3.08 6.98h4.72l3.08-6.84h10.33c2.67 0 5.06-1.64 6.16-4.04l.68-1.44c.75-1.98-.68-4.17-2.74-4.17zm-2.26 4.65c-.34.96-1.3 1.57-2.33 1.57h-8.48l1.23-2.8h8.69c.75 0 1.3.62.89 1.23z" fill="#fff"/><path d="m156.44 188.46c-2.18 0-4.04-1.39-4.72-3.35h-4.12l-1.81 1.85c-.94.96-2.23 1.5-3.57 1.5h-5.47c-2.01 0-3.82-1.2-4.61-3.05-.78-1.85-.38-3.99 1.02-5.43l16.01-16.48c.94-.97 2.24-1.52 3.59-1.52h8.14c2.61 0 4.78 2.01 4.98 4.61l1.3 16.48c.11 1.39-.37 2.76-1.31 3.79-.95 1.02-2.28 1.61-3.67 1.61h-5.75z" fill="#fff"/><path d="m160.88 166.98h-8.14l-16.01 16.48h5.47l3.28-3.35h10.81l.14 3.35h5.75zm-4.85 9.57h-7.18l6.02-6.16h1.03l.21 6.16h-.07z" fill="#fff"/><path d="m156.03 181.55c-2.7 0-4.91-2.14-5-4.83l-.21-6.16c-.04-1.35.46-2.67 1.4-3.64s2.24-1.52 3.59-1.52c2.7 0 4.98 2.14 5.07 4.83l.21 6.16c.04 1.35-.46 2.67-1.4 3.64s-2.24 1.52-3.59 1.52z" fill="#fff"/><path d="m155.82 170.4.21 6.15h.06l-.2-6.15z" fill="#fff"/><path d="m165.4 188.12c-2.41 0-4.61-1.23-5.88-3.28-1.22-1.98-1.36-4.39-.38-6.48l1.2-2.73c.31-.7.76-1.3 1.32-1.78.05-.85.25-1.7.62-2.5l1.66-3.6c.06-.13.13-.26.2-.39.38-.67 1.28-2.24 3.14-3.56 1.53-1.08 3.28-1.76 5.09-1.99 1.94-.22 4.05-.31 6.71-.31 2.4 0 4.82.16 7.39.5 1.82.15 4.19 1.14 5.5 3.56.78 1.43 1.01 3.03.67 4.74-.07.42-.19.82-.36 1.21l-.96 2.19c-.23.52-.54.99-.91 1.39.04 1.08-.16 2.16-.61 3.17l-1.3 2.88c-1.88 4.22-6.11 6.97-10.78 6.97h-12.31z" fill="#fff"/><path d="m179.08 176.76-10.4-.34c-1.5-.07-2.46-1.64-1.85-3.01l1.64-3.56c.27-.48.75-1.3 1.71-1.98 1.16-.82 2.26-1.03 2.8-1.09 1.85-.21 3.9-.27 6.09-.27 2.53 0 4.86.21 6.91.48.07 0 1.09.07 1.57.96.41.75.14 1.44.14 1.57l-.96 2.19h-4.86l.07-.21c.21-.48-.14-1.09-.68-1.09h-7.59c-.48 0-.96.27-1.09.75l-.27.55c-.27.55.14 1.16.68 1.16l10.33.34c1.5.07 2.53 1.64 1.92 3.01l-1.3 2.87c-1.09 2.46-3.49 4.04-6.22 4.04h-12.31c-1.37 0-2.33-1.44-1.71-2.67l1.23-2.8h4.65l-.34.75c-.21.55.14 1.09.75 1.09h7.73c.75 0 1.5-.48 1.78-1.23l.21-.48c.21-.48-.14-1.03-.62-1.03z" fill="#fff"/><path d="m184.14 188.12c-1.69 0-3.27-.85-4.19-2.27s-1.07-3.2-.39-4.75l7.11-16.14c.8-1.81 2.59-2.98 4.58-2.98h17.99c1.7 0 3.28.86 4.2 2.29.72 1.12.96 2.46.69 3.73h6.39c2.24 0 4.21 1.49 4.81 3.64.61 2.16-.29 4.45-2.2 5.62l-5.81 3.56c-.79.48-1.69.73-2.61.73h-6.49l-1.49 3.51c-.78 1.85-2.6 3.05-4.6 3.05h-17.99z" fill="#fff"/><path d="m214.71 176.55 5.82-3.55h-27.09l1.1-2.4h13.06l1.64-3.62h-17.99l-7.11 16.14h4.85 13.14l1.5-3.56h-13.06l1.3-3.01z" fill="#fff"/><path d="m136.39 213.98c-8.76 0-14.64-5.75-14.64-14.3 0-9.83 7.34-16.97 17.45-16.97 3.9 0 7.08 1.04 8.63 1.66 1.24.5 2.24 1.47 2.75 2.71.52 1.23.52 2.63 0 3.86l-2.26 5.4c-.4.95-1.08 1.75-1.94 2.3.76.78 1.26 1.79 1.4 2.89l.68 5.54c.29 2.38-1.15 4.64-3.43 5.37-3.22 1.04-6.05 1.54-8.64 1.54z" fill="#fff"/><path d="m142.82 202.14.68 5.54c-1.92.62-4.51 1.3-7.11 1.3-5.88 0-9.64-3.28-9.64-9.3 0-7.11 5.2-11.97 12.45-11.97 2.6 0 5.06.62 6.77 1.3l-2.26 5.4c-.89-.41-2.19-.75-3.63-.75-3.56 0-5.68 2.19-5.68 5.2 0 2.74 1.71 4.1 4.58 4.1 1.37-.07 2.8-.41 3.83-.82z" fill="#fff"/><path d="m145.49 213.5c-1.45 0-2.82-.63-3.77-1.72s-1.38-2.54-1.18-3.98l2.87-20.45c.35-2.47 2.46-4.3 4.95-4.3h7.52c1.45 0 2.83.63 3.78 1.73s1.38 2.55 1.17 3.99l-1.3 8.99h1.62c1.45 0 2.83.63 3.78 1.72.95 1.1 1.38 2.55 1.17 3.98l-.82 5.75c-.35 2.46-2.46 4.29-4.95 4.29z" fill="#fff"/><path d="m153.77 202.75h7.39l-.82 5.75h-14.84l2.87-20.45h7.52l-2.12 14.71z" fill="#fff"/><path d="m171.28 213.91c-4.73 0-8.32-1.38-10.68-4.09-1.53-1.76-3.21-4.95-2.48-10.09l1.71-12.37c.34-2.47 2.46-4.32 4.95-4.32h7.52c.66 0 1.31.13 1.91.38.59-.25 1.24-.38 1.92-.38h7.46c1.45 0 2.82.63 3.77 1.72s1.38 2.54 1.18 3.97l-1.71 12.38c-1.13 8.02-6.95 12.8-15.56 12.8z" fill="#fff"/><path d="m183.59 188.05-1.71 12.38c-.82 5.81-4.72 8.48-10.6 8.48s-9.03-2.67-8.21-8.48l1.71-12.38h7.52l-1.71 12.31c-.21 1.44 0 2.53 1.57 2.53s2.05-1.09 2.26-2.53l1.71-12.31s7.46 0 7.46 0z" fill="#fff"/><path d="m190.64 213.91c-2.92 0-5.82-.24-7.42-.45-1.32-.17-2.52-.87-3.33-1.93s-1.16-2.4-.97-3.73l2.87-20.31c.32-2.23 2.08-3.97 4.3-4.26 1.35-.18 4.52-.59 7.49-.59 13.78 0 14.85 8.02 14.85 10.47 0 1.82-.42 3.51-1.2 4.99.58 1.18.93 2.56.93 4.11v.12c-.24 9.57-9.66 11.58-17.52 11.58z" fill="#fff"/><path d="m190.64 208.91c-2.53 0-5.2-.21-6.77-.41l2.87-20.32c1.57-.21 4.31-.55 6.84-.55 4.79 0 9.85 1.09 9.85 5.47 0 2.67-1.57 4.24-3.28 5.06 1.09.27 3.01 1.5 3.01 4.04-.14 5.54-5.95 6.7-12.52 6.7zm5.47-7.25c0-1.44-1.57-1.64-2.67-1.64-.27 0-.96 0-1.23.07l-.55 3.63h1.3c1.23.07 3.15-.34 3.15-2.05zm-3.35-5.61h1.03c1.23 0 2.74-.34 2.74-1.98 0-1.16-1.16-1.44-2.12-1.44-.27 0-.89 0-1.16.07l-.48 3.35z" fill="#fff"/><path d="m91.11 142.97c7.73-6.29 16.48-11.42 25.72-15.32 9.44-3.97 19.36-6.7 29.48-8.07 10.33-1.44 20.79-1.57 31.12-.34 10.19 1.23 20.18 3.63 29.75 7.25 9.23 3.56 18.13 8.21 26.06 14.16 1.03.75 2.05 1.57 3.01 2.33-8.89-3.9-17.99-7.39-27.36-10.06s-18.88-4.58-28.59-5.61c-9.85-1.09-19.77-1.23-29.62-.48-9.78.75-19.43 2.46-28.87 4.99-9.37 2.46-18.47 5.81-27.43 9.71-1.09.48-2.19.96-3.28 1.44 3.63-2.94.62-.27 0 0z" fill="#86b52c"/><path d="m162.39 135.31-8.01 24.01h-46.58l46.72-24.01z" fill="#0045a7"/><path d="m164.64 135.31 8.01 24.01h46.58l-46.72-24.01z" fill="#0045a7"/><path d="m142.48 166.98h-14.98l-2.74 6.16h-12.18l-5.54 3.35h16.28l-3.08 6.98h4.72l3.08-6.84h10.33c2.67 0 5.06-1.64 6.16-4.04l.68-1.44c.75-1.98-.68-4.17-2.74-4.17zm-2.26 4.65c-.34.96-1.3 1.57-2.33 1.57h-8.48l1.23-2.8h8.69c.75 0 1.3.62.89 1.23z" fill="#86b52c"/><path d="m160.88 166.98h-8.14l-16.01 16.48h5.47l3.28-3.35h10.81l.14 3.35h5.75zm-4.85 9.57h-7.18l6.02-6.16h1.03l.21 6.16h-.07z" fill="#86b52c"/><path d="m155.82 170.4.21 6.15h.06l-.2-6.15z" fill="#86b52c"/><path d="m179.08 176.76-10.4-.34c-1.5-.07-2.46-1.64-1.85-3.01l1.64-3.56c.27-.48.75-1.3 1.71-1.98 1.16-.82 2.26-1.03 2.8-1.09 1.85-.21 3.9-.27 6.09-.27 2.53 0 4.86.21 6.91.48.07 0 1.09.07 1.57.96.41.75.14 1.44.14 1.57l-.96 2.19h-4.86l.07-.21c.21-.48-.14-1.09-.68-1.09h-7.59c-.48 0-.96.27-1.09.75l-.27.55c-.27.55.14 1.16.68 1.16l10.33.34c1.5.07 2.53 1.64 1.92 3.01l-1.3 2.87c-1.09 2.46-3.49 4.04-6.22 4.04h-12.31c-1.37 0-2.33-1.44-1.71-2.67l1.23-2.8h4.65l-.34.75c-.21.55.14 1.09.75 1.09h7.73c.75 0 1.5-.48 1.78-1.23l.21-.48c.21-.48-.14-1.03-.62-1.03z" fill="#86b52c"/><path d="m214.71 176.55 5.82-3.55h-27.09l1.1-2.4h13.06l1.64-3.62h-17.99l-7.11 16.14h4.85 13.14l1.5-3.56h-13.06l1.3-3.01z" fill="#86b52c"/><g fill="#0045a7"><path d="m142.82 202.14.68 5.54c-1.92.62-4.51 1.3-7.11 1.3-5.88 0-9.64-3.28-9.64-9.3 0-7.11 5.2-11.97 12.45-11.97 2.6 0 5.06.62 6.77 1.3l-2.26 5.4c-.89-.41-2.19-.75-3.63-.75-3.56 0-5.68 2.19-5.68 5.2 0 2.74 1.71 4.1 4.58 4.1 1.37-.07 2.8-.41 3.83-.82z"/><path d="m153.77 202.75h7.39l-.82 5.75h-14.84l2.87-20.45h7.52l-2.12 14.71z"/><path d="m183.59 188.05-1.71 12.38c-.82 5.81-4.72 8.48-10.6 8.48s-9.03-2.67-8.21-8.48l1.71-12.38h7.52l-1.71 12.31c-.21 1.44 0 2.53 1.57 2.53s2.05-1.09 2.26-2.53l1.71-12.31s7.46 0 7.46 0z"/><path d="m190.64 208.91c-2.53 0-5.2-.21-6.77-.41l2.87-20.32c1.57-.21 4.31-.55 6.84-.55 4.79 0 9.85 1.09 9.85 5.47 0 2.67-1.57 4.24-3.28 5.06 1.09.27 3.01 1.5 3.01 4.04-.14 5.54-5.95 6.7-12.52 6.7zm5.47-7.25c0-1.44-1.57-1.64-2.67-1.64-.27 0-.96 0-1.23.07l-.55 3.63h1.3c1.23.07 3.15-.34 3.15-2.05zm-3.35-5.61h1.03c1.23 0 2.74-.34 2.74-1.98 0-1.16-1.16-1.44-2.12-1.44-.27 0-.89 0-1.16.07l-.48 3.35z"/><path d="m119.84 28.24c0 2.64-2.16 4.8-4.8 4.8s-4.8-2.16-4.8-4.8 2.16-4.8 4.8-4.8 4.8 2.16 4.8 4.8z"/><path d="m168.04 28.24c0 2.64-2.16 4.8-4.8 4.8s-4.8-2.16-4.8-4.8 2.16-4.8 4.8-4.8 4.8 2.16 4.8 4.8z"/><path d="m177.64 28.24c0 2.64-2.16 4.8-4.8 4.8s-4.8-2.16-4.8-4.8 2.16-4.8 4.8-4.8 4.8 2.16 4.8 4.8z"/><path d="m187.24 28.24c0 2.64-2.16 4.8-4.8 4.8s-4.8-2.16-4.8-4.8 2.16-4.8 4.8-4.8 4.8 2.16 4.8 4.8z"/><path d="m206.64 28.24c0 2.64-2.16 4.8-4.8 4.8s-4.8-2.16-4.8-4.8 2.16-4.8 4.8-4.8 4.8 2.16 4.8 4.8z"/><path d="m216.24 28.24c0 2.64-2.16 4.8-4.8 4.8s-4.8-2.16-4.8-4.8 2.16-4.8 4.8-4.8 4.8 2.16 4.8 4.8z"/><path d="m110.24 38.04c0 2.64-2.16 4.8-4.8 4.8s-4.8-2.16-4.8-4.8 2.16-4.8 4.8-4.8 4.8 2.16 4.8 4.8z"/><path d="m119.84 38.04c0 2.64-2.16 4.8-4.8 4.8s-4.8-2.16-4.8-4.8 2.16-4.8 4.8-4.8 4.8 2.16 4.8 4.8z"/><path d="m129.44 38.04c0 2.64-2.16 4.8-4.8 4.8s-4.8-2.16-4.8-4.8 2.16-4.8 4.8-4.8 4.8 2.16 4.8 4.8z"/><path d="m139.04 38.04c0 2.64-2.16 4.8-4.8 4.8s-4.8-2.16-4.8-4.8 2.16-4.8 4.8-4.8 4.8 2.16 4.8 4.8z"/><path d="m158.44 38.04c0 2.64-2.16 4.8-4.8 4.8s-4.8-2.16-4.8-4.8 2.16-4.8 4.8-4.8 4.8 2.16 4.8 4.8z"/><path d="m168.04 38.04c0 2.64-2.16 4.8-4.8 4.8s-4.8-2.16-4.8-4.8 2.16-4.8 4.8-4.8 4.8 2.16 4.8 4.8z"/><path d="m187.24 38.04c0 2.64-2.16 4.8-4.8 4.8s-4.8-2.16-4.8-4.8 2.16-4.8 4.8-4.8 4.8 2.16 4.8 4.8z"/><path d="m225.94 38.04c0 2.64-2.16 4.8-4.8 4.8s-4.8-2.16-4.8-4.8 2.16-4.8 4.8-4.8 4.8 2.16 4.8 4.8z"/><path d="m119.84 47.64c0 2.64-2.16 4.8-4.8 4.8s-4.8-2.16-4.8-4.8 2.16-4.8 4.8-4.8 4.8 2.16 4.8 4.8z"/><path d="m139.04 47.64c0 2.64-2.16 4.8-4.8 4.8s-4.8-2.16-4.8-4.8 2.16-4.8 4.8-4.8 4.8 2.16 4.8 4.8z"/><path d="m148.84 47.64c0 2.64-2.16 4.8-4.8 4.8s-4.8-2.16-4.8-4.8 2.16-4.8 4.8-4.8 4.8 2.16 4.8 4.8z"/><path d="m158.44 47.64c0 2.64-2.16 4.8-4.8 4.8s-4.8-2.16-4.8-4.8 2.16-4.8 4.8-4.8 4.8 2.16 4.8 4.8z"/><path d="m168.04 47.64c0 2.64-2.16 4.8-4.8 4.8s-4.8-2.16-4.8-4.8 2.16-4.8 4.8-4.8 4.8 2.16 4.8 4.8z"/><path d="m187.24 47.64c0 2.64-2.16 4.8-4.8 4.8s-4.8-2.16-4.8-4.8 2.16-4.8 4.8-4.8 4.8 2.16 4.8 4.8z"/><path d="m206.64 47.64c0 2.64-2.16 4.8-4.8 4.8s-4.8-2.16-4.8-4.8 2.16-4.8 4.8-4.8 4.8 2.16 4.8 4.8z"/><path d="m225.94 47.64c0 2.64-2.16 4.8-4.8 4.8s-4.8-2.16-4.8-4.8 2.16-4.8 4.8-4.8 4.8 2.16 4.8 4.8z"/><path d="m110.24 57.24c0 2.64-2.16 4.8-4.8 4.8s-4.8-2.16-4.8-4.8 2.16-4.8 4.8-4.8 4.8 2.16 4.8 4.8z"/><path d="m139.04 57.24c0 2.64-2.16 4.8-4.8 4.8s-4.8-2.16-4.8-4.8 2.16-4.8 4.8-4.8 4.8 2.16 4.8 4.8z"/><path d="m148.84 57.24c0 2.64-2.16 4.8-4.8 4.8s-4.8-2.16-4.8-4.8 2.16-4.8 4.8-4.8 4.8 2.16 4.8 4.8z"/><path d="m158.44 57.24c0 2.64-2.16 4.8-4.8 4.8s-4.8-2.16-4.8-4.8 2.16-4.8 4.8-4.8 4.8 2.16 4.8 4.8z"/><path d="m197.04 57.24c0 2.64-2.16 4.8-4.8 4.8s-4.8-2.16-4.8-4.8 2.16-4.8 4.8-4.8 4.8 2.16 4.8 4.8z"/><path d="m216.24 57.24c0 2.64-2.16 4.8-4.8 4.8s-4.8-2.16-4.8-4.8 2.16-4.8 4.8-4.8 4.8 2.16 4.8 4.8z"/><path d="m225.94 57.24c0 2.64-2.16 4.8-4.8 4.8s-4.8-2.16-4.8-4.8 2.16-4.8 4.8-4.8 4.8 2.16 4.8 4.8z"/><path d="m110.24 66.84c0 2.64-2.16 4.8-4.8 4.8s-4.8-2.16-4.8-4.8 2.16-4.8 4.8-4.8 4.8 2.16 4.8 4.8z"/><path d="m119.84 66.84c0 2.64-2.16 4.8-4.8 4.8s-4.8-2.16-4.8-4.8 2.16-4.8 4.8-4.8 4.8 2.16 4.8 4.8z"/><path d="m129.44 66.84c0 2.64-2.16 4.8-4.8 4.8s-4.8-2.16-4.8-4.8 2.16-4.8 4.8-4.8 4.8 2.16 4.8 4.8z"/><path d="m139.04 66.84c0 2.64-2.16 4.8-4.8 4.8s-4.8-2.16-4.8-4.8 2.16-4.8 4.8-4.8 4.8 2.16 4.8 4.8z"/><path d="m168.04 66.84c0 2.64-2.16 4.8-4.8 4.8s-4.8-2.16-4.8-4.8 2.16-4.8 4.8-4.8 4.8 2.16 4.8 4.8z"/><path d="m177.64 66.84c0 2.64-2.16 4.8-4.8 4.8s-4.8-2.16-4.8-4.8 2.16-4.8 4.8-4.8 4.8 2.16 4.8 4.8z"/><path d="m187.24 66.84c0 2.64-2.16 4.8-4.8 4.8s-4.8-2.16-4.8-4.8 2.16-4.8 4.8-4.8 4.8 2.16 4.8 4.8z"/><path d="m197.04 66.84c0 2.64-2.16 4.8-4.8 4.8s-4.8-2.16-4.8-4.8 2.16-4.8 4.8-4.8 4.8 2.16 4.8 4.8z"/><path d="m206.64 66.84c0 2.64-2.16 4.8-4.8 4.8s-4.8-2.16-4.8-4.8 2.16-4.8 4.8-4.8 4.8 2.16 4.8 4.8z"/><path d="m216.24 66.84c0 2.64-2.16 4.8-4.8 4.8s-4.8-2.16-4.8-4.8 2.16-4.8 4.8-4.8 4.8 2.16 4.8 4.8z"/><path d="m119.84 76.44c0 2.64-2.16 4.8-4.8 4.8s-4.8-2.16-4.8-4.8 2.16-4.8 4.8-4.8 4.8 2.16 4.8 4.8z"/><path d="m129.44 76.44c0 2.64-2.16 4.8-4.8 4.8s-4.8-2.16-4.8-4.8 2.16-4.8 4.8-4.8 4.8 2.16 4.8 4.8z"/><path d="m139.04 76.44c0 2.64-2.16 4.8-4.8 4.8s-4.8-2.16-4.8-4.8 2.16-4.8 4.8-4.8 4.8 2.16 4.8 4.8z"/><path d="m168.04 76.44c0 2.64-2.16 4.8-4.8 4.8s-4.8-2.16-4.8-4.8 2.16-4.8 4.8-4.8 4.8 2.16 4.8 4.8z"/><path d="m197.04 76.44c0 2.64-2.16 4.8-4.8 4.8s-4.8-2.16-4.8-4.8 2.16-4.8 4.8-4.8 4.8 2.16 4.8 4.8z"/><path d="m206.64 76.44c0 2.64-2.16 4.8-4.8 4.8s-4.8-2.16-4.8-4.8 2.16-4.8 4.8-4.8 4.8 2.16 4.8 4.8z"/><path d="m225.94 76.44c0 2.64-2.16 4.8-4.8 4.8s-4.8-2.16-4.8-4.8 2.16-4.8 4.8-4.8 4.8 2.16 4.8 4.8z"/><path d="m110.24 86.24c0 2.64-2.16 4.8-4.8 4.8s-4.8-2.16-4.8-4.8 2.16-4.8 4.8-4.8 4.8 2.16 4.8 4.8z"/><path d="m129.44 86.24c0 2.64-2.16 4.8-4.8 4.8s-4.8-2.16-4.8-4.8 2.16-4.8 4.8-4.8 4.8 2.16 4.8 4.8z"/><path d="m148.84 86.24c0 2.64-2.16 4.8-4.8 4.8s-4.8-2.16-4.8-4.8 2.16-4.8 4.8-4.8 4.8 2.16 4.8 4.8z"/><path d="m168.04 86.24c0 2.64-2.16 4.8-4.8 4.8s-4.8-2.16-4.8-4.8 2.16-4.8 4.8-4.8 4.8 2.16 4.8 4.8z"/><path d="m187.24 86.24c0 2.64-2.16 4.8-4.8 4.8s-4.8-2.16-4.8-4.8 2.16-4.8 4.8-4.8 4.8 2.16 4.8 4.8z"/><path d="m206.64 86.24c0 2.64-2.16 4.8-4.8 4.8s-4.8-2.16-4.8-4.8 2.16-4.8 4.8-4.8 4.8 2.16 4.8 4.8z"/><path d="m225.94 86.24c0 2.64-2.16 4.8-4.8 4.8s-4.8-2.16-4.8-4.8 2.16-4.8 4.8-4.8 4.8 2.16 4.8 4.8z"/><path d="m110.24 95.84c0 2.64-2.16 4.8-4.8 4.8s-4.8-2.16-4.8-4.8 2.16-4.8 4.8-4.8 4.8 2.16 4.8 4.8z"/><path d="m119.84 95.84c0 2.64-2.16 4.8-4.8 4.8s-4.8-2.16-4.8-4.8 2.16-4.8 4.8-4.8 4.8 2.16 4.8 4.8z"/><path d="m139.04 95.84c0 2.64-2.16 4.8-4.8 4.8s-4.8-2.16-4.8-4.8 2.16-4.8 4.8-4.8 4.8 2.16 4.8 4.8z"/><path d="m148.84 95.84c0 2.64-2.16 4.8-4.8 4.8s-4.8-2.16-4.8-4.8 2.16-4.8 4.8-4.8 4.8 2.16 4.8 4.8z"/><path d="m158.44 95.84c0 2.64-2.16 4.8-4.8 4.8s-4.8-2.16-4.8-4.8 2.16-4.8 4.8-4.8 4.8 2.16 4.8 4.8z"/><path d="m168.04 95.84c0 2.64-2.16 4.8-4.8 4.8s-4.8-2.16-4.8-4.8 2.16-4.8 4.8-4.8 4.8 2.16 4.8 4.8z"/><path d="m216.24 95.84c0 2.64-2.16 4.8-4.8 4.8s-4.8-2.16-4.8-4.8 2.16-4.8 4.8-4.8 4.8 2.16 4.8 4.8z"/><path d="m42.64 105.44c0 2.64-2.16 4.8-4.8 4.8s-4.8-2.16-4.8-4.8 2.16-4.8 4.8-4.8 4.8 2.16 4.8 4.8z"/><path d="m62.04 105.44c0 2.64-2.16 4.8-4.8 4.8s-4.8-2.16-4.8-4.8 2.16-4.8 4.8-4.8 4.8 2.16 4.8 4.8z"/><path d="m71.64 105.44c0 2.64-2.16 4.8-4.8 4.8s-4.8-2.16-4.8-4.8 2.16-4.8 4.8-4.8 4.8 2.16 4.8 4.8z"/><path d="m81.34 105.44c0 2.64-2.16 4.8-4.8 4.8s-4.8-2.16-4.8-4.8 2.16-4.8 4.8-4.8 4.8 2.16 4.8 4.8z"/><path d="m90.94 105.44c0 2.64-2.16 4.8-4.8 4.8s-4.8-2.16-4.8-4.8 2.16-4.8 4.8-4.8 4.8 2.16 4.8 4.8z"/><path d="m216.44 105.44c0-2.64 2.16-4.8 4.8-4.8s4.8 2.16 4.8 4.8-2.16 4.8-4.8 4.8-4.8-2.16-4.8-4.8z"/><path d="m206.84 105.44c0-2.64 2.16-4.8 4.8-4.8s4.8 2.16 4.8 4.8-2.16 4.8-4.8 4.8-4.8-2.16-4.8-4.8z"/><path d="m168.24 105.44c0-2.64 2.16-4.8 4.8-4.8s4.8 2.16 4.8 4.8-2.16 4.8-4.8 4.8-4.8-2.16-4.8-4.8z"/><path d="m158.64 105.44c0-2.64 2.16-4.8 4.8-4.8s4.8 2.16 4.8 4.8-2.16 4.8-4.8 4.8-4.8-2.16-4.8-4.8z"/><path d="m149.04 105.44c0-2.64 2.16-4.8 4.8-4.8s4.8 2.16 4.8 4.8-2.16 4.8-4.8 4.8-4.8-2.16-4.8-4.8z"/><path d="m139.44 105.44c0-2.64 2.16-4.8 4.8-4.8s4.8 2.16 4.8 4.8-2.16 4.8-4.8 4.8-4.8-2.16-4.8-4.8z"/><path d="m120.04 105.44c0-2.64 2.16-4.8 4.8-4.8s4.8 2.16 4.8 4.8-2.16 4.8-4.8 4.8-4.8-2.16-4.8-4.8z"/><path d="m110.44 105.44c0-2.64 2.16-4.8 4.8-4.8s4.8 2.16 4.8 4.8-2.16 4.8-4.8 4.8-4.8-2.16-4.8-4.8z"/><path d="m100.74 105.44c0-2.64 2.16-4.8 4.8-4.8s4.8 2.16 4.8 4.8-2.16 4.8-4.8 4.8-4.8-2.16-4.8-4.8z"/><path d="m235.74 105.44c0 2.64-2.16 4.8-4.8 4.8s-4.8-2.16-4.8-4.8 2.16-4.8 4.8-4.8 4.8 2.16 4.8 4.8z"/><path d="m245.34 105.44c0 2.64-2.16 4.8-4.8 4.8s-4.8-2.16-4.8-4.8 2.16-4.8 4.8-4.8 4.8 2.16 4.8 4.8z"/><path d="m264.64 105.44c0 2.64-2.16 4.8-4.8 4.8s-4.8-2.16-4.8-4.8 2.16-4.8 4.8-4.8 4.8 2.16 4.8 4.8z"/><path d="m274.24 105.44c0 2.64-2.16 4.8-4.8 4.8s-4.8-2.16-4.8-4.8 2.16-4.8 4.8-4.8 4.8 2.16 4.8 4.8z"/><path d="m293.64 105.44c0 2.64-2.16 4.8-4.8 4.8s-4.8-2.16-4.8-4.8 2.16-4.8 4.8-4.8 4.8 2.16 4.8 4.8z"/><path d="m33.04 115.14c0 2.64-2.16 4.8-4.8 4.8s-4.8-2.16-4.8-4.8 2.16-4.8 4.8-4.8 4.8 2.16 4.8 4.8z"/><path d="m42.64 115.14c0 2.64-2.16 4.8-4.8 4.8s-4.8-2.16-4.8-4.8 2.16-4.8 4.8-4.8 4.8 2.16 4.8 4.8z"/><path d="m52.44 115.14c0 2.64-2.16 4.8-4.8 4.8s-4.8-2.16-4.8-4.8 2.16-4.8 4.8-4.8 4.8 2.16 4.8 4.8z"/><path d="m71.64 115.14c0 2.64-2.16 4.8-4.8 4.8s-4.8-2.16-4.8-4.8 2.16-4.8 4.8-4.8 4.8 2.16 4.8 4.8z"/><path d="m81.34 115.14c0 2.64-2.16 4.8-4.8 4.8s-4.8-2.16-4.8-4.8 2.16-4.8 4.8-4.8 4.8 2.16 4.8 4.8z"/><path d="m100.64 115.14c0 2.64-2.16 4.8-4.8 4.8s-4.8-2.16-4.8-4.8 2.16-4.8 4.8-4.8 4.8 2.16 4.8 4.8z"/><path d="m197.24 115.14c0-2.64 2.16-4.8 4.8-4.8s4.8 2.16 4.8 4.8-2.16 4.8-4.8 4.8-4.8-2.16-4.8-4.8z"/><path d="m100.74 115.14c0-2.64 2.16-4.8 4.8-4.8s4.8 2.16 4.8 4.8-2.16 4.8-4.8 4.8-4.8-2.16-4.8-4.8z"/><path d="m255.04 115.14c0 2.64-2.16 4.8-4.8 4.8s-4.8-2.16-4.8-4.8 2.16-4.8 4.8-4.8 4.8 2.16 4.8 4.8z"/><path d="m264.64 115.14c0 2.64-2.16 4.8-4.8 4.8s-4.8-2.16-4.8-4.8 2.16-4.8 4.8-4.8 4.8 2.16 4.8 4.8z"/><path d="m274.24 115.14c0 2.64-2.16 4.8-4.8 4.8s-4.8-2.16-4.8-4.8 2.16-4.8 4.8-4.8 4.8 2.16 4.8 4.8z"/><path d="m293.64 115.14c0 2.64-2.16 4.8-4.8 4.8s-4.8-2.16-4.8-4.8 2.16-4.8 4.8-4.8 4.8 2.16 4.8 4.8z"/><path d="m33.04 124.74c0 2.64-2.16 4.8-4.8 4.8s-4.8-2.16-4.8-4.8 2.16-4.8 4.8-4.8 4.8 2.16 4.8 4.8z"/><path d="m42.64 124.74c0 2.64-2.16 4.8-4.8 4.8s-4.8-2.16-4.8-4.8 2.16-4.8 4.8-4.8 4.8 2.16 4.8 4.8z"/><path d="m71.64 124.74c0 2.64-2.16 4.8-4.8 4.8s-4.8-2.16-4.8-4.8 2.16-4.8 4.8-4.8 4.8 2.16 4.8 4.8z"/><path d="m90.94 124.74c0 2.64-2.16 4.8-4.8 4.8s-4.8-2.16-4.8-4.8 2.16-4.8 4.8-4.8 4.8 2.16 4.8 4.8z"/><path d="m216.44 124.74c0-2.64 2.16-4.8 4.8-4.8s4.8 2.16 4.8 4.8-2.16 4.8-4.8 4.8-4.8-2.16-4.8-4.8z"/><path d="m245.34 124.74c0 2.64-2.16 4.8-4.8 4.8s-4.8-2.16-4.8-4.8 2.16-4.8 4.8-4.8 4.8 2.16 4.8 4.8z"/><path d="m255.04 124.74c0 2.64-2.16 4.8-4.8 4.8s-4.8-2.16-4.8-4.8 2.16-4.8 4.8-4.8 4.8 2.16 4.8 4.8z"/><path d="m264.64 124.74c0 2.64-2.16 4.8-4.8 4.8s-4.8-2.16-4.8-4.8 2.16-4.8 4.8-4.8 4.8 2.16 4.8 4.8z"/><path d="m274.24 124.74c0 2.64-2.16 4.8-4.8 4.8s-4.8-2.16-4.8-4.8 2.16-4.8 4.8-4.8 4.8 2.16 4.8 4.8z"/><path d="m33.04 134.44c0 2.64-2.16 4.8-4.8 4.8s-4.8-2.16-4.8-4.8 2.16-4.8 4.8-4.8 4.8 2.16 4.8 4.8z"/><path d="m42.64 134.44c0 2.64-2.16 4.8-4.8 4.8s-4.8-2.16-4.8-4.8 2.16-4.8 4.8-4.8 4.8 2.16 4.8 4.8z"/><path d="m52.44 134.44c0 2.64-2.16 4.8-4.8 4.8s-4.8-2.16-4.8-4.8 2.16-4.8 4.8-4.8 4.8 2.16 4.8 4.8z"/><path d="m62.04 134.44c0 2.64-2.16 4.8-4.8 4.8s-4.8-2.16-4.8-4.8 2.16-4.8 4.8-4.8 4.8 2.16 4.8 4.8z"/><path d="m71.64 134.44c0 2.64-2.16 4.8-4.8 4.8s-4.8-2.16-4.8-4.8 2.16-4.8 4.8-4.8 4.8 2.16 4.8 4.8z"/><path d="m255.04 134.44c0 2.64-2.16 4.8-4.8 4.8s-4.8-2.16-4.8-4.8 2.16-4.8 4.8-4.8 4.8 2.16 4.8 4.8z"/><path d="m264.64 134.44c0 2.64-2.16 4.8-4.8 4.8s-4.8-2.16-4.8-4.8 2.16-4.8 4.8-4.8 4.8 2.16 4.8 4.8z"/><path d="m274.24 134.44c0 2.64-2.16 4.8-4.8 4.8s-4.8-2.16-4.8-4.8 2.16-4.8 4.8-4.8 4.8 2.16 4.8 4.8z"/><path d="m303.24 134.44c0 2.64-2.16 4.8-4.8 4.8s-4.8-2.16-4.8-4.8 2.16-4.8 4.8-4.8 4.8 2.16 4.8 4.8z"/><path d="m62.04 144.14c0 2.64-2.16 4.8-4.8 4.8s-4.8-2.16-4.8-4.8 2.16-4.8 4.8-4.8 4.8 2.16 4.8 4.8z"/><path d="m71.64 144.14c0 2.64-2.16 4.8-4.8 4.8s-4.8-2.16-4.8-4.8 2.16-4.8 4.8-4.8 4.8 2.16 4.8 4.8z"/><path d="m81.34 144.14c0 2.64-2.16 4.8-4.8 4.8s-4.8-2.16-4.8-4.8 2.16-4.8 4.8-4.8 4.8 2.16 4.8 4.8z"/><path d="m90.94 144.14c0 2.64-2.16 4.8-4.8 4.8s-4.8-2.16-4.8-4.8 2.16-4.8 4.8-4.8 4.8 2.16 4.8 4.8z"/><path d="m149.04 144.14c0-2.64 2.16-4.8 4.8-4.8s4.8 2.16 4.8 4.8-2.16 4.8-4.8 4.8-4.8-2.16-4.8-4.8z"/><path d="m245.34 144.14c0 2.64-2.16 4.8-4.8 4.8s-4.8-2.16-4.8-4.8 2.16-4.8 4.8-4.8 4.8 2.16 4.8 4.8z"/><path d="m255.04 144.14c0 2.64-2.16 4.8-4.8 4.8s-4.8-2.16-4.8-4.8 2.16-4.8 4.8-4.8 4.8 2.16 4.8 4.8z"/><path d="m274.24 144.14c0 2.64-2.16 4.8-4.8 4.8s-4.8-2.16-4.8-4.8 2.16-4.8 4.8-4.8 4.8 2.16 4.8 4.8z"/><path d="m293.64 144.14c0 2.64-2.16 4.8-4.8 4.8s-4.8-2.16-4.8-4.8 2.16-4.8 4.8-4.8 4.8 2.16 4.8 4.8z"/></g><path d="m33.04 153.74c0 2.64-2.16 4.8-4.8 4.8s-4.8-2.16-4.8-4.8 2.16-4.8 4.8-4.8 4.8 2.16 4.8 4.8z" fill="#86b52c"/><path d="m62.04 153.74c0 2.64-2.16 4.8-4.8 4.8s-4.8-2.16-4.8-4.8 2.16-4.8 4.8-4.8 4.8 2.16 4.8 4.8z" fill="#0045a7"/><path d="m187.64 153.74c0-2.64 2.16-4.8 4.8-4.8s4.8 2.16 4.8 4.8-2.16 4.8-4.8 4.8-4.8-2.16-4.8-4.8z" fill="#0045a7"/><path d="m139.44 153.74c0-2.64 2.16-4.8 4.8-4.8s4.8 2.16 4.8 4.8-2.16 4.8-4.8 4.8-4.8-2.16-4.8-4.8z" fill="#0045a7"/><path d="m129.64 153.74c0-2.64 2.16-4.8 4.8-4.8s4.8 2.16 4.8 4.8-2.16 4.8-4.8 4.8-4.8-2.16-4.8-4.8z" fill="#0045a7"/><path d="m245.34 153.74c0 2.64-2.16 4.8-4.8 4.8s-4.8-2.16-4.8-4.8 2.16-4.8 4.8-4.8 4.8 2.16 4.8 4.8z" fill="#0045a7"/><path d="m264.64 153.74c0 2.64-2.16 4.8-4.8 4.8s-4.8-2.16-4.8-4.8 2.16-4.8 4.8-4.8 4.8 2.16 4.8 4.8z" fill="#0045a7"/><path d="m284.04 153.74c0 2.64-2.16 4.8-4.8 4.8s-4.8-2.16-4.8-4.8 2.16-4.8 4.8-4.8 4.8 2.16 4.8 4.8z" fill="#0045a7"/><path d="m303.24 153.74c0 2.64-2.16 4.8-4.8 4.8s-4.8-2.16-4.8-4.8 2.16-4.8 4.8-4.8 4.8 2.16 4.8 4.8z" fill="#0045a7"/><path d="m42.64 163.34c0 2.64-2.16 4.8-4.8 4.8s-4.8-2.16-4.8-4.8 2.16-4.8 4.8-4.8 4.8 2.16 4.8 4.8z" fill="#0045a7"/><path d="m52.44 163.34c0 2.64-2.16 4.8-4.8 4.8s-4.8-2.16-4.8-4.8 2.16-4.8 4.8-4.8 4.8 2.16 4.8 4.8z" fill="#0045a7"/><path d="m71.64 163.34c0 2.64-2.16 4.8-4.8 4.8s-4.8-2.16-4.8-4.8 2.16-4.8 4.8-4.8 4.8 2.16 4.8 4.8z" fill="#0045a7"/><path d="m90.94 163.34c0 2.64-2.16 4.8-4.8 4.8s-4.8-2.16-4.8-4.8 2.16-4.8 4.8-4.8 4.8 2.16 4.8 4.8z" fill="#0045a7"/><path d="m274.24 163.34c0 2.64-2.16 4.8-4.8 4.8s-4.8-2.16-4.8-4.8 2.16-4.8 4.8-4.8 4.8 2.16 4.8 4.8z" fill="#0045a7"/><path d="m293.64 163.34c0 2.64-2.16 4.8-4.8 4.8s-4.8-2.16-4.8-4.8 2.16-4.8 4.8-4.8 4.8 2.16 4.8 4.8z" fill="#0045a7"/><path d="m303.24 163.34c0 2.64-2.16 4.8-4.8 4.8s-4.8-2.16-4.8-4.8 2.16-4.8 4.8-4.8 4.8 2.16 4.8 4.8z" fill="#0045a7"/><path d="m33.04 173.14c0 2.64-2.16 4.8-4.8 4.8s-4.8-2.16-4.8-4.8 2.16-4.8 4.8-4.8 4.8 2.16 4.8 4.8z" fill="#0045a7"/><path d="m42.64 173.14c0 2.64-2.16 4.8-4.8 4.8s-4.8-2.16-4.8-4.8 2.16-4.8 4.8-4.8 4.8 2.16 4.8 4.8z" fill="#0045a7"/><path d="m71.64 173.14c0 2.64-2.16 4.8-4.8 4.8s-4.8-2.16-4.8-4.8 2.16-4.8 4.8-4.8 4.8 2.16 4.8 4.8z" fill="#0045a7"/><path d="m81.34 173.14c0 2.64-2.16 4.8-4.8 4.8s-4.8-2.16-4.8-4.8 2.16-4.8 4.8-4.8 4.8 2.16 4.8 4.8z" fill="#0045a7"/><path d="m100.64 173.14c0 2.64-2.16 4.8-4.8 4.8s-4.8-2.16-4.8-4.8 2.16-4.8 4.8-4.8 4.8 2.16 4.8 4.8z" fill="#0045a7"/><path d="m274.24 173.14c0 2.64-2.16 4.8-4.8 4.8s-4.8-2.16-4.8-4.8 2.16-4.8 4.8-4.8 4.8 2.16 4.8 4.8z" fill="#0045a7"/><path d="m284.04 173.14c0 2.64-2.16 4.8-4.8 4.8s-4.8-2.16-4.8-4.8 2.16-4.8 4.8-4.8 4.8 2.16 4.8 4.8z" fill="#0045a7"/><path d="m293.64 173.14c0 2.64-2.16 4.8-4.8 4.8s-4.8-2.16-4.8-4.8 2.16-4.8 4.8-4.8 4.8 2.16 4.8 4.8z" fill="#0045a7"/><path d="m33.04 182.74c0 2.64-2.16 4.8-4.8 4.8s-4.8-2.16-4.8-4.8 2.16-4.8 4.8-4.8 4.8 2.16 4.8 4.8z" fill="#0045a7"/><path d="m42.64 182.74c0 2.64-2.16 4.8-4.8 4.8s-4.8-2.16-4.8-4.8 2.16-4.8 4.8-4.8 4.8 2.16 4.8 4.8z" fill="#0045a7"/><path d="m71.64 182.74c0 2.64-2.16 4.8-4.8 4.8s-4.8-2.16-4.8-4.8 2.16-4.8 4.8-4.8 4.8 2.16 4.8 4.8z" fill="#0045a7"/><path d="m81.34 182.74c0 2.64-2.16 4.8-4.8 4.8s-4.8-2.16-4.8-4.8 2.16-4.8 4.8-4.8 4.8 2.16 4.8 4.8z" fill="#0045a7"/><path d="m90.94 182.74c0 2.64-2.16 4.8-4.8 4.8s-4.8-2.16-4.8-4.8 2.16-4.8 4.8-4.8 4.8 2.16 4.8 4.8z" fill="#0045a7"/><path d="m274.24 182.74c0 2.64-2.16 4.8-4.8 4.8s-4.8-2.16-4.8-4.8 2.16-4.8 4.8-4.8 4.8 2.16 4.8 4.8z" fill="#0045a7"/><path d="m303.24 182.74c0 2.64-2.16 4.8-4.8 4.8s-4.8-2.16-4.8-4.8 2.16-4.8 4.8-4.8 4.8 2.16 4.8 4.8z" fill="#0045a7"/><path d="m33.04 192.34c0 2.64-2.16 4.8-4.8 4.8s-4.8-2.16-4.8-4.8 2.16-4.8 4.8-4.8 4.8 2.16 4.8 4.8z" fill="#0045a7"/><path d="m52.44 192.34c0 2.64-2.16 4.8-4.8 4.8s-4.8-2.16-4.8-4.8 2.16-4.8 4.8-4.8 4.8 2.16 4.8 4.8z" fill="#0045a7"/><path d="m71.64 192.34c0 2.64-2.16 4.8-4.8 4.8s-4.8-2.16-4.8-4.8 2.16-4.8 4.8-4.8 4.8 2.16 4.8 4.8z" fill="#0045a7"/><path d="m216.44 192.34c0-2.64 2.16-4.8 4.8-4.8s4.8 2.16 4.8 4.8-2.16 4.8-4.8 4.8-4.8-2.16-4.8-4.8z" fill="#0045a7"/><path d="m100.74 192.34c0-2.64 2.16-4.8 4.8-4.8s4.8 2.16 4.8 4.8-2.16 4.8-4.8 4.8-4.8-2.16-4.8-4.8z" fill="#0045a7"/><path d="m235.74 192.34c0 2.64-2.16 4.8-4.8 4.8s-4.8-2.16-4.8-4.8 2.16-4.8 4.8-4.8 4.8 2.16 4.8 4.8z" fill="#0045a7"/><path d="m264.64 192.34c0 2.64-2.16 4.8-4.8 4.8s-4.8-2.16-4.8-4.8 2.16-4.8 4.8-4.8 4.8 2.16 4.8 4.8z" fill="#0045a7"/><path d="m284.04 192.34c0 2.64-2.16 4.8-4.8 4.8s-4.8-2.16-4.8-4.8 2.16-4.8 4.8-4.8 4.8 2.16 4.8 4.8z" fill="#0045a7"/><path d="m33.04 201.94c0 2.64-2.16 4.8-4.8 4.8s-4.8-2.16-4.8-4.8 2.16-4.8 4.8-4.8 4.8 2.16 4.8 4.8z" fill="#0045a7"/><path d="m52.44 201.94c0 2.64-2.16 4.8-4.8 4.8s-4.8-2.16-4.8-4.8 2.16-4.8 4.8-4.8 4.8 2.16 4.8 4.8z" fill="#0045a7"/><path d="m62.04 201.94c0 2.64-2.16 4.8-4.8 4.8s-4.8-2.16-4.8-4.8 2.16-4.8 4.8-4.8 4.8 2.16 4.8 4.8z" fill="#0045a7"/><path d="m71.64 201.94c0 2.64-2.16 4.8-4.8 4.8s-4.8-2.16-4.8-4.8 2.16-4.8 4.8-4.8 4.8 2.16 4.8 4.8z" fill="#0045a7"/><path d="m81.34 201.94c0 2.64-2.16 4.8-4.8 4.8s-4.8-2.16-4.8-4.8 2.16-4.8 4.8-4.8 4.8 2.16 4.8 4.8z" fill="#0045a7"/><path d="m90.94 201.94c0 2.64-2.16 4.8-4.8 4.8s-4.8-2.16-4.8-4.8 2.16-4.8 4.8-4.8 4.8 2.16 4.8 4.8z" fill="#0045a7"/><path d="m100.74 201.94c0-2.64 2.16-4.8 4.8-4.8s4.8 2.16 4.8 4.8-2.16 4.8-4.8 4.8-4.8-2.16-4.8-4.8z" fill="#0045a7"/><path d="m274.24 201.94c0 2.64-2.16 4.8-4.8 4.8s-4.8-2.16-4.8-4.8 2.16-4.8 4.8-4.8 4.8 2.16 4.8 4.8z" fill="#0045a7"/><path d="m303.24 201.94c0 2.64-2.16 4.8-4.8 4.8s-4.8-2.16-4.8-4.8 2.16-4.8 4.8-4.8 4.8 2.16 4.8 4.8z" fill="#0045a7"/><path d="m52.44 211.54c0 2.64-2.16 4.8-4.8 4.8s-4.8-2.16-4.8-4.8 2.16-4.8 4.8-4.8 4.8 2.16 4.8 4.8z" fill="#0045a7"/><path d="m62.04 211.54c0 2.64-2.16 4.8-4.8 4.8s-4.8-2.16-4.8-4.8 2.16-4.8 4.8-4.8 4.8 2.16 4.8 4.8z" fill="#0045a7"/><path d="m81.34 211.54c0 2.64-2.16 4.8-4.8 4.8s-4.8-2.16-4.8-4.8 2.16-4.8 4.8-4.8 4.8 2.16 4.8 4.8z" fill="#0045a7"/><path d="m235.74 211.54c0 2.64-2.16 4.8-4.8 4.8s-4.8-2.16-4.8-4.8 2.16-4.8 4.8-4.8 4.8 2.16 4.8 4.8z" fill="#0045a7"/><path d="m245.34 211.54c0 2.64-2.16 4.8-4.8 4.8s-4.8-2.16-4.8-4.8 2.16-4.8 4.8-4.8 4.8 2.16 4.8 4.8z" fill="#0045a7"/><path d="m264.64 211.54c0 2.64-2.16 4.8-4.8 4.8s-4.8-2.16-4.8-4.8 2.16-4.8 4.8-4.8 4.8 2.16 4.8 4.8z" fill="#0045a7"/><path d="m284.04 211.54c0 2.64-2.16 4.8-4.8 4.8s-4.8-2.16-4.8-4.8 2.16-4.8 4.8-4.8 4.8 2.16 4.8 4.8z" fill="#0045a7"/><path d="m33.04 221.34c0 2.64-2.16 4.8-4.8 4.8s-4.8-2.16-4.8-4.8 2.16-4.8 4.8-4.8 4.8 2.16 4.8 4.8z" fill="#0045a7"/><path d="m42.64 221.34c0 2.64-2.16 4.8-4.8 4.8s-4.8-2.16-4.8-4.8 2.16-4.8 4.8-4.8 4.8 2.16 4.8 4.8z" fill="#0045a7"/><path d="m52.44 221.34c0 2.64-2.16 4.8-4.8 4.8s-4.8-2.16-4.8-4.8 2.16-4.8 4.8-4.8 4.8 2.16 4.8 4.8z" fill="#0045a7"/><path d="m62.04 221.34c0 2.64-2.16 4.8-4.8 4.8s-4.8-2.16-4.8-4.8 2.16-4.8 4.8-4.8 4.8 2.16 4.8 4.8z" fill="#0045a7"/><path d="m71.64 221.34c0 2.64-2.16 4.8-4.8 4.8s-4.8-2.16-4.8-4.8 2.16-4.8 4.8-4.8 4.8 2.16 4.8 4.8z" fill="#0045a7"/><path d="m90.94 221.34c0 2.64-2.16 4.8-4.8 4.8s-4.8-2.16-4.8-4.8 2.16-4.8 4.8-4.8 4.8 2.16 4.8 4.8z" fill="#0045a7"/><path d="m100.64 221.34c0 2.64-2.16 4.8-4.8 4.8s-4.8-2.16-4.8-4.8 2.16-4.8 4.8-4.8 4.8 2.16 4.8 4.8z" fill="#0045a7"/><path d="m216.44 221.34c0-2.64 2.16-4.8 4.8-4.8s4.8 2.16 4.8 4.8-2.16 4.8-4.8 4.8-4.8-2.16-4.8-4.8z" fill="#0045a7"/><path d="m206.84 221.34c0-2.64 2.16-4.8 4.8-4.8s4.8 2.16 4.8 4.8-2.16 4.8-4.8 4.8-4.8-2.16-4.8-4.8z" fill="#0045a7"/><path d="m187.64 221.34c0-2.64 2.16-4.8 4.8-4.8s4.8 2.16 4.8 4.8-2.16 4.8-4.8 4.8-4.8-2.16-4.8-4.8z" fill="#0045a7"/><path d="m168.24 221.34c0-2.64 2.16-4.8 4.8-4.8s4.8 2.16 4.8 4.8-2.16 4.8-4.8 4.8-4.8-2.16-4.8-4.8z" fill="#0045a7"/><path d="m149.04 221.34c0-2.64 2.16-4.8 4.8-4.8s4.8 2.16 4.8 4.8-2.16 4.8-4.8 4.8-4.8-2.16-4.8-4.8z" fill="#86b52c"/><path d="m129.64 221.34c0-2.64 2.16-4.8 4.8-4.8s4.8 2.16 4.8 4.8-2.16 4.8-4.8 4.8-4.8-2.16-4.8-4.8z" fill="#0045a7"/><path d="m100.74 221.34c0-2.64 2.16-4.8 4.8-4.8s4.8 2.16 4.8 4.8-2.16 4.8-4.8 4.8-4.8-2.16-4.8-4.8z" fill="#0045a7"/><path d="m235.74 221.34c0 2.64-2.16 4.8-4.8 4.8s-4.8-2.16-4.8-4.8 2.16-4.8 4.8-4.8 4.8 2.16 4.8 4.8z" fill="#0045a7"/><path d="m245.34 221.34c0 2.64-2.16 4.8-4.8 4.8s-4.8-2.16-4.8-4.8 2.16-4.8 4.8-4.8 4.8 2.16 4.8 4.8z" fill="#0045a7"/><path d="m255.04 221.34c0 2.64-2.16 4.8-4.8 4.8s-4.8-2.16-4.8-4.8 2.16-4.8 4.8-4.8 4.8 2.16 4.8 4.8z" fill="#0045a7"/><path d="m264.64 221.34c0 2.64-2.16 4.8-4.8 4.8s-4.8-2.16-4.8-4.8 2.16-4.8 4.8-4.8 4.8 2.16 4.8 4.8z" fill="#0045a7"/><path d="m284.04 221.34c0 2.64-2.16 4.8-4.8 4.8s-4.8-2.16-4.8-4.8 2.16-4.8 4.8-4.8 4.8 2.16 4.8 4.8z" fill="#0045a7"/><path d="m293.64 221.34c0 2.64-2.16 4.8-4.8 4.8s-4.8-2.16-4.8-4.8 2.16-4.8 4.8-4.8 4.8 2.16 4.8 4.8z" fill="#0045a7"/><path d="m110.24 230.94c0 2.64-2.16 4.8-4.8 4.8s-4.8-2.16-4.8-4.8 2.16-4.8 4.8-4.8 4.8 2.16 4.8 4.8z" fill="#0045a7"/><path d="m119.84 230.94c0 2.64-2.16 4.8-4.8 4.8s-4.8-2.16-4.8-4.8 2.16-4.8 4.8-4.8 4.8 2.16 4.8 4.8z" fill="#0045a7"/><path d="m129.44 230.94c0 2.64-2.16 4.8-4.8 4.8s-4.8-2.16-4.8-4.8 2.16-4.8 4.8-4.8 4.8 2.16 4.8 4.8z" fill="#0045a7"/><path d="m177.64 230.94c0 2.64-2.16 4.8-4.8 4.8s-4.8-2.16-4.8-4.8 2.16-4.8 4.8-4.8 4.8 2.16 4.8 4.8z" fill="#0045a7"/><path d="m206.64 230.94c0 2.64-2.16 4.8-4.8 4.8s-4.8-2.16-4.8-4.8 2.16-4.8 4.8-4.8 4.8 2.16 4.8 4.8z" fill="#0045a7"/><path d="m225.94 230.94c0 2.64-2.16 4.8-4.8 4.8s-4.8-2.16-4.8-4.8 2.16-4.8 4.8-4.8 4.8 2.16 4.8 4.8z" fill="#0045a7"/><path d="m62.04 230.94c0-2.64 2.16-4.8 4.8-4.8s4.8 2.16 4.8 4.8-2.16 4.8-4.8 4.8-4.8-2.16-4.8-4.8z" fill="#0045a7"/><path d="m52.44 230.94c0-2.64 2.16-4.8 4.8-4.8s4.8 2.16 4.8 4.8-2.16 4.8-4.8 4.8-4.8-2.16-4.8-4.8z" fill="#0045a7"/><path d="m42.64 230.94c0-2.64 2.16-4.8 4.8-4.8s4.8 2.16 4.8 4.8-2.16 4.8-4.8 4.8-4.8-2.16-4.8-4.8z" fill="#0045a7"/><path d="m119.84 240.54c0 2.64-2.16 4.8-4.8 4.8s-4.8-2.16-4.8-4.8 2.16-4.8 4.8-4.8 4.8 2.16 4.8 4.8z" fill="#0045a7"/><path d="m129.44 240.54c0 2.64-2.16 4.8-4.8 4.8s-4.8-2.16-4.8-4.8 2.16-4.8 4.8-4.8 4.8 2.16 4.8 4.8z" fill="#0045a7"/><path d="m148.84 240.54c0 2.64-2.16 4.8-4.8 4.8s-4.8-2.16-4.8-4.8 2.16-4.8 4.8-4.8 4.8 2.16 4.8 4.8z" fill="#0045a7"/><path d="m158.44 240.54c0 2.64-2.16 4.8-4.8 4.8s-4.8-2.16-4.8-4.8 2.16-4.8 4.8-4.8 4.8 2.16 4.8 4.8z" fill="#0045a7"/><path d="m168.04 240.54c0 2.64-2.16 4.8-4.8 4.8s-4.8-2.16-4.8-4.8 2.16-4.8 4.8-4.8 4.8 2.16 4.8 4.8z" fill="#0045a7"/><path d="m177.64 240.54c0 2.64-2.16 4.8-4.8 4.8s-4.8-2.16-4.8-4.8 2.16-4.8 4.8-4.8 4.8 2.16 4.8 4.8z" fill="#0045a7"/><path d="m197.04 240.54c0 2.64-2.16 4.8-4.8 4.8s-4.8-2.16-4.8-4.8 2.16-4.8 4.8-4.8 4.8 2.16 4.8 4.8z" fill="#0045a7"/><path d="m206.64 240.54c0 2.64-2.16 4.8-4.8 4.8s-4.8-2.16-4.8-4.8 2.16-4.8 4.8-4.8 4.8 2.16 4.8 4.8z" fill="#0045a7"/><path d="m216.24 240.54c0 2.64-2.16 4.8-4.8 4.8s-4.8-2.16-4.8-4.8 2.16-4.8 4.8-4.8 4.8 2.16 4.8 4.8z" fill="#0045a7"/><path d="m225.94 240.54c0 2.64-2.16 4.8-4.8 4.8s-4.8-2.16-4.8-4.8 2.16-4.8 4.8-4.8 4.8 2.16 4.8 4.8z" fill="#0045a7"/><path d="m81.34 240.54c0-2.64 2.16-4.8 4.8-4.8s4.8 2.16 4.8 4.8-2.16 4.8-4.8 4.8-4.8-2.16-4.8-4.8z" fill="#0045a7"/><path d="m62.04 240.54c0-2.64 2.16-4.8 4.8-4.8s4.8 2.16 4.8 4.8-2.16 4.8-4.8 4.8-4.8-2.16-4.8-4.8z" fill="#0045a7"/><path d="m42.64 240.54c0-2.64 2.16-4.8 4.8-4.8s4.8 2.16 4.8 4.8-2.16 4.8-4.8 4.8-4.8-2.16-4.8-4.8z" fill="#0045a7"/><path d="m110.24 250.14c0 2.64-2.16 4.8-4.8 4.8s-4.8-2.16-4.8-4.8 2.16-4.8 4.8-4.8 4.8 2.16 4.8 4.8z" fill="#0045a7"/><path d="m129.44 250.14c0 2.64-2.16 4.8-4.8 4.8s-4.8-2.16-4.8-4.8 2.16-4.8 4.8-4.8 4.8 2.16 4.8 4.8z" fill="#0045a7"/><path d="m139.04 250.14c0 2.64-2.16 4.8-4.8 4.8s-4.8-2.16-4.8-4.8 2.16-4.8 4.8-4.8 4.8 2.16 4.8 4.8z" fill="#0045a7"/><path d="m148.84 250.14c0 2.64-2.16 4.8-4.8 4.8s-4.8-2.16-4.8-4.8 2.16-4.8 4.8-4.8 4.8 2.16 4.8 4.8z" fill="#0045a7"/><path d="m158.44 250.14c0 2.64-2.16 4.8-4.8 4.8s-4.8-2.16-4.8-4.8 2.16-4.8 4.8-4.8 4.8 2.16 4.8 4.8z" fill="#0045a7"/><path d="m177.64 250.14c0 2.64-2.16 4.8-4.8 4.8s-4.8-2.16-4.8-4.8 2.16-4.8 4.8-4.8 4.8 2.16 4.8 4.8z" fill="#0045a7"/><path d="m197.04 250.14c0 2.64-2.16 4.8-4.8 4.8s-4.8-2.16-4.8-4.8 2.16-4.8 4.8-4.8 4.8 2.16 4.8 4.8z" fill="#0045a7"/><path d="m216.24 250.14c0 2.64-2.16 4.8-4.8 4.8s-4.8-2.16-4.8-4.8 2.16-4.8 4.8-4.8 4.8 2.16 4.8 4.8z" fill="#0045a7"/><path d="m225.94 250.14c0 2.64-2.16 4.8-4.8 4.8s-4.8-2.16-4.8-4.8 2.16-4.8 4.8-4.8 4.8 2.16 4.8 4.8z" fill="#0045a7"/><path d="m62.04 250.14c0-2.64 2.16-4.8 4.8-4.8s4.8 2.16 4.8 4.8-2.16 4.8-4.8 4.8-4.8-2.16-4.8-4.8z" fill="#0045a7"/><path d="m52.44 250.14c0-2.64 2.16-4.8 4.8-4.8s4.8 2.16 4.8 4.8-2.16 4.8-4.8 4.8-4.8-2.16-4.8-4.8z" fill="#0045a7"/><path d="m23.44 250.14c0-2.64 2.16-4.8 4.8-4.8s4.8 2.16 4.8 4.8-2.16 4.8-4.8 4.8-4.8-2.16-4.8-4.8z" fill="#0045a7"/><path d="m110.24 259.84c0 2.64-2.16 4.8-4.8 4.8s-4.8-2.16-4.8-4.8 2.16-4.8 4.8-4.8 4.8 2.16 4.8 4.8z" fill="#0045a7"/><path d="m129.44 259.84c0 2.64-2.16 4.8-4.8 4.8s-4.8-2.16-4.8-4.8 2.16-4.8 4.8-4.8 4.8 2.16 4.8 4.8z" fill="#0045a7"/><path d="m158.44 259.84c0 2.64-2.16 4.8-4.8 4.8s-4.8-2.16-4.8-4.8 2.16-4.8 4.8-4.8 4.8 2.16 4.8 4.8z" fill="#0045a7"/><path d="m187.24 259.84c0 2.64-2.16 4.8-4.8 4.8s-4.8-2.16-4.8-4.8 2.16-4.8 4.8-4.8 4.8 2.16 4.8 4.8z" fill="#0045a7"/><path d="m197.04 259.84c0 2.64-2.16 4.8-4.8 4.8s-4.8-2.16-4.8-4.8 2.16-4.8 4.8-4.8 4.8 2.16 4.8 4.8z" fill="#0045a7"/><path d="m206.64 259.84c0 2.64-2.16 4.8-4.8 4.8s-4.8-2.16-4.8-4.8 2.16-4.8 4.8-4.8 4.8 2.16 4.8 4.8z" fill="#0045a7"/><path d="m216.24 259.84c0 2.64-2.16 4.8-4.8 4.8s-4.8-2.16-4.8-4.8 2.16-4.8 4.8-4.8 4.8 2.16 4.8 4.8z" fill="#0045a7"/><path d="m225.94 259.84c0 2.64-2.16 4.8-4.8 4.8s-4.8-2.16-4.8-4.8 2.16-4.8 4.8-4.8 4.8 2.16 4.8 4.8z" fill="#0045a7"/><path d="m90.94 259.84c0-2.64 2.16-4.8 4.8-4.8s4.8 2.16 4.8 4.8-2.16 4.8-4.8 4.8-4.8-2.16-4.8-4.8z" fill="#0045a7"/><path d="m81.34 259.84c0-2.64 2.16-4.8 4.8-4.8s4.8 2.16 4.8 4.8-2.16 4.8-4.8 4.8-4.8-2.16-4.8-4.8z" fill="#0045a7"/><path d="m71.64 259.84c0-2.64 2.16-4.8 4.8-4.8s4.8 2.16 4.8 4.8-2.16 4.8-4.8 4.8-4.8-2.16-4.8-4.8z" fill="#0045a7"/><path d="m62.04 259.84c0-2.64 2.16-4.8 4.8-4.8s4.8 2.16 4.8 4.8-2.16 4.8-4.8 4.8-4.8-2.16-4.8-4.8z" fill="#0045a7"/><path d="m23.44 259.84c0-2.64 2.16-4.8 4.8-4.8s4.8 2.16 4.8 4.8-2.16 4.8-4.8 4.8-4.8-2.16-4.8-4.8z" fill="#0045a7"/><path d="m110.24 269.54c0 2.64-2.16 4.8-4.8 4.8s-4.8-2.16-4.8-4.8 2.16-4.8 4.8-4.8 4.8 2.16 4.8 4.8z" fill="#0045a7"/><path d="m119.84 269.54c0 2.64-2.16 4.8-4.8 4.8s-4.8-2.16-4.8-4.8 2.16-4.8 4.8-4.8 4.8 2.16 4.8 4.8z" fill="#0045a7"/><path d="m129.44 269.54c0 2.64-2.16 4.8-4.8 4.8s-4.8-2.16-4.8-4.8 2.16-4.8 4.8-4.8 4.8 2.16 4.8 4.8z" fill="#0045a7"/><path d="m187.24 269.54c0 2.64-2.16 4.8-4.8 4.8s-4.8-2.16-4.8-4.8 2.16-4.8 4.8-4.8 4.8 2.16 4.8 4.8z" fill="#0045a7"/><path d="m197.04 269.54c0 2.64-2.16 4.8-4.8 4.8s-4.8-2.16-4.8-4.8 2.16-4.8 4.8-4.8 4.8 2.16 4.8 4.8z" fill="#0045a7"/><path d="m90.94 269.54c0-2.64 2.16-4.8 4.8-4.8s4.8 2.16 4.8 4.8-2.16 4.8-4.8 4.8-4.8-2.16-4.8-4.8z" fill="#0045a7"/><path d="m71.64 269.54c0-2.64 2.16-4.8 4.8-4.8s4.8 2.16 4.8 4.8-2.16 4.8-4.8 4.8-4.8-2.16-4.8-4.8z" fill="#0045a7"/><path d="m42.64 269.54c0-2.64 2.16-4.8 4.8-4.8s4.8 2.16 4.8 4.8-2.16 4.8-4.8 4.8-4.8-2.16-4.8-4.8z" fill="#0045a7"/><path d="m33.04 269.54c0-2.64 2.16-4.8 4.8-4.8s4.8 2.16 4.8 4.8-2.16 4.8-4.8 4.8-4.8-2.16-4.8-4.8z" fill="#0045a7"/><path d="m264.64 279.24c0-2.64 2.16-4.8 4.8-4.8s4.8 2.16 4.8 4.8-2.16 4.8-4.8 4.8-4.8-2.16-4.8-4.8z"/><path d="m129.44 279.24c0 2.64-2.16 4.8-4.8 4.8s-4.8-2.16-4.8-4.8 2.16-4.8 4.8-4.8 4.8 2.16 4.8 4.8z" fill="#0045a7"/><path d="m148.84 279.24c0 2.64-2.16 4.8-4.8 4.8s-4.8-2.16-4.8-4.8 2.16-4.8 4.8-4.8 4.8 2.16 4.8 4.8z" fill="#0045a7"/><path d="m158.44 279.24c0 2.64-2.16 4.8-4.8 4.8s-4.8-2.16-4.8-4.8 2.16-4.8 4.8-4.8 4.8 2.16 4.8 4.8z" fill="#0045a7"/><path d="m187.24 279.24c0 2.64-2.16 4.8-4.8 4.8s-4.8-2.16-4.8-4.8 2.16-4.8 4.8-4.8 4.8 2.16 4.8 4.8z" fill="#0045a7"/><path d="m197.04 279.24c0 2.64-2.16 4.8-4.8 4.8s-4.8-2.16-4.8-4.8 2.16-4.8 4.8-4.8 4.8 2.16 4.8 4.8z" fill="#0045a7"/><path d="m206.64 279.24c0 2.64-2.16 4.8-4.8 4.8s-4.8-2.16-4.8-4.8 2.16-4.8 4.8-4.8 4.8 2.16 4.8 4.8z" fill="#0045a7"/><path d="m225.94 279.24c0 2.64-2.16 4.8-4.8 4.8s-4.8-2.16-4.8-4.8 2.16-4.8 4.8-4.8 4.8 2.16 4.8 4.8z" fill="#0045a7"/><path d="m90.94 279.24c0-2.64 2.16-4.8 4.8-4.8s4.8 2.16 4.8 4.8-2.16 4.8-4.8 4.8-4.8-2.16-4.8-4.8z" fill="#0045a7"/><path d="m62.04 279.24c0-2.64 2.16-4.8 4.8-4.8s4.8 2.16 4.8 4.8-2.16 4.8-4.8 4.8-4.8-2.16-4.8-4.8z" fill="#0045a7"/><path d="m33.04 279.24c0-2.64 2.16-4.8 4.8-4.8s4.8 2.16 4.8 4.8-2.16 4.8-4.8 4.8-4.8-2.16-4.8-4.8z" fill="#0045a7"/><path d="m23.44 279.24c0-2.64 2.16-4.8 4.8-4.8s4.8 2.16 4.8 4.8-2.16 4.8-4.8 4.8-4.8-2.16-4.8-4.8z" fill="#0045a7"/><path d="m110.24 288.84c0 2.64-2.16 4.8-4.8 4.8s-4.8-2.16-4.8-4.8 2.16-4.8 4.8-4.8 4.8 2.16 4.8 4.8z" fill="#0045a7"/><path d="m168.04 288.84c0 2.64-2.16 4.8-4.8 4.8s-4.8-2.16-4.8-4.8 2.16-4.8 4.8-4.8 4.8 2.16 4.8 4.8z" fill="#0045a7"/><path d="m177.64 288.84c0 2.64-2.16 4.8-4.8 4.8s-4.8-2.16-4.8-4.8 2.16-4.8 4.8-4.8 4.8 2.16 4.8 4.8z" fill="#0045a7"/><path d="m225.94 288.84c0 2.64-2.16 4.8-4.8 4.8s-4.8-2.16-4.8-4.8 2.16-4.8 4.8-4.8 4.8 2.16 4.8 4.8z" fill="#0045a7"/><path d="m81.34 288.84c0-2.64 2.16-4.8 4.8-4.8s4.8 2.16 4.8 4.8-2.16 4.8-4.8 4.8-4.8-2.16-4.8-4.8z" fill="#0045a7"/><path d="m62.04 288.84c0-2.64 2.16-4.8 4.8-4.8s4.8 2.16 4.8 4.8-2.16 4.8-4.8 4.8-4.8-2.16-4.8-4.8z" fill="#0045a7"/><path d="m52.44 288.84c0-2.64 2.16-4.8 4.8-4.8s4.8 2.16 4.8 4.8-2.16 4.8-4.8 4.8-4.8-2.16-4.8-4.8z" fill="#0045a7"/><path d="m42.64 288.84c0-2.64 2.16-4.8 4.8-4.8s4.8 2.16 4.8 4.8-2.16 4.8-4.8 4.8-4.8-2.16-4.8-4.8z" fill="#0045a7"/><path d="m23.44 288.84c0-2.64 2.16-4.8 4.8-4.8s4.8 2.16 4.8 4.8-2.16 4.8-4.8 4.8-4.8-2.16-4.8-4.8z" fill="#0045a7"/><path d="m119.84 298.44c0 2.64-2.16 4.8-4.8 4.8s-4.8-2.16-4.8-4.8 2.16-4.8 4.8-4.8 4.8 2.16 4.8 4.8z" fill="#0045a7"/><path d="m139.04 298.44c0 2.64-2.16 4.8-4.8 4.8s-4.8-2.16-4.8-4.8 2.16-4.8 4.8-4.8 4.8 2.16 4.8 4.8z" fill="#0045a7"/><path d="m158.44 298.44c0 2.64-2.16 4.8-4.8 4.8s-4.8-2.16-4.8-4.8 2.16-4.8 4.8-4.8 4.8 2.16 4.8 4.8z" fill="#0045a7"/><path d="m206.64 298.44c0 2.64-2.16 4.8-4.8 4.8s-4.8-2.16-4.8-4.8 2.16-4.8 4.8-4.8 4.8 2.16 4.8 4.8z" fill="#86b52c"/><path d="m225.94 298.44c0 2.64-2.16 4.8-4.8 4.8s-4.8-2.16-4.8-4.8 2.16-4.8 4.8-4.8 4.8 2.16 4.8 4.8z" fill="#0045a7"/><path d="m90.94 298.44c0-2.64 2.16-4.8 4.8-4.8s4.8 2.16 4.8 4.8-2.16 4.8-4.8 4.8-4.8-2.16-4.8-4.8z" fill="#0045a7"/><path d="m71.64 298.44c0-2.64 2.16-4.8 4.8-4.8s4.8 2.16 4.8 4.8-2.16 4.8-4.8 4.8-4.8-2.16-4.8-4.8z" fill="#0045a7"/><path d="m62.04 298.44c0-2.64 2.16-4.8 4.8-4.8s4.8 2.16 4.8 4.8-2.16 4.8-4.8 4.8-4.8-2.16-4.8-4.8z" fill="#0045a7"/><path d="m22.56 53.13v33.94c0 2.18 1.78 3.96 3.96 3.96h59.97c2.18 0 3.96-1.78 3.96-3.96v-59.96c0-2.18-1.78-3.96-3.96-3.96h-59.97c-2.18 0-3.96 1.78-3.96 3.96zm58.19 0v24.25c0 2.18-1.78 3.96-3.96 3.96h-40.57c-2.18 0-3.96-1.78-3.96-3.96v-40.57c0-2.18 1.78-3.96 3.96-3.96h40.57c2.18 0 3.96 1.78 3.96 3.96v16.33z" fill="#0045a7"/><path d="m41.96 53.13v14.55c0 2.18 1.78 3.96 3.96 3.96h21.17c2.18 0 3.96-1.78 3.96-3.96v-21.17c0-2.18-1.78-3.96-3.96-3.96h-21.17c-2.18 0-3.96 1.78-3.96 3.96v6.63z" fill="#86b52c"/><path d="m235.49 53.13v33.94c0 2.18 1.78 3.96 3.96 3.96h59.97c2.18 0 3.96-1.78 3.96-3.96v-59.96c0-2.18-1.78-3.96-3.96-3.96h-59.97c-2.18 0-3.96 1.78-3.96 3.96zm58.19 0v24.25c0 2.18-1.78 3.96-3.96 3.96h-40.57c-2.18 0-3.96-1.78-3.96-3.96v-40.57c0-2.18 1.78-3.96 3.96-3.96h40.57c2.18 0 3.96 1.78 3.96 3.96v16.33z" fill="#0045a7"/><path d="m254.89 53.13v14.55c0 2.18 1.78 3.96 3.96 3.96h21.17c2.18 0 3.96-1.78 3.96-3.96v-21.17c0-2.18-1.78-3.96-3.96-3.96h-21.17c-2.18 0-3.96 1.78-3.96 3.96v6.63z" fill="#86b52c"/><path d="m235.49 265.58v33.94c0 2.18 1.78 3.96 3.96 3.96h59.97c2.18 0 3.96-1.78 3.96-3.96v-59.97c0-2.18-1.78-3.96-3.96-3.96h-59.97c-2.18 0-3.96 1.78-3.96 3.96v26.02zm58.19 0v24.25c0 2.18-1.78 3.96-3.96 3.96h-40.57c-2.18 0-3.96-1.78-3.96-3.96v-40.57c0-2.18 1.78-3.96 3.96-3.96h40.57c2.18 0 3.96 1.78 3.96 3.96v16.33z" fill="#0045a7"/><path d="m254.89 265.58v14.55c0 2.18 1.78 3.96 3.96 3.96h21.17c2.18 0 3.96-1.78 3.96-3.96v-21.17c0-2.18-1.78-3.96-3.96-3.96h-21.17c-2.18 0-3.96 1.78-3.96 3.96v6.63z" fill="#86b52c"/></svg>