<svg fill="none" height="51" viewBox="0 0 117 51" width="117" xmlns="http://www.w3.org/2000/svg"><path clip-rule="evenodd" d="m116.458 26.4552c.252-1.3576-.645-2.662-2.003-2.9134l-22.1236-4.097c-1.3577-.2514-2.662.6453-2.9135 2.003-.2514 1.3576.6454 2.662 2.003 2.9134l15.9081 2.9458c-22.1168 13.1757-46.7275 15.7232-66.2424 11.0127-21.2192-5.1219-35.5866-18.4886-35.5866-35.31972 0-1.38071-1.11929-2.500003-2.5-2.500003s-2.5 1.119293-2.5 2.500003c0 20.16862 17.1326 34.80202 39.4134 40.18012 20.9408 5.0547 47.1633 2.2307 70.5736-11.9371l-3.042 16.4256c-.252 1.3576.645 2.662 2.003 2.9134 1.357.2514 2.662-.6453 2.913-2.003z" fill="#fff" fill-rule="evenodd"/></svg>