<svg fill="none" height="32" viewBox="0 0 32 32" width="32" xmlns="http://www.w3.org/2000/svg"><path clip-rule="evenodd" d="m13.7752.0202739c.6632-.0603477 1.3318.014366 1.9654.2196291.6336.205262 1.2189.536815 1.7208.974637l.2464.22998 12.8491 12.85108c.8843.8844 1.3992 2.0721 1.4404 3.3221.0412 1.2501-.3944 2.469-1.2186 3.4098l-.2218.2365-9.2927 9.2929c-.8844.8843-2.072 1.3992-3.3221 1.4404-1.25.0412-2.4689-.3944-3.4096-1.2186l-.2366-.2218-12.8524-12.851c-.470672-.4707-.841124-1.0318-1.089006-1.6496-.247883-.6177-.3680596-1.2793-.35327867-1.9447l.01806987-.3368.7753508-8.51752c.099543-1.09769.564184-2.13033 1.319664-2.93288.75548-.80254 1.75818-1.32866 2.84785-1.494262l.29404-.034498zm-4.12809 9.6280161c-.30514.30514-.54719.66741-.71233 1.06611s-.25014.826-.25014 1.2575c0 .4316.085.8589.25014 1.2576s.40719.7609.71233 1.0661c.30513.3051.66739.5472 1.06609.7123s.826.2501 1.2575.2501.8588-.085 1.2575-.2501.7609-.4072 1.0661-.7123c.6162-.6163.9624-1.4521.9624-2.3237 0-.8715-.3462-1.7073-.9624-2.32361-.6163-.61627-1.4521-.96248-2.3236-.96248s-1.7073.34621-2.32359.96248z" fill="#fff" fill-rule="evenodd"/></svg>