<svg fill="none" height="29" viewBox="0 0 35 29" width="35" xmlns="http://www.w3.org/2000/svg"><path clip-rule="evenodd" d="m24.0865 0c.9748.00003229 1.9304.26464 2.7596.764182.8293.499538 1.4995 1.214288 1.9355 2.064168l2.4255 4.727c.427-.17059.847-.35482 1.26-.5527.4154-.20224.8961-.23534 1.3366-.09201.4404.14332.8044.45132 1.0118.85624.2075.40493.2414.8736.0944 1.30293-.147.42932-.463.78413-.8784.98639-.4206.1825-.8435.3599-1.2687.5322l1.6817 3.2804c.365.7113.555 1.4957.5548 2.291v4.3108c.0011.7202-.1543 1.4324-.4559 2.0899-.3017.6574-.7427 1.2451-1.2941 1.7244v2.1563c0 .6786-.2766 1.3295-.7688 1.8093-.4923.4799-1.16.7495-1.8561.7495-.6962 0-1.3639-.2696-1.8562-.7495-.4922-.4798-.7688-1.1307-.7688-1.8093v-.853h-20.99955v.853c0 .6786-.27655 1.3295-.76882 1.8093-.49228.4799-1.15994.7495-1.85612.7495s-1.36385-.2696-1.85612-.7495c-.49227-.4798-.76883-1.1307-.76883-1.8093v-2.1563c-1.074474-.9382-1.74996-2.2995-1.74996-3.8143v-4.3125c.00032703-.7941.190249-1.5773.554738-2.2876l1.667712-3.2548c-.42174-.174-.83998-.3582-1.25122-.5578-.413287-.20488-.727443-.55985-.8747499-.98841-.1473067-.42855-.1159659-.89637.0872659-1.30261.102651-.20056.244842-.37944.418445-.52641.173604-.14696.375217-.25914.593319-.33011.2181-.07098.44841-.09936.67776-.08352.22936.01583.45327.07557.65893.17581.41299.19958.83473.38211 1.25997.5527l2.42545-4.72529c.43583-.8502 1.10592-1.5653 1.93519-2.065152.82928-.499854 1.78496-.76471731 2.75999-.764908zm-14.4617 15.3529c-.69618 0-1.36385.2696-1.85612.7495s-.76883 1.1307-.76883 1.8094c0 .6786.27656 1.3295.76883 1.8093.49227.4799 1.15994.7495 1.85612.7495.6962 0 1.3638-.2696 1.8561-.7495.4923-.4798.7688-1.1307.7688-1.8093 0-.6787-.2765-1.3295-.7688-1.8094s-1.1599-.7495-1.8561-.7495zm15.7497 0c-.6962 0-1.3639.2696-1.8561.7495-.4923.4799-.7689 1.1307-.7689 1.8094 0 .6786.2766 1.3295.7689 1.8093.4922.4799 1.1599.7495 1.8561.7495.6961 0 1.3638-.2696 1.8561-.7495.4923-.4798.7688-1.1307.7688-1.8093 0-.6787-.2765-1.3295-.7688-1.8094s-1.16-.7495-1.8561-.7495zm-1.288-11.94114h-13.1737c-.2881-.00004-.5716.06923-.8256.20165-.25401.13242-.47054.32391-.6304.55747l-.1085.18424-2.22245 4.32953c2.70894.79153 6.35935 1.55065 10.37375 1.55065 3.7485 0 7.1766-.66189 9.8173-1.39371l.5548-.15694-2.2207-4.32953c-.1288-.25108-.3192-.4673-.5542-.62948-.2351-.16218-.5076-.2653-.7933-.30023l-.2153-.01365z" fill="#8bb718" fill-rule="evenodd"/></svg>