<svg viewBox="0 0 1684.45 181.24" xmlns="http://www.w3.org/2000/svg"><path d="m-6.75 60.58h1695.2v132.95h-1695.2z" fill="#104292"/><path d="m839.47 170.48c311.41 0 602.25-19.01 848.98-51.96v-57.95h-430.93c-127.67 19.45-269.14 30.28-418.04 30.28s-290.38-10.83-418.04-30.28h-428.18v58.31c246.14 32.72 535.98 51.59 846.23 51.59h-.02z" fill="#2c3b82"/><path d="m-6.75 60.58c0 8.56 6.04 15.92 14.44 17.58 230.2 45.41 518.66 72.42 831.79 72.42s616.02-28.39 848.97-75.88v-81.82h-1695.2v67.69z" fill="#eaeaea"/><path d="m-6.75-7.11v14.69c232.52 47.15 526.52 75.31 846.23 75.31s616.02-28.39 848.97-75.88v-14.13h-1695.2z" fill="#fff"/></svg>