<svg viewBox="0 0 1695.2 135.73" xmlns="http://www.w3.org/2000/svg"><path d="m0 67.7h1695.2v68.03h-1695.2z" fill="#71b023"/><path d="m846.22 111.84c311.41 0 602.25-14.92 848.98-40.78v-45.48h-430.93c-127.67 15.27-269.14 23.77-418.04 23.77s-290.38-8.5-418.04-23.77h-428.18v45.77c246.14 25.68 535.98 40.49 846.23 40.49z" fill="#2c3b82"/><path d="m0 42.06c0 5.32 6.04 9.89 14.44 10.92 230.2 28.21 518.66 44.99 831.79 44.99s616.02-17.64 848.97-47.14v-50.83h-1695.2v42.05z" fill="#eaeaea"/><path d="m0 0v14.69c232.52 47.15 526.52 75.31 846.23 75.31s616.02-28.39 848.97-75.88v-14.12z" fill="#fff"/></svg>