<svg viewBox="0 0 1684.45 122.2" xmlns="http://www.w3.org/2000/svg"><path d="m842.23 31.85c310.57 0 599.79 20.6 842.23 56.06v-31.85c-242.44-35.46-531.66-56.06-842.23-56.06s-599.79 20.6-842.23 56.06v31.85c242.44-35.46 531.66-56.06 842.23-56.06z" fill="#fff"/><path d="m1684.45 265.02v-193.03c-242.44-35.46-531.66-56.06-842.23-56.06s-599.78 20.59-842.22 56.06v193.03c171.73-101.53 484.65-169.46 842.23-169.46s670.5 67.93 842.23 169.46z" fill="#2c3b82"/><path d="m2011.87 208.56v-3.26c-238.49-101.53-673.06-169.47-1169.64-169.47s-931.16 67.94-1169.65 169.47v3.26z" fill="#0045a7"/></svg>