<svg viewBox="0 0 1684.45 181.24" xmlns="http://www.w3.org/2000/svg"><path d="m-6.75-7.12h1695.2v132.95h-1695.2z" fill="#104292"/><path d="m842.23 15.93c-311.41 0-602.25 19.01-848.98 51.96v57.95h430.93c127.67-19.45 269.14-30.28 418.04-30.28s290.38 10.83 418.04 30.28h428.18v-58.31c-246.14-32.72-535.98-51.59-846.23-51.59h.02z" fill="#2c3b82"/><path d="m1688.45 125.83c0-8.56-6.04-15.92-14.44-17.58-230.2-45.41-518.66-72.42-831.79-72.42s-616.02 28.39-848.97 75.88v81.82h1695.2v-67.69z" fill="#eaeaea"/><path d="m1688.45 193.52v-14.69c-232.52-47.15-526.52-75.31-846.23-75.31s-616.02 28.39-848.97 75.88v14.13h1695.2z" fill="#fff"/></svg>