<svg viewBox="0 0 481 454.1" xmlns="http://www.w3.org/2000/svg"><path d="m85.1 292.2 52.3 102.2 45.1-24.2 40-.4 43.5-22.3-77.3-121.3-57.4 34.5-19.1 10.7z" fill="#ffc89f"/><path d="m126.9 339.2-20.8-63.2-2.8-8.6-60.7 27 23 70z" fill="#86b52c"/><path d="m144 390.9-17.1-51.7-61.3 25.2 23.6 71.6 60.5-27.8z" fill="#86b52c"/><path d="m156.4 76.8c-11.4 4-17.6 16.1-13.8 26.9l97 277.5c3.8 10.8 16.2 16.4 27.5 12.5l67-23.4-110.7-316.9z" fill="#2d4375"/><path d="m318 42.4c-3.8-10.8-16.2-16.4-27.5-12.5l-67 23.4 110.8 316.9 67-23.4c11.4-4 17.6-16.1 13.8-26.9z" fill="#1e2d4f"/><path d="m316.6 65c-1.5-4.3-6.5-6.6-11-5l-71.1 24.9 82.6 236.3 71.1-24.9c4.5-1.6 7-6.4 5.5-10.8l-77.1-220.6z" fill="#0045a7"/><path d="m163.3 109.8c-4.5 1.6-7 6.4-5.5 10.8l77.1 220.6c1.5 4.3 6.5 6.6 11 5l71.1-24.9-82.6-236.3-71.2 24.9z" fill="#0056bc"/><path d="m312.3 338.1c-1.5.5-2.9 1.3-4.2 2.4-3.8 3.3-5.2 8.3-3.6 12.9 2.1 6.2 9.2 9.3 15.6 7.1l9.5-3.3-7.8-22.3-9.5 3.3z" fill="#1e2d4f"/><path d="m340.8 331.9c-3-1.3-6.3-1.5-9.4-.4l-9.5 3.3 7.8 22.3 9.5-3.3c1.5-.5 2.9-1.3 4.2-2.4 3.8-3.3 5.2-8.3 3.7-12.9-1-3-3.2-5.4-6.2-6.7z" fill="#2d4375"/><path d="m208.5 73.5c-2.5.9-3.9 3.6-3 6 .8 2.4 3.6 3.7 6.1 2.8l19.5-6.8-3.1-8.8z" fill="#1e2d4f"/><path d="m247.6 59.8-19.5 6.8 3.1 8.8 19.5-6.8c2.5-.9 3.9-3.6 3.1-6s-3.6-3.7-6.1-2.8z" fill="#2d4375"/><path d="m255.3 143.4c-39.9 13.7-61.2 57.3-47.5 97.2s57.3 61.2 97.2 47.5l-49.8-144.7z" fill="#fff"/><path d="m255.3 143.4 49.8 144.7c39.9-13.7 61.2-57.3 47.5-97.2s-57.3-61.2-97.2-47.5z" fill="#e0e0e0"/><path d="m252 244.2 6.8 18.4c1.5 4-.6 8.5-4.6 10.1l-6.1 2.3c-4.1 1.5-8.6-.6-10.2-4.7l-6.8-18.4c-1.5-4.1.6-8.6 4.7-10.2l6-2.2c4.1-1.5 8.6.6 10.2 4.7z" fill="#393c41"/><path d="m249.2 257.4h1.2v16.3h-1.2z" fill="#2a2d30" transform="matrix(.93788893 -.34693565 .34693565 .93788893 -76.6 103.2)"/><path d="m246 258.6h1.2v16.3h-1.2z" fill="#2a2d30" transform="matrix(.93788893 -.34693565 .34693565 .93788893 -77.3 102.2)"/><path d="m256.3 255.9.6 1.7-5.2 11.3-.3.7-.6-1.7.3-.6z" fill="#2a2d30"/><path d="m258.2 261 .6 1.6-4.6 10.1-1.4.5-.1-.2.3-.7z" fill="#2a2d30"/><path d="m254.4 250.9.6 1.7-5.1 11.3-.3.7-.6-1.7.3-.7z" fill="#2a2d30"/><path d="m235.4 263.6.7 1.7 11.3 5.2.6.3-.6-1.6-.7-.3z" fill="#2a2d30"/><path d="m237.3 268.7.6 1.6 10 4.7 1.5-.5-.1-.3-.7-.3z" fill="#2a2d30"/><path d="m233.6 258.6.6 1.7 11.3 5.2.7.3-.7-1.6-.6-.3z" fill="#2a2d30"/><path d="m341.6 211 6.8 18.4c1.5 4-.6 8.5-4.6 10.1l-6.1 2.3c-4.1 1.5-8.6-.6-10.2-4.7l-6.8-18.4c-1.5-4.1.6-8.6 4.7-10.2l6-2.2c4.1-1.5 8.6.6 10.2 4.7z" fill="#393c41"/><g fill="#2a2d30"><path d="m338.8 224.3h1.2v16.3h-1.2z" transform="matrix(.93788893 -.34693565 .34693565 .93788893 -59.6 132.2)"/><path d="m335.6 225.5h1.2v16.3h-1.2z" transform="matrix(.93788893 -.34693565 .34693565 .93788893 -60.2 131.2)"/><path d="m345.9 222.8.6 1.6-5.2 11.4-.3.6-.6-1.6.3-.7z"/><path d="m347.8 227.8.6 1.7-4.6 10-1.4.5-.1-.2.3-.6z"/><path d="m344 217.7.6 1.7-5.1 11.3-.3.7-.6-1.7.3-.6z"/><path d="m325 230.5.6 1.7 11.4 5.2.6.3-.6-1.7-.7-.3z"/><path d="m326.9 235.5.6 1.7 10 4.6 1.5-.5-.1-.2-.7-.3z"/><path d="m323.2 225.5.6 1.6 11.3 5.3.7.3-.7-1.7-.6-.3z"/><path d="m324.5 164.7-7.7 2.8c-2.3.9-3.5 3.4-2.6 5.7 0 0 0 .2.1.2l-4.2 6.6 1.4.9 3.8-6c1.2 1.1 2.9 1.5 4.6.9l7.7-2.8c2.3-.9 3.5-3.4 2.6-5.7s-3.4-3.5-5.7-2.6z"/><path d="m213.5 205.8 7.7-2.8c2.3-.9 4.9.3 5.7 2.6v.3l7.4 2.3-.5 1.6-6.8-2.1c-.2 1.6-1.2 3.1-2.9 3.7l-7.7 2.8c-2.3.9-4.9-.3-5.7-2.6-.9-2.3.3-4.9 2.6-5.7z"/></g><path d="m350.7 218.7c-.2-.7-.3-1.3-.5-2.1-2-8.4-4.7-16.6-8.1-24.5-.6-1.4-2.3-3.3-3.7-4.1-4.9-2.7-9.8-5.4-14.7-8-1.5-.8-3.9-1-5.3-.4-15.2 5.6-30.5 11.3-45.7 16.9-14.8 5.5-29.6 10.9-44.4 16.4-1.5.5-3.2 2.2-3.8 3.8-2.1 5.2-4.1 10.4-6 15.6-.6 1.5-.7 4-.2 5.5.5 1.6.8 2.4 1.3 4 2.8 7.5 5.9 14.7 9.5 21.8l121.6-45z" fill="#ff4140"/><path d="m300.2 152.9s0 0 0-.1c-1-2.7-18.9 1.4-39.9 9.2-.1 0-.2 0-.3.1l13.3 36 49.3-18.2-22.3-27z" fill="#cc2221"/><path d="m223.9 180.9s0 0 0 .1l.9 34.9 48.3-17.8-13.3-36c-20.9 7.7-37 16.2-36 18.8z" fill="#cc2221"/><path d="m298.2 154.7c-3.5-.4-17.4 2.7-36.8 9.8-.2 0-.3.1-.5.2-19.2 7.1-31.5 13.8-33.9 16.3l1.2 28.9 43.5-16 44.4-16.4z" fill="#1e2d4f"/><path d="m308.2 223.3c.5 1.3-.2 2.7-1.5 3.2l-39.2 14.5c-1.3.5-2.7-.2-3.2-1.5l-4-10.9c-.5-1.3.2-2.7 1.5-3.2l39.2-14.5c1.3-.5 2.7.2 3.2 1.5z" fill="#2a2d30"/><path d="m232.7 220.7s0 0 0 0l5.1 13.7-1.2.4 2.2 5.9 14.6-5.4-2.2-5.9c-2.8-7.5-11-11.5-18.4-8.8z" fill="#cc2221"/><path d="m236.9 248.8c-4.5 1.7-9.6-.6-11.3-5.2v-.3c-1.8-4.5.5-9.6 5.1-11.3h.1s.1 0 .1 0c5.3-.3 22.5-1.1 23.1 3.4.7 4.6-.9 7.4-4.8 8.8l-12.4 4.6z" fill="#cc2221"/><path d="m253.3 235.5c.6 3.9-.5 6.5-4.3 7.9l-12.4 4.6c-4.1 1.5-8.7-.6-10.2-4.7v-.3c-1.6-4.1.5-8.7 4.6-10.2 0 0 21.7-1.4 22.3 2.7z" fill="#fffbff"/><path d="m320 188.4s0 0 0 0l5.1 13.7 1.2-.4 2.2 5.9-14.6 5.4-2.2-5.9c-2.8-7.6.9-15.9 8.2-18.6z" fill="#cc2221"/><path d="m335.1 212.4c4.5-1.7 6.9-6.7 5.2-11.3v-.3c-1.8-4.5-6.8-6.9-11.4-5.2h-.1s0 .1 0 .1c-4.2 3.2-17.8 13.8-15.4 17.6 2.5 3.9 5.5 5 9.4 3.6l12.4-4.6z" fill="#cc2221"/><path d="m314 213c2.1 3.3 4.6 4.7 8.4 3.2l12.4-4.6c4.1-1.5 6.2-6.1 4.7-10.2v-.3c-1.6-4.1-6.2-6.2-10.3-4.7 0 0-17.4 13-15.2 16.5z" fill="#fffbff"/><path d="m227.9 201.9.3 8 43.5-16 44.4-16.5-13.8-17.5z" fill="#1e2d4f"/><path d="m298.2 154.7c-3.5-.4-17.4 2.7-36.8 9.8-.2 0-.3.1-.5.2-19.2 7.1-31.5 13.8-33.9 16.3l.9 20.9 74.5-42-4.1-5.2z" fill="#2d4375"/><path d="m328.5 220.2-.9 3.6-77.6 28.7-3-2.2-20.7 7.6c1 2 1.9 4.1 3 6.1 1.9 3.4 7 4.9 11.2 3.3 17.1-6.3 34.2-12.6 51.4-19l52.6-19.4c4.2-1.6 7.2-6 6.4-9.8-.2-1-.3-1.6-.6-2.6-.3-1.4-.7-2.7-1-4.1l-20.7 7.6z" fill="#2a2d30"/><path d="m271.9 239.2h37.5c1.2 0 2.1.9 2.1 2.1v3.4c0 1.2-.9 2.1-2.1 2.1h-37.5c-1.2 0-2.1-.9-2.1-2.1v-3.4c0-1.2.9-2.1 2.1-2.1z" fill="#fffbff" transform="matrix(.93788893 -.34693565 .34693565 .93788893 -66.3 116)"/><path d="m151.8 162.7 62.2-43.9s8.8-8 13.2-1.2c2.6 4 9.6 26.3-12.7 42.6-6.6 4.8-26.4 22.4-26.4 22.4s5.5 43.8-3.6 67.2l-62.3 16 8-43s18.9-52.8 21.7-60.1z" fill="#ffc89f"/><circle cx="342.6" cy="117.8" fill="#86b52c" r="71"/><path d="m374.9 109h-23.9v-23.9c-.5-4.6-4.7-8-9.3-7.4-3.9.4-7 3.5-7.4 7.4v23.9h-23.9c-4.6-.5-8.8 2.8-9.3 7.4s2.8 8.8 7.4 9.3h1.9 23.9v23.9c.5 4.6 4.7 8 9.3 7.4 3.9-.4 7-3.5 7.4-7.4v-23.9h23.9c4.6-.5 8-4.7 7.4-9.3-.4-3.9-3.5-7-7.4-7.4z" fill="#fff"/></svg>