<svg viewBox="0 0 481 454.1" xmlns="http://www.w3.org/2000/svg"><path d="m113.9 95.2h252.9c14.1-.1 25.5 11.3 25.5 25.4v85.4s-303.9.1-303.9.1v-85.4c0-14.1 11.4-25.5 25.5-25.5z" fill="#2d4375"/><path d="m88.5 206.2h303.9c0-.1 0 85.3 0 85.3 0 14.1-11.4 25.5-25.5 25.5h-252.9c-14.1.1-25.5-11.3-25.5-25.4z" fill="#1e2d4f"/><path d="m104.1 206.2h250c0-.1 0 91.2 0 91.2 0 4-3.2 7.2-7.2 7.2h-235.6c-4 0-7.2-3.1-7.2-7.1z" fill="#86b52c"/><path d="m95 166c1.3 0 2.4 1.1 2.4 2.4v75.6c0 1.3-1 2.4-2.4 2.4-1.3 0-2.4-1.1-2.4-2.4v-75.6c0-1.3 1-2.4 2.4-2.4z" fill="#40577f"/><path d="m111.2 107.7h235.7c4-.1 7.2 3.1 7.2 7v91.3s-250 .1-250 .1v-91.4c0-3.9 3.2-7.1 7.1-7.1z" fill="#9fce38"/><path d="m372.3 184.4c4.1 0 7.4 3.3 7.4 7.4v28.5c0 4.1-3.3 7.5-7.4 7.5-4.1 0-7.4-3.3-7.4-7.5v-28.5c0-4.1 3.3-7.4 7.4-7.4z" fill="#40577f"/><path d="m111.7 268.3c-4.1 12.8-7 26.2-7 26.2 7.3 19.7-2.2 48.7-25.7 60.1l-28.7 46.1-39.7-16.5 39.7-49.7v-76l38.1-26.9v19c.1 0-13.8 10.5-13.8 10.5l9.5 18.7 13.2-20.4 14.9-14.6 10.1-9.9c1.7.8 2.9 1.8 3.7 3 5.2 7.2-4.7 20.1-14.3 30.3z" fill="#ffc89f"/><path d="m127.4 236.7-6.3 6.6c-2 2.1-5.3 2.2-7.5.3l10.1-9.9c1.7.8 2.9 1.8 3.7 3z" fill="#ffd19f"/><path d="m369.3 273.1c4.1 12.8 7 26.2 7 26.2-7.3 19.7 2.2 48.7 25.7 60.1l28.7 46.1 39.7-16.5-39.7-49.7v-76l-38.1-26.9v19c-.1 0 13.8 10.5 13.8 10.5l-9.5 18.7-13.2-20.4-14.9-14.6-10.1-9.9c-1.7.8-2.9 1.8-3.7 3-5.2 7.2 4.7 20.1 14.3 30.3z" fill="#ffc89f"/><path d="m353.6 241.5 6.3 6.6c2 2.1 5.3 2.2 7.5.3l-10.1-9.9c-1.7.8-2.9 1.8-3.7 3z" fill="#ffd19f"/><circle cx="229.1" cy="206.2" fill="#fff" r="88.9"/><path d="m229.1 166.1h-27.1l-11.8-11c-12-11.1-42.1-7.2-48.2 17l-12.4 49.3c-3.6 14.3 4 29 17.6 34.4 9.3 3.7 19.8 2.4 27.9-3.5l19.6-14.1h34.4v-72.2z" fill="#474646"/><path d="m200.5 200.3c0 14.4-11.7 26-26 26s-26-11.7-26-26 11.6-26 26-26 26 11.7 26 26z" fill="#ecf0f1"/><path d="m181.7 216.5c0 1.7-1.3 3-3 3h-8.5c-1.7 0-3-1.3-3-3v-32.4c0-1.7 1.3-3 3-3h8.5c1.6 0 3 1.3 3 3z" fill="#606060"/><path d="m158.2 193h32.4c1.6 0 3 1.3 3 3v8.5c0 1.6-1.3 3-3 3h-32.4c-1.6 0-3-1.3-3-3v-8.5c0-1.6 1.3-3 3-3z" fill="#606060"/><path d="m183.5 200.3c0 5-4.1 9.1-9.1 9.1s-9.1-4.1-9.1-9.1 4.1-9.1 9.1-9.1 9.1 4.1 9.1 9.1z" fill="#0045a7"/><path d="m214.4 188.5c-3.8 0-7.7 2.6-7.7 7.7v9c0 5 3.9 7.7 7.8 7.7s7.7-2.6 7.7-7.7v-9c0-5-3.9-7.7-7.7-7.7z" fill="#0045a7"/><path d="m229.1 166.1h27.1l11.8-11c12.4-11.6 42.2-6.9 48.2 17l12.4 49.3c3.6 14.3-4 29-17.7 34.4-9.3 3.7-19.8 2.4-27.9-3.5l-19.6-14.1h-34.4v-72.2z" fill="#2b2b2b"/><path d="m309.8 200.3c0 14.4-11.7 26-26 26s-26-11.7-26-26 11.7-26 26-26 26 11.7 26 26z" fill="#ecf0f1"/><g fill="#0045a7"><path d="m287.8 190.8c-2.5 2.5-6.5 2.5-8.9 0-2.5-2.5-2.5-6.5 0-8.9 2.5-2.5 6.5-2.5 8.9 0 2.5 2.5 2.5 6.5 0 8.9z"/><path d="m302.1 205.1c-2.5 2.5-6.5 2.5-8.9 0-2.5-2.5-2.5-6.5 0-8.9 2.5-2.5 6.5-2.5 8.9 0 2.5 2.5 2.5 6.5 0 8.9z"/><path d="m274.3 204.4c-2.5 2.5-6.5 2.5-8.9 0-2.5-2.5-2.5-6.5 0-8.9 2.5-2.5 6.5-2.5 8.9 0 2.5 2.5 2.5 6.5 0 8.9z"/><path d="m288.6 218.6c-2.5 2.5-6.5 2.5-8.9 0-2.5-2.5-2.5-6.5 0-8.9 2.5-2.5 6.5-2.5 8.9 0 2.5 2.5 2.5 6.5 0 8.9z"/><path d="m243.8 188.5c-3.8 0-7.7 2.6-7.7 7.7v9c0 5 3.9 7.7 7.8 7.7s7.7-2.6 7.7-7.7v-9c0-5-3.9-7.7-7.7-7.7z"/></g></svg>