<svg viewBox="0 0 481 454.1" xmlns="http://www.w3.org/2000/svg"><path d="m229.4 39.3c2.6-.1 5.3-.2 7.9-.2h7.9c2.6 0 5.3.2 7.9.4s5.3.5 7.9.8 5.2.7 7.8 1.1 5.2.9 7.8 1.5c2.6.5 5.2 1.1 7.7 1.8 2.6.7 5.1 1.4 7.6 2.1 2.5.8 5 1.6 7.5 2.5s5 1.8 7.4 2.8c2.5 1 4.9 2 7.3 3.1s4.8 2.2 7.1 3.4c2.4 1.2 4.7 2.4 7 3.7s4.6 2.6 6.8 4 4.5 2.8 6.6 4.3c2.2 1.5 4.3 3 6.5 4.6 1.3.9 2.5 1.9 3.8 2.9 1.2 1 2.5 2 3.7 3s2.4 2 3.6 3.1c1.2 1 2.4 2.1 3.5 3.2 1.2 1.1 2.3 2.1 3.5 3.2s2.3 2.2 3.4 3.3 2.2 2.3 3.3 3.4c1.1 1.2 2.2 2.3 3.2 3.5s2.1 2.4 3.1 3.6 2 2.4 3 3.6 2 2.5 3 3.7c1 1.3 1.9 2.5 2.9 3.8.9 1.3 1.9 2.6 2.8 3.9s1.8 2.6 2.7 3.9 1.7 2.6 2.6 4c.8 1.3 1.7 2.7 2.5 4 .8 1.4 1.6 2.7 2.4 4.1s1.5 2.8 2.3 4.2c.7 1.4 1.5 2.8 2.2 4.2s1.4 2.8 2.1 4.3c.7 1.4 1.3 2.9 2 4.3.6 1.4 1.3 2.9 1.9 4.4s1.2 2.9 1.8 4.4 1.1 3 1.7 4.5c.5 1.5 1 3 1.5 4.5s1 3 1.4 4.5c.5 1.5.9 3 1.3 4.6.4 1.5.8 3.1 1.2 4.6s.7 3.1 1.1 4.6c.3 1.5.7 3.1 1 4.6.3 1.6.6 3.1.9 4.7s.5 3.1.8 4.7c.2 1.5.4 3 .6 4.5s.3 3 .5 4.5c.1 1.5.3 3 .4 4.5s.2 3 .3 4.5c0 1.5.1 3 .2 4.5v4.5 4.5c0 1.5-.1 3-.2 4.5 0 1.5-.2 3-.3 4.5s-.3 3-.4 4.5c-.2 1.5-.3 3-.5 4.5s-.4 3-.6 4.5-.5 3-.8 4.5-.6 3-.9 4.5-.6 3-1 4.4c-.3 1.5-.7 2.9-1.1 4.4s-.8 2.9-1.2 4.4-.9 2.9-1.3 4.3c-.5 1.4-.9 2.9-1.4 4.3s-1 2.9-1.5 4.3-1.1 2.8-1.6 4.2-1.1 2.8-1.7 4.2-1.2 2.8-1.8 4.2-1.3 2.7-1.9 4.1c-.7 1.4-1.3 2.7-2 4.1-.7 1.3-1.4 2.7-2.1 4s-1.5 2.6-2.2 3.9c-.8 1.3-1.5 2.6-2.3 3.9s-1.6 2.6-2.4 3.8c-.8 1.3-1.7 2.5-2.5 3.8-.9 1.2-1.7 2.5-2.6 3.7s-1.8 2.4-2.7 3.6c-35.4 46.6-80.1 66.7-136.6 74.2-47.1 1.3-94.5-12-130.8-43.1-1.2-1-2.3-2-3.5-3.1-1.2-1-2.3-2.1-3.4-3.2s-2.2-2.1-3.3-3.2-2.2-2.2-3.3-3.3-2.1-2.3-3.2-3.4c-1-1.1-2.1-2.3-3.1-3.5s-2-2.4-3-3.5c-1-1.2-2-2.4-2.9-3.6-1-1.2-1.9-2.5-2.8-3.7s-1.8-2.5-2.7-3.8-1.8-2.5-2.7-3.8-1.7-2.6-2.6-3.9c-.8-1.3-1.7-2.6-2.5-4-.8-1.3-1.6-2.7-2.4-4s-1.5-2.7-2.3-4.1c-.7-1.4-1.5-2.7-2.2-4.1s-1.4-2.8-2.1-4.2-1.3-2.8-2-4.2c-.6-1.4-1.3-2.8-1.9-4.3-.6-1.4-1.2-2.9-1.8-4.3s-1.1-2.9-1.6-4.4-1-2.9-1.5-4.4-1-2.9-1.4-4.4c-.5-1.5-.9-3-1.3-4.5s-.8-3-1.2-4.5-.8-3-1.1-4.5-.7-3-1-4.6c-.3-1.5-.6-3-.9-4.6-.3-1.5-.5-3.1-.8-4.6-.2-1.5-.5-3.1-.6-4.6-.2-1.5-.4-3.1-.5-4.6-.2-1.5-.3-3.1-.4-4.6-.1-1.6-.2-3.1-.3-4.7 0-1.6-.1-3.1-.2-4.7 0-1.6 0-3.1 0-4.7s0-3.1 0-4.7 0-3.1.2-4.7c0-1.6.2-3.1.3-4.7s.2-3.1.4-4.7c.1-1.6.3-3.1.5-4.7.2-1.5.4-3.1.6-4.6s.5-3.1.7-4.6c.3-1.5.5-3.1.8-4.6s.6-3.1 1-4.6c.3-1.5.7-3 1.1-4.6.4-1.5.8-3 1.2-4.5s.8-3 1.3-4.5.9-3 1.4-4.5 1-3 1.5-4.4c.5-1.5 1.1-2.9 1.6-4.4.6-1.5 1.1-2.9 1.7-4.3s1.2-2.9 1.8-4.3 1.3-2.8 2-4.3l2.1-4.2c.7-1.4 1.4-2.8 2.2-4.2.7-1.4 1.5-2.7 2.3-4.1s1.6-2.7 2.4-4 1.6-2.7 2.5-4c.8-1.3 1.7-2.6 2.6-3.9s1.8-2.6 2.7-3.9 1.8-2.5 2.8-3.8c.9-1.2 1.9-2.5 2.8-3.7 1-1.2 1.9-2.4 2.9-3.6s2-2.4 3-3.6c33.8-38.6 77.1-59.9 128.3-63.2z" fill="#86b52c"/><path d="m188.1 344.9c1.6-9.1 42.9-71.5 50.8-81.4s16.3-20.5 25.8-28.9c15.8-14 35.4-24.3 52.2-37.3 16.1-12.4 32.5-29.7 48.4-40.6 4.2-2.9 8.9-4.6 14-5.1-6.4 7.4-14.8 15.2-19.3 24 11.7-.3 23.3-2 35-1.2 3.9 10.7 7.1 25.2 7.5 36.6-9.1 5.8-20.2 7.4-29.6 13.1 9.2 5.7 20.2 7.8 30 12.4-.1 12.8.8 25.9-7.4 36.6-8.8.4-22.6-1.4-30.6 2h.5s-.5 2-.5 2c7.5 7 16.3 13.2 23 20.9-3 7.3-14 29-21.1 32.3-3.2 1.5-7.2-.2-10.2-1.5-5.7-2.4-14.4-8.8-20.5-8l-1.1.9c1.8 10 8.3 19.9 11.9 29.5-9 8.3-20.3 15.1-31.4 20-5.7-4.5-22.2-21.7-26.2-23.6-2 2-2 5.3-2 8 0 9 1.3 18.2 2.3 27.2-12.8 6.3-24.4 7.7-38.5 8.5-2.1-7.4-6.3-28.5-11.1-33.3-1.6 0-1.2-.4-2.2.6-4.5 4.5-9.2 25.2-11.3 32.1-13.8-1.1-28.3-3-40.6-9.5 1.3-6.5 7.5-29.6 4.4-35.2l-2.1-1z" fill="#0045a7"/><path d="m228.2 62.1c3.7 8.6 7.1 25.3 12.5 32 4.6-2 10.6-24.4 15.3-30 1.5-1.8 2.8-2.2 5-2.3 4.1-.2 27.6 5.7 29.6 8.2 4.8 5.8 0 22.6-.6 30-.1 1.9-.4 3.4.9 4.9 9.8-5.5 15.6-17.1 25.9-22.5.2-.1.5-.2.7-.4 10.8 4.2 19.7 11.1 27.5 19.6-1.4 6-3.8 12.2-6.9 17.6-1.7 2.9-3.8 5.7-5 8.8-.4 1-.3 1.7-.1 2.7 7.8 4.6 24.6-10.4 31.9-7.6 3.5 2.6 15 19.1 16 23.3.6 2.5-.4 3.1-1.7 5-5 .6-9.8 2.3-14 5.1-15.9 10.9-32.3 28.2-48.4 40.6-16.8 13-36.4 23.3-52.2 37.3-9.5 8.4-17.9 19-25.8 28.9s-49.3 72.4-50.8 81.4c-8.2 9-17.3 17-25.6 25.9-9.6-5.3-20.9-12.8-28.3-20.8 2.1-7.4 6.1-14.8 10.3-21.2 1.8-2.7 4.1-5.5 5.4-8.4.7-1.5.7-1.4.1-3.1-6-1.8-27.6 11.3-34.2 14.8-8.2-10.2-14.4-22.5-21.2-33.7 9.6-8.3 20.3-15.8 28.1-25.9-11.8-.4-23.9 1.1-35.7 2.2-6-10.1-7.2-23.3-8.2-34.8 9.1-3.2 24.6-8.9 31.8-14.8-1.4-4.2-26.5-8.5-31.5-14.5-2.1-7.4 2.9-25.8 6.2-32.8 11.7-1.1 23.3.5 35-1.6-7.7-8.5-18.3-14.8-24.8-24.3 5.2-10.5 12.1-21.9 20.5-30.2 7.3 2.2 24.8 12.6 30.4 12.7 1.1-3.7-9.8-28.3-11.9-34.4 6.5-4.2 18.9-15.3 25.3-17.4 6.5-2.1 22.6 18.6 29.3 21.7l2-.7c3.3-5.5-1.4-18-1.8-24.7-.2-3.5.3-7 2.9-9.5 6.8-6.7 26.8-7.7 36.1-7.3z" fill="#0056bc"/><path d="m139.9 178.1c0-26.2 18.8-46.7 48-46.7s48.9 20.5 48.9 46.6-19.2 46.1-48.9 46.1c-29.1.1-48-20.2-48-45.9zm67.2 0c0-13.9-8.3-21.1-19.2-21.1s-18.6 7.2-18.6 21.1 8.1 20.5 18.6 20.5 19.2-7.2 19.2-20.5zm-37.5 141.2 118.2-185.1h24.2l-118.5 185.1h-23.8zm74.9-42.7c0-26.2 18.8-46.6 48-46.6s48.5 20.5 48.5 46.6-19.2 46.1-48.5 46.1-48-20.2-48-46.1zm67.2 0c0-13.9-8.3-21.1-19.2-21.1s-18.6 7.2-18.6 21.1 7.8 20.5 18.6 20.5 19.2-6.8 19.2-20.5z" fill="#fff"/></svg>